<?xml version="1.0" standalone="no"?>
 <!DOCTYPE svg PUBLIC "-//W3C//DTD SVG 1.1//EN" 
 "http://www.w3.org/Graphics/SVG/1.1/DTD/svg11.dtd"> 
<svg
  xmlns:svg="http://www.w3.org/2000/svg"
  xmlns="http://www.w3.org/2000/svg"
  xmlns:xlink="http://www.w3.org/1999/xlink"
  version="1.1"
  width="29.700220cm" height="21.000720cm" viewBox="0 0 116930 82680">
<title>SVG Picture created as stepper_tester-B_Mask.svg date 2020/11/15 11:39:31 </title>
  <desc>Picture generated by PCBNEW </desc>
<g style="fill:#000000; fill-opacity:1;stroke:#000000; stroke-opacity:1;
stroke-linecap:round; stroke-linejoin:round;"
 transform="translate(0 0) scale(1 1)">
</g>
<g style="fill:#000000; fill-opacity:0.0; 
stroke:#000000; stroke-width:-0.000393701; stroke-opacity:1; 
stroke-linecap:round; stroke-linejoin:round;">
</g>
<g style="fill:#000000; fill-opacity:0.0; 
stroke:#000000; stroke-width:19.685; stroke-opacity:1; 
stroke-linecap:round; stroke-linejoin:round;">
<path d="M78819 16862
L99575 16862
" />
<path d="M78229 39181
L78229 17452
" />
<path d="M99575 39771
L78819 39771
" />
<path d="M100166 17452
L100166 39181
" />
<path d="M78819.8 16862.2 A590.551 590.551 0.0 0 0 78229.2 17452.8" />
<path d="M78229.2 39181.1 A590.551 590.551 0.0 0 0 78819.8 39771.7" />
<path d="M99575.7 39771.7 A590.551 590.551 0.0 0 0 100166 39181.1" />
<path d="M100166 17452.8 A590.551 590.551 0.0 0 0 99575.7 16862.2" />
<g >
</g>
<g style="fill:#000000; fill-opacity:0.0; 
stroke:#000000; stroke-width:0; stroke-opacity:1; 
stroke-linecap:round; stroke-linejoin:round;">
</g>
<g style="fill:#000000; fill-opacity:1.0; 
stroke:#000000; stroke-width:0; stroke-opacity:1; 
stroke-linecap:round; stroke-linejoin:round;">
<path style="fill:#000000; fill-opacity:1.0; 
stroke:#000000; stroke-width:0; stroke-opacity:1; 
stroke-linecap:round; stroke-linejoin:round;fill-rule:evenodd;"
d="M 90977.3,31130.4
90966.9,31132
90956.7,31134.5
90946.8,31138.1
90937.3,31142.6
90928.3,31148
90919.9,31154.2
90912.1,31161.3
90905.1,31169
90898.8,31177.5
90893.4,31186.5
90888.9,31196
90885.4,31205.8
90882.8,31216
90881.3,31226.4
90880.8,31236.9
90880.8,31613.5
90881.3,31624
90882.8,31634.4
90885.4,31644.5
90888.9,31654.4
90893.4,31663.9
90898.8,31672.9
90905.1,31681.4
90912.1,31689.1
90919.9,31696.2
90928.3,31702.4
90937.3,31707.8
90946.8,31712.3
90956.7,31715.9
90966.9,31718.4
90977.3,31720
90987.8,31720.5
91265.9,31720.5
91276.4,31720
91286.8,31718.4
91297,31715.9
91306.9,31712.3
91316.4,31707.8
91325.4,31702.4
91333.8,31696.2
91341.6,31689.1
91348.6,31681.4
91354.9,31672.9
91360.3,31663.9
91364.8,31654.4
91368.3,31644.5
91370.9,31634.4
91372.4,31624
91372.9,31613.5
91372.9,31236.9
91372.4,31226.4
91370.9,31216
91368.3,31205.8
91364.8,31196
91360.3,31186.5
91354.9,31177.5
91348.6,31169
91341.6,31161.3
91333.8,31154.2
91325.4,31148
91316.4,31142.6
91306.9,31138.1
91297,31134.5
91286.8,31132
91276.4,31130.4
91265.9,31129.9
90987.8,31129.9
Z" /> 
<path style="fill:#000000; fill-opacity:1.0; 
stroke:#000000; stroke-width:0; stroke-opacity:1; 
stroke-linecap:round; stroke-linejoin:round;fill-rule:evenodd;"
d="M 90170.2,31130.4
90159.8,31132
90149.6,31134.5
90139.7,31138.1
90130.3,31142.6
90121.2,31148
90112.8,31154.2
90105,31161.3
90098,31169
90091.7,31177.5
90086.3,31186.5
90081.8,31196
90078.3,31205.8
90075.8,31216
90074.2,31226.4
90073.7,31236.9
90073.7,31613.5
90074.2,31624
90075.8,31634.4
90078.3,31644.5
90081.8,31654.4
90086.3,31663.9
90091.7,31672.9
90098,31681.4
90105,31689.1
90112.8,31696.2
90121.2,31702.4
90130.3,31707.8
90139.7,31712.3
90149.6,31715.9
90159.8,31718.4
90170.2,31720
90180.7,31720.5
90458.8,31720.5
90469.3,31720
90479.7,31718.4
90489.9,31715.9
90499.8,31712.3
90509.3,31707.8
90518.3,31702.4
90526.7,31696.2
90534.5,31689.1
90541.5,31681.4
90547.8,31672.9
90553.2,31663.9
90557.7,31654.4
90561.2,31644.5
90563.8,31634.4
90565.3,31624
90565.8,31613.5
90565.8,31236.9
90565.3,31226.4
90563.8,31216
90561.2,31205.8
90557.7,31196
90553.2,31186.5
90547.8,31177.5
90541.5,31169
90534.5,31161.3
90526.7,31154.2
90518.3,31148
90509.3,31142.6
90499.8,31138.1
90489.9,31134.5
90479.7,31132
90469.3,31130.4
90458.8,31129.9
90180.7,31129.9
Z" /> 
</g>
<g >
</g>
<g style="fill:#000000; fill-opacity:1.0; 
stroke:#000000; stroke-width:0; stroke-opacity:1; 
stroke-linecap:round; stroke-linejoin:round;">
<path style="fill:#000000; fill-opacity:1.0; 
stroke:#000000; stroke-width:0; stroke-opacity:1; 
stroke-linecap:round; stroke-linejoin:round;fill-rule:evenodd;"
d="M 89798.2,26947.4
89787.8,26948.9
89777.6,26951.5
89767.7,26955
89758.2,26959.5
89749.2,26964.9
89740.8,26971.1
89733,26978.2
89725.9,26986
89719.7,26994.4
89714.3,27003.4
89709.8,27012.9
89706.3,27022.8
89703.7,27033
89702.2,27043.3
89701.7,27053.8
89701.7,27332
89702.2,27342.5
89703.7,27352.9
89706.3,27363
89709.8,27372.9
89714.3,27382.4
89719.7,27391.4
89725.9,27399.9
89733,27407.6
89740.8,27414.7
89749.2,27420.9
89758.2,27426.3
89767.7,27430.8
89777.6,27434.4
89787.8,27436.9
89798.2,27438.5
89808.6,27439
90185.2,27439
90195.7,27438.5
90206.1,27436.9
90216.3,27434.4
90226.2,27430.8
90235.7,27426.3
90244.7,27420.9
90253.1,27414.7
90260.9,27407.6
90267.9,27399.9
90274.2,27391.4
90279.6,27382.4
90284.1,27372.9
90287.6,27363
90290.1,27352.9
90291.7,27342.5
90292.2,27332
90292.2,27053.8
90291.7,27043.3
90290.1,27033
90287.6,27022.8
90284.1,27012.9
90279.6,27003.4
90274.2,26994.4
90267.9,26986
90260.9,26978.2
90253.1,26971.1
90244.7,26964.9
90235.7,26959.5
90226.2,26955
90216.3,26951.5
90206.1,26948.9
90195.7,26947.4
90185.2,26946.9
89808.6,26946.9
Z" /> 
<path style="fill:#000000; fill-opacity:1.0; 
stroke:#000000; stroke-width:0; stroke-opacity:1; 
stroke-linecap:round; stroke-linejoin:round;fill-rule:evenodd;"
d="M 89798.2,27754.5
89787.8,27756
89777.6,27758.5
89767.7,27762.1
89758.2,27766.6
89749.2,27772
89740.8,27778.2
89733,27785.3
89725.9,27793.1
89719.7,27801.5
89714.3,27810.5
89709.8,27820
89706.3,27829.9
89703.7,27840
89702.2,27850.4
89701.7,27860.9
89701.7,28139.1
89702.2,28149.6
89703.7,28160
89706.3,28170.1
89709.8,28180
89714.3,28189.5
89719.7,28198.5
89725.9,28206.9
89733,28214.7
89740.8,28221.8
89749.2,28228
89758.2,28233.4
89767.7,28237.9
89777.6,28241.5
89787.8,28244
89798.2,28245.5
89808.6,28246.1
90185.2,28246.1
90195.7,28245.5
90206.1,28244
90216.3,28241.5
90226.2,28237.9
90235.7,28233.4
90244.7,28228
90253.1,28221.8
90260.9,28214.7
90267.9,28206.9
90274.2,28198.5
90279.6,28189.5
90284.1,28180
90287.6,28170.1
90290.1,28160
90291.7,28149.6
90292.2,28139.1
90292.2,27860.9
90291.7,27850.4
90290.1,27840
90287.6,27829.9
90284.1,27820
90279.6,27810.5
90274.2,27801.5
90267.9,27793.1
90260.9,27785.3
90253.1,27778.2
90244.7,27772
90235.7,27766.6
90226.2,27762.1
90216.3,27758.5
90206.1,27756
90195.7,27754.5
90185.2,27753.9
89808.6,27753.9
Z" /> 
</g>
<g >
</g>
<g style="fill:#000000; fill-opacity:1.0; 
stroke:#000000; stroke-width:0; stroke-opacity:1; 
stroke-linecap:round; stroke-linejoin:round;">
<path style="fill:#000000; fill-opacity:1.0; 
stroke:#000000; stroke-width:0; stroke-opacity:1; 
stroke-linecap:round; stroke-linejoin:round;fill-rule:evenodd;"
d="M 88943.8,27754.5
88933.4,27756
88923.3,27758.5
88913.4,27762.1
88903.9,27766.6
88894.9,27772
88886.4,27778.2
88878.7,27785.3
88871.6,27793.1
88865.4,27801.5
88860,27810.5
88855.5,27820
88851.9,27829.9
88849.4,27840
88847.8,27850.4
88847.3,27860.9
88847.3,28139.1
88847.8,28149.6
88849.4,28160
88851.9,28170.1
88855.5,28180
88860,28189.5
88865.4,28198.5
88871.6,28206.9
88878.7,28214.7
88886.4,28221.8
88894.9,28228
88903.9,28233.4
88913.4,28237.9
88923.3,28241.5
88933.4,28244
88943.8,28245.5
88954.3,28246.1
89330.9,28246.1
89341.4,28245.5
89351.8,28244
89361.9,28241.5
89371.8,28237.9
89381.3,28233.4
89390.3,28228
89398.8,28221.8
89406.5,28214.7
89413.6,28206.9
89419.8,28198.5
89425.2,28189.5
89429.7,28180
89433.3,28170.1
89435.8,28160
89437.4,28149.6
89437.9,28139.1
89437.9,27860.9
89437.4,27850.4
89435.8,27840
89433.3,27829.9
89429.7,27820
89425.2,27810.5
89419.8,27801.5
89413.6,27793.1
89406.5,27785.3
89398.8,27778.2
89390.3,27772
89381.3,27766.6
89371.8,27762.1
89361.9,27758.5
89351.8,27756
89341.4,27754.5
89330.9,27753.9
88954.3,27753.9
Z" /> 
<path style="fill:#000000; fill-opacity:1.0; 
stroke:#000000; stroke-width:0; stroke-opacity:1; 
stroke-linecap:round; stroke-linejoin:round;fill-rule:evenodd;"
d="M 88943.8,26947.4
88933.4,26948.9
88923.3,26951.5
88913.4,26955
88903.9,26959.5
88894.9,26964.9
88886.4,26971.1
88878.7,26978.2
88871.6,26986
88865.4,26994.4
88860,27003.4
88855.5,27012.9
88851.9,27022.8
88849.4,27033
88847.8,27043.3
88847.3,27053.8
88847.3,27332
88847.8,27342.5
88849.4,27352.9
88851.9,27363
88855.5,27372.9
88860,27382.4
88865.4,27391.4
88871.6,27399.9
88878.7,27407.6
88886.4,27414.7
88894.9,27420.9
88903.9,27426.3
88913.4,27430.8
88923.3,27434.4
88933.4,27436.9
88943.8,27438.5
88954.3,27439
89330.9,27439
89341.4,27438.5
89351.8,27436.9
89361.9,27434.4
89371.8,27430.8
89381.3,27426.3
89390.3,27420.9
89398.8,27414.7
89406.5,27407.6
89413.6,27399.9
89419.8,27391.4
89425.2,27382.4
89429.7,27372.9
89433.3,27363
89435.8,27352.9
89437.4,27342.5
89437.9,27332
89437.9,27053.8
89437.4,27043.3
89435.8,27033
89433.3,27022.8
89429.7,27012.9
89425.2,27003.4
89419.8,26994.4
89413.6,26986
89406.5,26978.2
89398.8,26971.1
89390.3,26964.9
89381.3,26959.5
89371.8,26955
89361.9,26951.5
89351.8,26948.9
89341.4,26947.4
89330.9,26946.9
88954.3,26946.9
Z" /> 
</g>
<g >
</g>
<g style="fill:#000000; fill-opacity:1.0; 
stroke:#000000; stroke-width:0; stroke-opacity:1; 
stroke-linecap:round; stroke-linejoin:round;">
<circle cx="98595.4" cy="37574.8" r="319.685" /> 
</g>
<g style="fill:#000000; fill-opacity:1.0; 
stroke:#000000; stroke-width:39.3701; stroke-opacity:1; 
stroke-linecap:round; stroke-linejoin:round;">
</g>
<g style="fill:#000000; fill-opacity:1.0; 
stroke:#000000; stroke-width:0; stroke-opacity:1; 
stroke-linecap:round; stroke-linejoin:round;">
<circle cx="98595.4" cy="36574.8" r="319.685" /> 
</g>
<g style="fill:#000000; fill-opacity:1.0; 
stroke:#000000; stroke-width:39.3701; stroke-opacity:1; 
stroke-linecap:round; stroke-linejoin:round;">
</g>
<g style="fill:#000000; fill-opacity:1.0; 
stroke:#000000; stroke-width:0; stroke-opacity:1; 
stroke-linecap:round; stroke-linejoin:round;">
<circle cx="98595.4" cy="34574.8" r="319.685" /> 
</g>
<g style="fill:#000000; fill-opacity:1.0; 
stroke:#000000; stroke-width:39.3701; stroke-opacity:1; 
stroke-linecap:round; stroke-linejoin:round;">
</g>
<g style="fill:#000000; fill-opacity:1.0; 
stroke:#000000; stroke-width:0; stroke-opacity:1; 
stroke-linecap:round; stroke-linejoin:round;">
<circle cx="98595.4" cy="33574.8" r="319.685" /> 
</g>
<g style="fill:#000000; fill-opacity:1.0; 
stroke:#000000; stroke-width:39.3701; stroke-opacity:1; 
stroke-linecap:round; stroke-linejoin:round;">
</g>
<g style="fill:#000000; fill-opacity:1.0; 
stroke:#000000; stroke-width:0; stroke-opacity:1; 
stroke-linecap:round; stroke-linejoin:round;">
<circle cx="98595.4" cy="35574.8" r="319.685" /> 
</g>
<g style="fill:#000000; fill-opacity:1.0; 
stroke:#000000; stroke-width:39.3701; stroke-opacity:1; 
stroke-linecap:round; stroke-linejoin:round;">
</g>
<g style="fill:#000000; fill-opacity:1.0; 
stroke:#000000; stroke-width:0; stroke-opacity:1; 
stroke-linecap:round; stroke-linejoin:round;">
<circle cx="98595.4" cy="32574.8" r="319.685" /> 
</g>
<g style="fill:#000000; fill-opacity:1.0; 
stroke:#000000; stroke-width:39.3701; stroke-opacity:1; 
stroke-linecap:round; stroke-linejoin:round;">
</g>
<g style="fill:#000000; fill-opacity:1.0; 
stroke:#000000; stroke-width:0; stroke-opacity:1; 
stroke-linecap:round; stroke-linejoin:round;">
<circle cx="98595.4" cy="31574.8" r="319.685" /> 
</g>
<g style="fill:#000000; fill-opacity:1.0; 
stroke:#000000; stroke-width:39.3701; stroke-opacity:1; 
stroke-linecap:round; stroke-linejoin:round;">
</g>
<g style="fill:#000000; fill-opacity:1.0; 
stroke:#000000; stroke-width:0; stroke-opacity:1; 
stroke-linecap:round; stroke-linejoin:round;">
<circle cx="98595.4" cy="29574.8" r="319.685" /> 
</g>
<g style="fill:#000000; fill-opacity:1.0; 
stroke:#000000; stroke-width:39.3701; stroke-opacity:1; 
stroke-linecap:round; stroke-linejoin:round;">
</g>
<g style="fill:#000000; fill-opacity:1.0; 
stroke:#000000; stroke-width:0; stroke-opacity:1; 
stroke-linecap:round; stroke-linejoin:round;">
<circle cx="98595.4" cy="30574.8" r="319.685" /> 
</g>
<g style="fill:#000000; fill-opacity:1.0; 
stroke:#000000; stroke-width:39.3701; stroke-opacity:1; 
stroke-linecap:round; stroke-linejoin:round;">
</g>
<g style="fill:#000000; fill-opacity:1.0; 
stroke:#000000; stroke-width:0; stroke-opacity:1; 
stroke-linecap:round; stroke-linejoin:round;">
<circle cx="98595.4" cy="28574.8" r="319.685" /> 
</g>
<g style="fill:#000000; fill-opacity:1.0; 
stroke:#000000; stroke-width:39.3701; stroke-opacity:1; 
stroke-linecap:round; stroke-linejoin:round;">
</g>
<g style="fill:#000000; fill-opacity:1.0; 
stroke:#000000; stroke-width:0; stroke-opacity:1; 
stroke-linecap:round; stroke-linejoin:round;">
<circle cx="98595.4" cy="27574.8" r="319.685" /> 
</g>
<g style="fill:#000000; fill-opacity:1.0; 
stroke:#000000; stroke-width:39.3701; stroke-opacity:1; 
stroke-linecap:round; stroke-linejoin:round;">
</g>
<g style="fill:#000000; fill-opacity:1.0; 
stroke:#000000; stroke-width:0; stroke-opacity:1; 
stroke-linecap:round; stroke-linejoin:round;">
<circle cx="98595.4" cy="26574.8" r="319.685" /> 
</g>
<g style="fill:#000000; fill-opacity:1.0; 
stroke:#000000; stroke-width:39.3701; stroke-opacity:1; 
stroke-linecap:round; stroke-linejoin:round;">
</g>
<g style="fill:#000000; fill-opacity:1.0; 
stroke:#000000; stroke-width:0; stroke-opacity:1; 
stroke-linecap:round; stroke-linejoin:round;">
<circle cx="98595.4" cy="24574.8" r="319.685" /> 
</g>
<g style="fill:#000000; fill-opacity:1.0; 
stroke:#000000; stroke-width:39.3701; stroke-opacity:1; 
stroke-linecap:round; stroke-linejoin:round;">
</g>
<g style="fill:#000000; fill-opacity:1.0; 
stroke:#000000; stroke-width:0; stroke-opacity:1; 
stroke-linecap:round; stroke-linejoin:round;">
<circle cx="98595.4" cy="23574.8" r="319.685" /> 
</g>
<g style="fill:#000000; fill-opacity:1.0; 
stroke:#000000; stroke-width:39.3701; stroke-opacity:1; 
stroke-linecap:round; stroke-linejoin:round;">
</g>
<g style="fill:#000000; fill-opacity:1.0; 
stroke:#000000; stroke-width:0; stroke-opacity:1; 
stroke-linecap:round; stroke-linejoin:round;">
<circle cx="98595.4" cy="25574.8" r="319.685" /> 
</g>
<g style="fill:#000000; fill-opacity:1.0; 
stroke:#000000; stroke-width:39.3701; stroke-opacity:1; 
stroke-linecap:round; stroke-linejoin:round;">
</g>
<g style="fill:#000000; fill-opacity:1.0; 
stroke:#000000; stroke-width:0; stroke-opacity:1; 
stroke-linecap:round; stroke-linejoin:round;">
<circle cx="98595.4" cy="22574.8" r="319.685" /> 
</g>
<g style="fill:#000000; fill-opacity:1.0; 
stroke:#000000; stroke-width:39.3701; stroke-opacity:1; 
stroke-linecap:round; stroke-linejoin:round;">
</g>
<g style="fill:#000000; fill-opacity:1.0; 
stroke:#000000; stroke-width:0; stroke-opacity:1; 
stroke-linecap:round; stroke-linejoin:round;">
<circle cx="98595.4" cy="21574.8" r="319.685" /> 
</g>
<g style="fill:#000000; fill-opacity:1.0; 
stroke:#000000; stroke-width:39.3701; stroke-opacity:1; 
stroke-linecap:round; stroke-linejoin:round;">
</g>
<g style="fill:#000000; fill-opacity:1.0; 
stroke:#000000; stroke-width:0; stroke-opacity:1; 
stroke-linecap:round; stroke-linejoin:round;">
<circle cx="98595.4" cy="20574.8" r="319.685" /> 
</g>
<g style="fill:#000000; fill-opacity:1.0; 
stroke:#000000; stroke-width:39.3701; stroke-opacity:1; 
stroke-linecap:round; stroke-linejoin:round;">
</g>
<g style="fill:#000000; fill-opacity:1.0; 
stroke:#000000; stroke-width:0; stroke-opacity:1; 
stroke-linecap:round; stroke-linejoin:round;">
<circle cx="98595.4" cy="19574.8" r="319.685" /> 
</g>
<g style="fill:#000000; fill-opacity:1.0; 
stroke:#000000; stroke-width:39.3701; stroke-opacity:1; 
stroke-linecap:round; stroke-linejoin:round;">
</g>
<g style="fill:#000000; fill-opacity:1.0; 
stroke:#000000; stroke-width:0; stroke-opacity:1; 
stroke-linecap:round; stroke-linejoin:round;">
<circle cx="98595.4" cy="18574.8" r="319.685" /> 
</g>
<g style="fill:#000000; fill-opacity:1.0; 
stroke:#000000; stroke-width:39.3701; stroke-opacity:1; 
stroke-linecap:round; stroke-linejoin:round;">
</g>
<g style="fill:#000000; fill-opacity:1.0; 
stroke:#000000; stroke-width:0; stroke-opacity:1; 
stroke-linecap:round; stroke-linejoin:round;">
<circle cx="92595.4" cy="25574.8" r="319.685" /> 
</g>
<g style="fill:#000000; fill-opacity:1.0; 
stroke:#000000; stroke-width:39.3701; stroke-opacity:1; 
stroke-linecap:round; stroke-linejoin:round;">
</g>
<g style="fill:#000000; fill-opacity:1.0; 
stroke:#000000; stroke-width:0; stroke-opacity:1; 
stroke-linecap:round; stroke-linejoin:round;">
<circle cx="92595.4" cy="37574.8" r="319.685" /> 
</g>
<g style="fill:#000000; fill-opacity:1.0; 
stroke:#000000; stroke-width:39.3701; stroke-opacity:1; 
stroke-linecap:round; stroke-linejoin:round;">
</g>
<g style="fill:#000000; fill-opacity:1.0; 
stroke:#000000; stroke-width:0; stroke-opacity:1; 
stroke-linecap:round; stroke-linejoin:round;">
<circle cx="92595.4" cy="26574.8" r="319.685" /> 
</g>
<g style="fill:#000000; fill-opacity:1.0; 
stroke:#000000; stroke-width:39.3701; stroke-opacity:1; 
stroke-linecap:round; stroke-linejoin:round;">
</g>
<g style="fill:#000000; fill-opacity:1.0; 
stroke:#000000; stroke-width:0; stroke-opacity:1; 
stroke-linecap:round; stroke-linejoin:round;">
<circle cx="92595.4" cy="36574.8" r="319.685" /> 
</g>
<g style="fill:#000000; fill-opacity:1.0; 
stroke:#000000; stroke-width:39.3701; stroke-opacity:1; 
stroke-linecap:round; stroke-linejoin:round;">
</g>
<g style="fill:#000000; fill-opacity:1.0; 
stroke:#000000; stroke-width:0; stroke-opacity:1; 
stroke-linecap:round; stroke-linejoin:round;">
<circle cx="92595.4" cy="31574.8" r="319.685" /> 
</g>
<g style="fill:#000000; fill-opacity:1.0; 
stroke:#000000; stroke-width:39.3701; stroke-opacity:1; 
stroke-linecap:round; stroke-linejoin:round;">
</g>
<g style="fill:#000000; fill-opacity:1.0; 
stroke:#000000; stroke-width:0; stroke-opacity:1; 
stroke-linecap:round; stroke-linejoin:round;">
<circle cx="92595.4" cy="33574.8" r="319.685" /> 
</g>
<g style="fill:#000000; fill-opacity:1.0; 
stroke:#000000; stroke-width:39.3701; stroke-opacity:1; 
stroke-linecap:round; stroke-linejoin:round;">
</g>
<g style="fill:#000000; fill-opacity:1.0; 
stroke:#000000; stroke-width:0; stroke-opacity:1; 
stroke-linecap:round; stroke-linejoin:round;">
<circle cx="92595.4" cy="35574.8" r="319.685" /> 
</g>
<g style="fill:#000000; fill-opacity:1.0; 
stroke:#000000; stroke-width:39.3701; stroke-opacity:1; 
stroke-linecap:round; stroke-linejoin:round;">
</g>
<g style="fill:#000000; fill-opacity:1.0; 
stroke:#000000; stroke-width:0; stroke-opacity:1; 
stroke-linecap:round; stroke-linejoin:round;">
<circle cx="92595.4" cy="24574.8" r="319.685" /> 
</g>
<g style="fill:#000000; fill-opacity:1.0; 
stroke:#000000; stroke-width:39.3701; stroke-opacity:1; 
stroke-linecap:round; stroke-linejoin:round;">
</g>
<g style="fill:#000000; fill-opacity:1.0; 
stroke:#000000; stroke-width:0; stroke-opacity:1; 
stroke-linecap:round; stroke-linejoin:round;">
<circle cx="92595.4" cy="32574.8" r="319.685" /> 
</g>
<g style="fill:#000000; fill-opacity:1.0; 
stroke:#000000; stroke-width:39.3701; stroke-opacity:1; 
stroke-linecap:round; stroke-linejoin:round;">
</g>
<g style="fill:#000000; fill-opacity:1.0; 
stroke:#000000; stroke-width:0; stroke-opacity:1; 
stroke-linecap:round; stroke-linejoin:round;">
<circle cx="92595.4" cy="27574.8" r="319.685" /> 
</g>
<g style="fill:#000000; fill-opacity:1.0; 
stroke:#000000; stroke-width:39.3701; stroke-opacity:1; 
stroke-linecap:round; stroke-linejoin:round;">
</g>
<g style="fill:#000000; fill-opacity:1.0; 
stroke:#000000; stroke-width:0; stroke-opacity:1; 
stroke-linecap:round; stroke-linejoin:round;">
<circle cx="92595.4" cy="29574.8" r="319.685" /> 
</g>
<g style="fill:#000000; fill-opacity:1.0; 
stroke:#000000; stroke-width:39.3701; stroke-opacity:1; 
stroke-linecap:round; stroke-linejoin:round;">
</g>
<g style="fill:#000000; fill-opacity:1.0; 
stroke:#000000; stroke-width:0; stroke-opacity:1; 
stroke-linecap:round; stroke-linejoin:round;">
<circle cx="92595.4" cy="20574.8" r="319.685" /> 
</g>
<g style="fill:#000000; fill-opacity:1.0; 
stroke:#000000; stroke-width:39.3701; stroke-opacity:1; 
stroke-linecap:round; stroke-linejoin:round;">
</g>
<g style="fill:#000000; fill-opacity:1.0; 
stroke:#000000; stroke-width:0; stroke-opacity:1; 
stroke-linecap:round; stroke-linejoin:round;">
<circle cx="92595.4" cy="22574.8" r="319.685" /> 
</g>
<g style="fill:#000000; fill-opacity:1.0; 
stroke:#000000; stroke-width:39.3701; stroke-opacity:1; 
stroke-linecap:round; stroke-linejoin:round;">
</g>
<g style="fill:#000000; fill-opacity:1.0; 
stroke:#000000; stroke-width:0; stroke-opacity:1; 
stroke-linecap:round; stroke-linejoin:round;">
<circle cx="92595.4" cy="21574.8" r="319.685" /> 
</g>
<g style="fill:#000000; fill-opacity:1.0; 
stroke:#000000; stroke-width:39.3701; stroke-opacity:1; 
stroke-linecap:round; stroke-linejoin:round;">
</g>
<g style="fill:#000000; fill-opacity:1.0; 
stroke:#000000; stroke-width:0; stroke-opacity:1; 
stroke-linecap:round; stroke-linejoin:round;">
<circle cx="92595.4" cy="28574.8" r="319.685" /> 
</g>
<g style="fill:#000000; fill-opacity:1.0; 
stroke:#000000; stroke-width:39.3701; stroke-opacity:1; 
stroke-linecap:round; stroke-linejoin:round;">
</g>
<g style="fill:#000000; fill-opacity:1.0; 
stroke:#000000; stroke-width:0; stroke-opacity:1; 
stroke-linecap:round; stroke-linejoin:round;">
<circle cx="92595.4" cy="19574.8" r="319.685" /> 
</g>
<g style="fill:#000000; fill-opacity:1.0; 
stroke:#000000; stroke-width:39.3701; stroke-opacity:1; 
stroke-linecap:round; stroke-linejoin:round;">
</g>
<g style="fill:#000000; fill-opacity:1.0; 
stroke:#000000; stroke-width:0; stroke-opacity:1; 
stroke-linecap:round; stroke-linejoin:round;">
<circle cx="92595.4" cy="34574.8" r="319.685" /> 
</g>
<g style="fill:#000000; fill-opacity:1.0; 
stroke:#000000; stroke-width:39.3701; stroke-opacity:1; 
stroke-linecap:round; stroke-linejoin:round;">
</g>
<g style="fill:#000000; fill-opacity:1.0; 
stroke:#000000; stroke-width:0; stroke-opacity:1; 
stroke-linecap:round; stroke-linejoin:round;">
<circle cx="92595.4" cy="30574.8" r="319.685" /> 
</g>
<g style="fill:#000000; fill-opacity:1.0; 
stroke:#000000; stroke-width:39.3701; stroke-opacity:1; 
stroke-linecap:round; stroke-linejoin:round;">
</g>
<g style="fill:#000000; fill-opacity:1.0; 
stroke:#000000; stroke-width:0; stroke-opacity:1; 
stroke-linecap:round; stroke-linejoin:round;">
<circle cx="92595.4" cy="23574.8" r="319.685" /> 
</g>
<g style="fill:#000000; fill-opacity:1.0; 
stroke:#000000; stroke-width:39.3701; stroke-opacity:1; 
stroke-linecap:round; stroke-linejoin:round;">
</g>
<g style="fill:#000000; fill-opacity:1.0; 
stroke:#000000; stroke-width:0; stroke-opacity:1; 
stroke-linecap:round; stroke-linejoin:round;">
<circle cx="92595.4" cy="18574.8" r="319.685" /> 
</g>
<g style="fill:#000000; fill-opacity:1.0; 
stroke:#000000; stroke-width:39.3701; stroke-opacity:1; 
stroke-linecap:round; stroke-linejoin:round;">
</g>
<g >
</g>
<g style="fill:#000000; fill-opacity:1.0; 
stroke:#000000; stroke-width:39.3701; stroke-opacity:1; 
stroke-linecap:round; stroke-linejoin:round;">
</g>
<g style="fill:#000000; fill-opacity:1.0; 
stroke:#000000; stroke-width:0; stroke-opacity:1; 
stroke-linecap:round; stroke-linejoin:round;">
<path style="fill:#000000; fill-opacity:1.0; 
stroke:#000000; stroke-width:0; stroke-opacity:1; 
stroke-linecap:round; stroke-linejoin:round;fill-rule:evenodd;"
d="M 82644.6,29082.8
82642.7,29083.1
82640.8,29083.5
82639,29084.2
82637.3,29085
82635.6,29086
82634,29087.1
82632.6,29088.4
82631.3,29089.9
82630.2,29091.4
82629.2,29093.1
82628.3,29094.8
82627.7,29096.6
82627.2,29098.5
82626.9,29100.4
82626.9,29102.4
82626.9,29771.7
82626.9,29773.6
82627.2,29775.5
82627.7,29777.4
82628.3,29779.2
82629.2,29780.9
82630.2,29782.6
82631.3,29784.1
82632.6,29785.6
82634,29786.9
82635.6,29788
82637.3,29789
82639,29789.8
82640.8,29790.5
82642.7,29791
82644.6,29791.2
82646.5,29791.3
83315.8,29791.3
83317.8,29791.2
83319.7,29791
83321.5,29790.5
83323.4,29789.8
83325.1,29789
83326.8,29788
83328.3,29786.9
83329.7,29785.6
83331,29784.1
83332.2,29782.6
83333.2,29780.9
83334,29779.2
83334.7,29777.4
83335.1,29775.5
83335.4,29773.6
83335.5,29771.7
83335.5,29102.4
83335.4,29100.4
83335.1,29098.5
83334.7,29096.6
83334,29094.8
83333.2,29093.1
83332.2,29091.4
83331,29089.9
83329.7,29088.4
83328.3,29087.1
83326.8,29086
83325.1,29085
83323.4,29084.2
83321.5,29083.5
83319.7,29083.1
83317.8,29082.8
83315.8,29082.7
82646.5,29082.7
Z" /> 
<circle cx="83981.2" cy="29437" r="354.331" /> 
<circle cx="84981.2" cy="29437" r="354.331" /> 
<circle cx="85981.2" cy="29437" r="354.331" /> 
<circle cx="86981.2" cy="29437" r="354.331" /> 
<circle cx="87981.2" cy="29437" r="354.331" /> 
<circle cx="88981.2" cy="29437" r="354.331" /> 
<circle cx="89981.2" cy="29437" r="354.331" /> 
</g>
<g >
</g>
<g style="fill:#000000; fill-opacity:1.0; 
stroke:#000000; stroke-width:0; stroke-opacity:1; 
stroke-linecap:round; stroke-linejoin:round;">
<circle cx="89981.2" cy="34515.7" r="354.331" /> 
<circle cx="88981.2" cy="34515.7" r="354.331" /> 
<circle cx="87981.2" cy="34515.7" r="354.331" /> 
<circle cx="86981.2" cy="34515.7" r="354.331" /> 
<circle cx="85981.2" cy="34515.7" r="354.331" /> 
<circle cx="84981.2" cy="34515.7" r="354.331" /> 
<circle cx="83981.2" cy="34515.7" r="354.331" /> 
<path style="fill:#000000; fill-opacity:1.0; 
stroke:#000000; stroke-width:0; stroke-opacity:1; 
stroke-linecap:round; stroke-linejoin:round;fill-rule:evenodd;"
d="M 82644.6,34161.5
82642.7,34161.8
82640.8,34162.3
82639,34162.9
82637.3,34163.7
82635.6,34164.7
82634,34165.9
82632.6,34167.2
82631.3,34168.6
82630.2,34170.2
82629.2,34171.8
82628.3,34173.6
82627.7,34175.4
82627.2,34177.3
82626.9,34179.2
82626.9,34181.1
82626.9,34850.4
82626.9,34852.3
82627.2,34854.2
82627.7,34856.1
82628.3,34857.9
82629.2,34859.7
82630.2,34861.3
82631.3,34862.9
82632.6,34864.3
82634,34865.6
82635.6,34866.8
82637.3,34867.8
82639,34868.6
82640.8,34869.2
82642.7,34869.7
82644.6,34870
82646.5,34870.1
83315.8,34870.1
83317.8,34870
83319.7,34869.7
83321.5,34869.2
83323.4,34868.6
83325.1,34867.8
83326.8,34866.8
83328.3,34865.6
83329.7,34864.3
83331,34862.9
83332.2,34861.3
83333.2,34859.7
83334,34857.9
83334.7,34856.1
83335.1,34854.2
83335.4,34852.3
83335.5,34850.4
83335.5,34181.1
83335.4,34179.2
83335.1,34177.3
83334.7,34175.4
83334,34173.6
83333.2,34171.8
83332.2,34170.2
83331,34168.6
83329.7,34167.2
83328.3,34165.9
83326.8,34164.7
83325.1,34163.7
83323.4,34162.9
83321.5,34162.3
83319.7,34161.8
83317.8,34161.5
83315.8,34161.4
82646.5,34161.4
Z" /> 
</g>
<g >
</g>
<g style="fill:#000000; fill-opacity:1.0; 
stroke:#000000; stroke-width:0; stroke-opacity:1; 
stroke-linecap:round; stroke-linejoin:round;">
<path style="fill:#000000; fill-opacity:1.0; 
stroke:#000000; stroke-width:0; stroke-opacity:1; 
stroke-linecap:round; stroke-linejoin:round;fill-rule:evenodd;"
d="M 80762.7,32236.3
80760.8,32236.6
80758.9,32237.1
80757.1,32237.7
80755.4,32238.5
80753.7,32239.5
80752.2,32240.7
80750.7,32242
80749.4,32243.4
80748.3,32245
80747.3,32246.6
80746.5,32248.4
80745.8,32250.2
80745.3,32252.1
80745.1,32254
80745,32255.9
80745,32885.8
80745.1,32887.8
80745.3,32889.7
80745.8,32891.5
80746.5,32893.4
80747.3,32895.1
80748.3,32896.8
80749.4,32898.3
80750.7,32899.7
80752.2,32901
80753.7,32902.2
80755.4,32903.2
80757.1,32904
80758.9,32904.7
80760.8,32905.1
80762.7,32905.4
80764.6,32905.5
81394.6,32905.5
81396.5,32905.4
81398.4,32905.1
81400.3,32904.7
81402.1,32904
81403.8,32903.2
81405.5,32902.2
81407.1,32901
81408.5,32899.7
81409.8,32898.3
81410.9,32896.8
81411.9,32895.1
81412.8,32893.4
81413.4,32891.5
81413.9,32889.7
81414.2,32887.8
81414.3,32885.8
81414.3,32255.9
81414.2,32254
81413.9,32252.1
81413.4,32250.2
81412.8,32248.4
81411.9,32246.6
81410.9,32245
81409.8,32243.4
81408.5,32242
81407.1,32240.7
81405.5,32239.5
81403.8,32238.5
81402.1,32237.7
81400.3,32237.1
81398.4,32236.6
81396.5,32236.3
81394.6,32236.2
80764.6,32236.2
Z" /> 
<circle cx="79111.1" cy="32570.9" r="334.646" /> 
</g>
<g style="fill:#000000; fill-opacity:1.0; 
stroke:#000000; stroke-width:39.3701; stroke-opacity:1; 
stroke-linecap:round; stroke-linejoin:round;">
</g>
<g >
</g>
<g style="fill:#000000; fill-opacity:1.0; 
stroke:#000000; stroke-width:39.3701; stroke-opacity:1; 
stroke-linecap:round; stroke-linejoin:round;">
</g>
<g style="fill:#000000; fill-opacity:1.0; 
stroke:#000000; stroke-width:0; stroke-opacity:1; 
stroke-linecap:round; stroke-linejoin:round;">
<path style="fill:#000000; fill-opacity:1.0; 
stroke:#000000; stroke-width:0; stroke-opacity:1; 
stroke-linecap:round; stroke-linejoin:round;fill-rule:evenodd;"
d="M 87744.5,36699.3
87734.4,36700.8
87724.4,36703.3
87714.8,36706.8
87705.6,36711.1
87696.8,36716.4
87688.6,36722.5
87681,36729.3
87674.1,36736.9
87668,36745.1
87662.8,36753.9
87658.4,36763.2
87655,36772.8
87652.5,36782.7
87651,36792.8
87650.5,36803
87650.5,37401.7
87651,37411.9
87652.5,37422
87655,37431.9
87658.4,37441.6
87662.8,37450.8
87668,37459.6
87674.1,37467.8
87681,37475.4
87688.6,37482.2
87696.8,37488.3
87705.6,37493.6
87714.8,37498
87724.4,37501.4
87734.4,37503.9
87744.5,37505.4
87754.7,37505.9
88254.9,37505.9
88265.1,37505.4
88275.3,37503.9
88285.2,37501.4
88294.8,37498
88304,37493.6
88312.8,37488.3
88321,37482.2
88328.6,37475.4
88335.5,37467.8
88341.6,37459.6
88346.8,37450.8
88351.2,37441.6
88354.6,37431.9
88357.1,37422
88358.6,37411.9
88359.1,37401.7
88359.1,36803
88358.6,36792.8
88357.1,36782.7
88354.6,36772.8
88351.2,36763.2
88346.8,36753.9
88341.6,36745.1
88335.5,36736.9
88328.6,36729.3
88321,36722.5
88312.8,36716.4
88304,36711.1
88294.8,36706.8
88285.2,36703.3
88275.3,36700.8
88265.1,36699.3
88254.9,36698.8
87754.7,36698.8
Z" /> 
</g>
<g style="fill:#000000; fill-opacity:1.0; 
stroke:#000000; stroke-width:708.661; stroke-opacity:1; 
stroke-linecap:round; stroke-linejoin:round;">
</g>
<g style="fill:#000000; fill-opacity:0.0; 
stroke:#000000; stroke-width:708.661; stroke-opacity:1; 
stroke-linecap:round; stroke-linejoin:round;">
<path d="M87020 37053
L87020 37151
" />
<path d="M86036 37053
L86036 37151
" />
<path d="M85052 37053
L85052 37151
" />
</g>
<g >
</g>
<g style="fill:#000000; fill-opacity:0.0; 
stroke:#000000; stroke-width:708.661; stroke-opacity:1; 
stroke-linecap:round; stroke-linejoin:round;">
</g>
<g style="fill:#000000; fill-opacity:0.0; 
stroke:#000000; stroke-width:0; stroke-opacity:1; 
stroke-linecap:round; stroke-linejoin:round;">
</g>
<g style="fill:#000000; fill-opacity:1.0; 
stroke:#000000; stroke-width:0; stroke-opacity:1; 
stroke-linecap:round; stroke-linejoin:round;">
<path style="fill:#000000; fill-opacity:1.0; 
stroke:#000000; stroke-width:0; stroke-opacity:1; 
stroke-linecap:round; stroke-linejoin:round;fill-rule:evenodd;"
d="M 82810,31329.3
82799.6,31330.8
82789.4,31333.3
82779.5,31336.9
82770,31341.4
82761,31346.8
82752.6,31353
82744.8,31360.1
82737.7,31367.9
82731.5,31376.3
82726.1,31385.3
82721.6,31394.8
82718.1,31404.7
82715.5,31414.9
82714,31425.2
82713.5,31435.7
82713.5,31713.9
82714,31724.4
82715.5,31734.8
82718.1,31744.9
82721.6,31754.8
82726.1,31764.3
82731.5,31773.3
82737.7,31781.8
82744.8,31789.5
82752.6,31796.6
82761,31802.8
82770,31808.2
82779.5,31812.7
82789.4,31816.3
82799.6,31818.8
82810,31820.4
82820.4,31820.9
83197,31820.9
83207.5,31820.4
83217.9,31818.8
83228.1,31816.3
83238,31812.7
83247.5,31808.2
83256.5,31802.8
83264.9,31796.6
83272.7,31789.5
83279.7,31781.8
83286,31773.3
83291.4,31764.3
83295.9,31754.8
83299.4,31744.9
83302,31734.8
83303.5,31724.4
83304,31713.9
83304,31435.7
83303.5,31425.2
83302,31414.9
83299.4,31404.7
83295.9,31394.8
83291.4,31385.3
83286,31376.3
83279.7,31367.9
83272.7,31360.1
83264.9,31353
83256.5,31346.8
83247.5,31341.4
83238,31336.9
83228.1,31333.3
83217.9,31330.8
83207.5,31329.3
83197,31328.7
82820.4,31328.7
Z" /> 
<path style="fill:#000000; fill-opacity:1.0; 
stroke:#000000; stroke-width:0; stroke-opacity:1; 
stroke-linecap:round; stroke-linejoin:round;fill-rule:evenodd;"
d="M 82810,30522.2
82799.6,30523.7
82789.4,30526.3
82779.5,30529.8
82770,30534.3
82761,30539.7
82752.6,30545.9
82744.8,30553
82737.7,30560.8
82731.5,30569.2
82726.1,30578.2
82721.6,30587.7
82718.1,30597.6
82715.5,30607.8
82714,30618.2
82713.5,30628.6
82713.5,30906.8
82714,30917.3
82715.5,30927.7
82718.1,30937.9
82721.6,30947.7
82726.1,30957.2
82731.5,30966.2
82737.7,30974.7
82744.8,30982.4
82752.6,30989.5
82761,30995.7
82770,31001.1
82779.5,31005.6
82789.4,31009.2
82799.6,31011.7
82810,31013.3
82820.4,31013.8
83197,31013.8
83207.5,31013.3
83217.9,31011.7
83228.1,31009.2
83238,31005.6
83247.5,31001.1
83256.5,30995.7
83264.9,30989.5
83272.7,30982.4
83279.7,30974.7
83286,30966.2
83291.4,30957.2
83295.9,30947.7
83299.4,30937.9
83302,30927.7
83303.5,30917.3
83304,30906.8
83304,30628.6
83303.5,30618.2
83302,30607.8
83299.4,30597.6
83295.9,30587.7
83291.4,30578.2
83286,30569.2
83279.7,30560.8
83272.7,30553
83264.9,30545.9
83256.5,30539.7
83247.5,30534.3
83238,30529.8
83228.1,30526.3
83217.9,30523.7
83207.5,30522.2
83197,30521.7
82820.4,30521.7
Z" /> 
</g>
<g >
</g>
<g style="fill:#000000; fill-opacity:1.0; 
stroke:#000000; stroke-width:0; stroke-opacity:1; 
stroke-linecap:round; stroke-linejoin:round;">
<path style="fill:#000000; fill-opacity:1.0; 
stroke:#000000; stroke-width:0; stroke-opacity:1; 
stroke-linecap:round; stroke-linejoin:round;fill-rule:evenodd;"
d="M 95471.4,37208.8
95469.5,37209
95467.6,37209.5
95465.8,37210.2
95464,37211
95462.4,37212
95460.8,37213.1
95459.4,37214.4
95458.1,37215.9
95456.9,37217.4
95455.9,37219.1
95455.1,37220.8
95454.5,37222.6
95454,37224.5
95453.7,37226.4
95453.6,37228.3
95453.6,37897.6
95453.7,37899.6
95454,37901.5
95454.5,37903.4
95455.1,37905.2
95455.9,37906.9
95456.9,37908.6
95458.1,37910.1
95459.4,37911.6
95460.8,37912.9
95462.4,37914
95464,37915
95465.8,37915.8
95467.6,37916.5
95469.5,37916.9
95471.4,37917.2
95473.3,37917.3
96142.6,37917.3
96144.5,37917.2
96146.4,37916.9
96148.3,37916.5
96150.1,37915.8
96151.9,37915
96153.5,37914
96155.1,37912.9
96156.5,37911.6
96157.8,37910.1
96159,37908.6
96160,37906.9
96160.8,37905.2
96161.4,37903.4
96161.9,37901.5
96162.2,37899.6
96162.3,37897.6
96162.3,37228.3
96162.2,37226.4
96161.9,37224.5
96161.4,37222.6
96160.8,37220.8
96160,37219.1
96159,37217.4
96157.8,37215.9
96156.5,37214.4
96155.1,37213.1
96153.5,37212
96151.9,37211
96150.1,37210.2
96148.3,37209.5
96146.4,37209
96144.5,37208.8
96142.6,37208.7
95473.3,37208.7
Z" /> 
<circle cx="95808" cy="36563" r="354.331" /> 
<circle cx="95808" cy="35563" r="354.331" /> 
</g>
<g >
</g>
<g style="fill:#000000; fill-opacity:1.0; 
stroke:#000000; stroke-width:0; stroke-opacity:1; 
stroke-linecap:round; stroke-linejoin:round;">
<path style="fill:#000000; fill-opacity:1.0; 
stroke:#000000; stroke-width:0; stroke-opacity:1; 
stroke-linecap:round; stroke-linejoin:round;fill-rule:evenodd;"
d="M 88014.7,26974.9
88004.3,26976.5
87994.1,26979
87984.2,26982.6
87974.7,26987
87965.7,26992.4
87957.3,26998.7
87949.5,27005.7
87942.5,27013.5
87936.2,27022
87930.8,27031
87926.3,27040.5
87922.8,27050.3
87920.2,27060.5
87918.7,27070.9
87918.2,27081.4
87918.2,27359.6
87918.7,27370
87920.2,27380.4
87922.8,27390.6
87926.3,27400.5
87930.8,27410
87936.2,27419
87942.5,27427.4
87949.5,27435.2
87957.3,27442.3
87965.7,27448.5
87974.7,27453.9
87984.2,27458.4
87994.1,27461.9
88004.3,27464.5
88014.7,27466
88025.2,27466.5
88401.8,27466.5
88412.2,27466
88422.6,27464.5
88432.8,27461.9
88442.7,27458.4
88452.2,27453.9
88461.2,27448.5
88469.6,27442.3
88477.4,27435.2
88484.5,27427.4
88490.7,27419
88496.1,27410
88500.6,27400.5
88504.1,27390.6
88506.7,27380.4
88508.2,27370
88508.7,27359.6
88508.7,27081.4
88508.2,27070.9
88506.7,27060.5
88504.1,27050.3
88500.6,27040.5
88496.1,27031
88490.7,27022
88484.5,27013.5
88477.4,27005.7
88469.6,26998.7
88461.2,26992.4
88452.2,26987
88442.7,26982.6
88432.8,26979
88422.6,26976.5
88412.2,26974.9
88401.8,26974.4
88025.2,26974.4
Z" /> 
<path style="fill:#000000; fill-opacity:1.0; 
stroke:#000000; stroke-width:0; stroke-opacity:1; 
stroke-linecap:round; stroke-linejoin:round;fill-rule:evenodd;"
d="M 88014.7,27782
88004.3,27783.6
87994.1,27786.1
87984.2,27789.6
87974.7,27794.1
87965.7,27799.5
87957.3,27805.8
87949.5,27812.8
87942.5,27820.6
87936.2,27829
87930.8,27838
87926.3,27847.5
87922.8,27857.4
87920.2,27867.6
87918.7,27878
87918.2,27888.5
87918.2,28166.6
87918.7,28177.1
87920.2,28187.5
87922.8,28197.7
87926.3,28207.6
87930.8,28217.1
87936.2,28226.1
87942.5,28234.5
87949.5,28242.3
87957.3,28249.3
87965.7,28255.6
87974.7,28261
87984.2,28265.5
87994.1,28269
88004.3,28271.6
88014.7,28273.1
88025.2,28273.6
88401.8,28273.6
88412.2,28273.1
88422.6,28271.6
88432.8,28269
88442.7,28265.5
88452.2,28261
88461.2,28255.6
88469.6,28249.3
88477.4,28242.3
88484.5,28234.5
88490.7,28226.1
88496.1,28217.1
88500.6,28207.6
88504.1,28197.7
88506.7,28187.5
88508.2,28177.1
88508.7,28166.6
88508.7,27888.5
88508.2,27878
88506.7,27867.6
88504.1,27857.4
88500.6,27847.5
88496.1,27838
88490.7,27829
88484.5,27820.6
88477.4,27812.8
88469.6,27805.8
88461.2,27799.5
88452.2,27794.1
88442.7,27789.6
88432.8,27786.1
88422.6,27783.6
88412.2,27782
88401.8,27781.5
88025.2,27781.5
Z" /> 
</g>
<g >
</g>
<g style="fill:#000000; fill-opacity:1.0; 
stroke:#000000; stroke-width:0; stroke-opacity:1; 
stroke-linecap:round; stroke-linejoin:round;">
<circle cx="79784.3" cy="38228.3" r="649.606" /> 
</g>
<g style="fill:#000000; fill-opacity:1.0; 
stroke:#000000; stroke-width:39.3701; stroke-opacity:1; 
stroke-linecap:round; stroke-linejoin:round;">
</g>
<g >
</g>
<g style="fill:#000000; fill-opacity:1.0; 
stroke:#000000; stroke-width:39.3701; stroke-opacity:1; 
stroke-linecap:round; stroke-linejoin:round;">
</g>
<g style="fill:#000000; fill-opacity:1.0; 
stroke:#000000; stroke-width:0; stroke-opacity:1; 
stroke-linecap:round; stroke-linejoin:round;">
<circle cx="79784.3" cy="18370.1" r="649.606" /> 
</g>
<g style="fill:#000000; fill-opacity:1.0; 
stroke:#000000; stroke-width:39.3701; stroke-opacity:1; 
stroke-linecap:round; stroke-linejoin:round;">
</g>
<g >
</g>
<g style="fill:#000000; fill-opacity:1.0; 
stroke:#000000; stroke-width:39.3701; stroke-opacity:1; 
stroke-linecap:round; stroke-linejoin:round;">
</g>
<g style="fill:#000000; fill-opacity:1.0; 
stroke:#000000; stroke-width:0; stroke-opacity:1; 
stroke-linecap:round; stroke-linejoin:round;">
<circle cx="95595.4" cy="32669.3" r="649.606" /> 
</g>
<g style="fill:#000000; fill-opacity:1.0; 
stroke:#000000; stroke-width:39.3701; stroke-opacity:1; 
stroke-linecap:round; stroke-linejoin:round;">
</g>
<g >
</g>
<g style="fill:#000000; fill-opacity:1.0; 
stroke:#000000; stroke-width:39.3701; stroke-opacity:1; 
stroke-linecap:round; stroke-linejoin:round;">
</g>
<g style="fill:#000000; fill-opacity:1.0; 
stroke:#000000; stroke-width:0; stroke-opacity:1; 
stroke-linecap:round; stroke-linejoin:round;">
<circle cx="95548.1" cy="18618.1" r="649.606" /> 
</g>
<g style="fill:#000000; fill-opacity:1.0; 
stroke:#000000; stroke-width:39.3701; stroke-opacity:1; 
stroke-linecap:round; stroke-linejoin:round;">
</g>
<g >
</g>
<g style="fill:#000000; fill-opacity:1.0; 
stroke:#000000; stroke-width:39.3701; stroke-opacity:1; 
stroke-linecap:round; stroke-linejoin:round;">
</g>
<g style="fill:#000000; fill-opacity:1.0; 
stroke:#000000; stroke-width:0; stroke-opacity:1; 
stroke-linecap:round; stroke-linejoin:round;">
<path style="fill:#000000; fill-opacity:1.0; 
stroke:#000000; stroke-width:0; stroke-opacity:1; 
stroke-linecap:round; stroke-linejoin:round;fill-rule:evenodd;"
d="M 84073.7,24244.2
84071.8,24244.5
84070,24244.9
84068.1,24245.6
84066.4,24246.4
84064.7,24247.4
84063.2,24248.6
84061.8,24249.9
84060.5,24251.3
84059.3,24252.8
84058.3,24254.5
84057.5,24256.2
84056.8,24258.1
84056.4,24259.9
84056.1,24261.8
84056,24263.8
84056,24933.1
84056.1,24935
84056.4,24936.9
84056.8,24938.8
84057.5,24940.6
84058.3,24942.4
84059.3,24944
84060.5,24945.6
84061.8,24947
84063.2,24948.3
84064.7,24949.4
84066.4,24950.4
84068.1,24951.3
84070,24951.9
84071.8,24952.4
84073.7,24952.7
84075.7,24952.8
84745,24952.8
84746.9,24952.7
84748.8,24952.4
84750.7,24951.9
84752.5,24951.3
84754.2,24950.4
84755.9,24949.4
84757.4,24948.3
84758.9,24947
84760.2,24945.6
84761.3,24944
84762.3,24942.4
84763.1,24940.6
84763.8,24938.8
84764.3,24936.9
84764.6,24935
84764.6,24933.1
84764.6,24263.8
84764.6,24261.8
84764.3,24259.9
84763.8,24258.1
84763.1,24256.2
84762.3,24254.5
84761.3,24252.8
84760.2,24251.3
84758.9,24249.9
84757.4,24248.6
84755.9,24247.4
84754.2,24246.4
84752.5,24245.6
84750.7,24244.9
84748.8,24244.5
84746.9,24244.2
84745,24244.1
84075.7,24244.1
Z" /> 
</g>
<g >
</g>
<g style="fill:#000000; fill-opacity:1.0; 
stroke:#000000; stroke-width:0; stroke-opacity:1; 
stroke-linecap:round; stroke-linejoin:round;">
<path style="fill:#000000; fill-opacity:1.0; 
stroke:#000000; stroke-width:0; stroke-opacity:1; 
stroke-linecap:round; stroke-linejoin:round;fill-rule:evenodd;"
d="M 78975.3,22846.6
78973.4,22846.8
78971.5,22847.3
78969.7,22848
78968,22848.8
78966.3,22849.8
78964.8,22850.9
78963.3,22852.2
78962,22853.7
78960.9,22855.2
78959.9,22856.9
78959.1,22858.6
78958.4,22860.4
78957.9,22862.3
78957.7,22864.2
78957.6,22866.1
78957.6,23535.4
78957.7,23537.4
78957.9,23539.3
78958.4,23541.1
78959.1,23543
78959.9,23544.7
78960.9,23546.4
78962,23547.9
78963.3,23549.4
78964.8,23550.7
78966.3,23551.8
78968,23552.8
78969.7,23553.6
78971.5,23554.3
78973.4,23554.7
78975.3,23555
78977.2,23555.1
79646.5,23555.1
79648.5,23555
79650.4,23554.7
79652.2,23554.3
79654.1,23553.6
79655.8,23552.8
79657.5,23551.8
79659,23550.7
79660.5,23549.4
79661.8,23547.9
79662.9,23546.4
79663.9,23544.7
79664.7,23543
79665.4,23541.1
79665.8,23539.3
79666.1,23537.4
79666.2,23535.4
79666.2,22866.1
79666.1,22864.2
79665.8,22862.3
79665.4,22860.4
79664.7,22858.6
79663.9,22856.9
79662.9,22855.2
79661.8,22853.7
79660.5,22852.2
79659,22850.9
79657.5,22849.8
79655.8,22848.8
79654.1,22848
79652.2,22847.3
79650.4,22846.8
79648.5,22846.6
79646.5,22846.5
78977.2,22846.5
Z" /> 
</g>
<g >
</g>
<g style="fill:#000000; fill-opacity:1.0; 
stroke:#000000; stroke-width:0; stroke-opacity:1; 
stroke-linecap:round; stroke-linejoin:round;">
<path style="fill:#000000; fill-opacity:1.0; 
stroke:#000000; stroke-width:0; stroke-opacity:1; 
stroke-linecap:round; stroke-linejoin:round;fill-rule:evenodd;"
d="M 78975.3,27216.6
78973.4,27216.9
78971.5,27217.4
78969.7,27218
78968,27218.9
78966.3,27219.9
78964.8,27221
78963.3,27222.3
78962,27223.7
78960.9,27225.3
78959.9,27226.9
78959.1,27228.7
78958.4,27230.5
78957.9,27232.4
78957.7,27234.3
78957.6,27236.2
78957.6,27905.5
78957.7,27907.4
78957.9,27909.4
78958.4,27911.2
78959.1,27913
78959.9,27914.8
78960.9,27916.4
78962,27918
78963.3,27919.4
78964.8,27920.7
78966.3,27921.9
78968,27922.9
78969.7,27923.7
78971.5,27924.3
78973.4,27924.8
78975.3,27925.1
78977.2,27925.2
79646.5,27925.2
79648.5,27925.1
79650.4,27924.8
79652.2,27924.3
79654.1,27923.7
79655.8,27922.9
79657.5,27921.9
79659,27920.7
79660.5,27919.4
79661.8,27918
79662.9,27916.4
79663.9,27914.8
79664.7,27913
79665.4,27911.2
79665.8,27909.4
79666.1,27907.4
79666.2,27905.5
79666.2,27236.2
79666.1,27234.3
79665.8,27232.4
79665.4,27230.5
79664.7,27228.7
79663.9,27226.9
79662.9,27225.3
79661.8,27223.7
79660.5,27222.3
79659,27221
79657.5,27219.9
79655.8,27218.9
79654.1,27218
79652.2,27217.4
79650.4,27216.9
79648.5,27216.6
79646.5,27216.5
78977.2,27216.5
Z" /> 
</g>
<g >
</g>
<g style="fill:#000000; fill-opacity:1.0; 
stroke:#000000; stroke-width:0; stroke-opacity:1; 
stroke-linecap:round; stroke-linejoin:round;">
<path style="fill:#000000; fill-opacity:1.0; 
stroke:#000000; stroke-width:0; stroke-opacity:1; 
stroke-linecap:round; stroke-linejoin:round;fill-rule:evenodd;"
d="M 83498.9,21842.6
83497,21842.9
83495.2,21843.4
83493.3,21844
83491.6,21844.8
83489.9,21845.8
83488.4,21847
83486.9,21848.3
83485.6,21849.7
83484.5,21851.3
83483.5,21852.9
83482.7,21854.7
83482,21856.5
83481.6,21858.4
83481.3,21860.3
83481.2,21862.2
83481.2,22649.6
83481.3,22651.5
83481.6,22653.4
83482,22655.3
83482.7,22657.1
83483.5,22658.9
83484.5,22660.5
83485.6,22662.1
83486.9,22663.5
83488.4,22664.8
83489.9,22666
83491.6,22667
83493.3,22667.8
83495.2,22668.4
83497,22668.9
83498.9,22669.2
83500.9,22669.3
85469.4,22669.3
85471.3,22669.2
85473.2,22668.9
85475.1,22668.4
85476.9,22667.8
85478.6,22667
85480.3,22666
85481.9,22664.8
85483.3,22663.5
85484.6,22662.1
85485.7,22660.5
85486.7,22658.9
85487.6,22657.1
85488.2,22655.3
85488.7,22653.4
85489,22651.5
85489.1,22649.6
85489.1,21862.2
85489,21860.3
85488.7,21858.4
85488.2,21856.5
85487.6,21854.7
85486.7,21852.9
85485.7,21851.3
85484.6,21849.7
85483.3,21848.3
85481.9,21847
85480.3,21845.8
85478.6,21844.8
85476.9,21844
85475.1,21843.4
85473.2,21842.9
85471.3,21842.6
85469.4,21842.5
83500.9,21842.5
Z" /> 
<path style="fill:#000000; fill-opacity:1.0; 
stroke:#000000; stroke-width:0; stroke-opacity:1; 
stroke-linecap:round; stroke-linejoin:round;fill-rule:evenodd;"
d="M 83498.9,19480.4
83497,19480.7
83495.2,19481.2
83493.3,19481.8
83491.6,19482.6
83489.9,19483.6
83488.4,19484.8
83486.9,19486.1
83485.6,19487.5
83484.5,19489.1
83483.5,19490.7
83482.7,19492.5
83482,19494.3
83481.6,19496.2
83481.3,19498.1
83481.2,19500
83481.2,20287.4
83481.3,20289.3
83481.6,20291.2
83482,20293.1
83482.7,20294.9
83483.5,20296.7
83484.5,20298.3
83485.6,20299.9
83486.9,20301.3
83488.4,20302.6
83489.9,20303.8
83491.6,20304.8
83493.3,20305.6
83495.2,20306.2
83497,20306.7
83498.9,20307
83500.9,20307.1
85469.4,20307.1
85471.3,20307
85473.2,20306.7
85475.1,20306.2
85476.9,20305.6
85478.6,20304.8
85480.3,20303.8
85481.9,20302.6
85483.3,20301.3
85484.6,20299.9
85485.7,20298.3
85486.7,20296.7
85487.6,20294.9
85488.2,20293.1
85488.7,20291.2
85489,20289.3
85489.1,20287.4
85489.1,19500
85489,19498.1
85488.7,19496.2
85488.2,19494.3
85487.6,19492.5
85486.7,19490.7
85485.7,19489.1
85484.6,19487.5
85483.3,19486.1
85481.9,19484.8
85480.3,19483.6
85478.6,19482.6
85476.9,19481.8
85475.1,19481.2
85473.2,19480.7
85471.3,19480.4
85469.4,19480.3
83500.9,19480.3
Z" /> 
<path style="fill:#000000; fill-opacity:1.0; 
stroke:#000000; stroke-width:0; stroke-opacity:1; 
stroke-linecap:round; stroke-linejoin:round;fill-rule:evenodd;"
d="M 86077.7,20464.7
86075.8,20464.9
86073.9,20465.4
86072.1,20466.1
86070.3,20466.9
86068.7,20467.9
86067.1,20469
86065.7,20470.3
86064.4,20471.8
86063.2,20473.3
86062.2,20475
86061.4,20476.7
86060.8,20478.5
86060.3,20480.4
86060,20482.3
86059.9,20484.3
86059.9,22059.1
86060,22061
86060.3,22062.9
86060.8,22064.8
86061.4,22066.6
86062.2,22068.3
86063.2,22070
86064.4,22071.5
86065.7,22073
86067.1,22074.3
86068.7,22075.4
86070.3,22076.4
86072.1,22077.2
86073.9,22077.9
86075.8,22078.4
86077.7,22078.6
86079.6,22078.7
86670.2,22078.7
86672.1,22078.6
86674,22078.4
86675.9,22077.9
86677.7,22077.2
86679.4,22076.4
86681.1,22075.4
86682.6,22074.3
86684.1,22073
86685.4,22071.5
86686.5,22070
86687.5,22068.3
86688.3,22066.6
86689,22064.8
86689.5,22062.9
86689.7,22061
86689.8,22059.1
86689.8,20484.3
86689.7,20482.3
86689.5,20480.4
86689,20478.5
86688.3,20476.7
86687.5,20475
86686.5,20473.3
86685.4,20471.8
86684.1,20470.3
86682.6,20469
86681.1,20467.9
86679.4,20466.9
86677.7,20466.1
86675.9,20465.4
86674,20464.9
86672.1,20464.7
86670.2,20464.6
86079.6,20464.6
Z" /> 
</g>
<g >
</g>
<g >
</g>
<g >
</g>
</g> 
</svg>
