%TF.GenerationSoftware,KiCad,Pcbnew,(5.1.7)-1*%
%TF.CreationDate,2020-11-14T21:45:38+03:00*%
%TF.ProjectId,stepper_tester,73746570-7065-4725-9f74-65737465722e,rev?*%
%TF.SameCoordinates,Original*%
%TF.FileFunction,Copper,L2,Bot*%
%TF.FilePolarity,Positive*%
%FSLAX46Y46*%
G04 Gerber Fmt 4.6, Leading zero omitted, Abs format (unit mm)*
G04 Created by KiCad (PCBNEW (5.1.7)-1) date 2020-11-14 21:45:38*
%MOMM*%
%LPD*%
G01*
G04 APERTURE LIST*
%TA.AperFunction,ComponentPad*%
%ADD10C,1.524000*%
%TD*%
%TA.AperFunction,ComponentPad*%
%ADD11R,1.700000X1.700000*%
%TD*%
%TA.AperFunction,ComponentPad*%
%ADD12O,1.700000X1.700000*%
%TD*%
%TA.AperFunction,ComponentPad*%
%ADD13R,1.600000X1.600000*%
%TD*%
%TA.AperFunction,ComponentPad*%
%ADD14C,1.600000*%
%TD*%
%TA.AperFunction,ComponentPad*%
%ADD15O,1.700000X1.950000*%
%TD*%
%TA.AperFunction,ComponentPad*%
%ADD16R,5.000000X2.000000*%
%TD*%
%TA.AperFunction,ComponentPad*%
%ADD17R,1.500000X4.000000*%
%TD*%
%TA.AperFunction,Conductor*%
%ADD18C,0.800000*%
%TD*%
%TA.AperFunction,Conductor*%
%ADD19C,1.500000*%
%TD*%
%TA.AperFunction,Conductor*%
%ADD20C,0.500000*%
%TD*%
%TA.AperFunction,Conductor*%
%ADD21C,1.000000*%
%TD*%
%TA.AperFunction,Conductor*%
%ADD22C,0.254000*%
%TD*%
%TA.AperFunction,Conductor*%
%ADD23C,0.100000*%
%TD*%
G04 APERTURE END LIST*
%TO.P,R4,1*%
%TO.N,Net-(R4-Pad1)*%
%TA.AperFunction,SMDPad,CuDef*%
G36*
G01*
X64965000Y-80270001D02*
X64965000Y-79369999D01*
G75*
G02*
X65214999Y-79120000I249999J0D01*
G01*
X65865001Y-79120000D01*
G75*
G02*
X66115000Y-79369999I0J-249999D01*
G01*
X66115000Y-80270001D01*
G75*
G02*
X65865001Y-80520000I-249999J0D01*
G01*
X65214999Y-80520000D01*
G75*
G02*
X64965000Y-80270001I0J249999D01*
G01*
G37*
%TD.AperFunction*%
%TO.P,R4,2*%
%TO.N,MS3*%
%TA.AperFunction,SMDPad,CuDef*%
G36*
G01*
X67015000Y-80270001D02*
X67015000Y-79369999D01*
G75*
G02*
X67264999Y-79120000I249999J0D01*
G01*
X67915001Y-79120000D01*
G75*
G02*
X68165000Y-79369999I0J-249999D01*
G01*
X68165000Y-80270001D01*
G75*
G02*
X67915001Y-80520000I-249999J0D01*
G01*
X67264999Y-80520000D01*
G75*
G02*
X67015000Y-80270001I0J249999D01*
G01*
G37*
%TD.AperFunction*%
%TD*%
%TO.P,R3,1*%
%TO.N,DIR*%
%TA.AperFunction,SMDPad,CuDef*%
G36*
G01*
X67959999Y-68495000D02*
X68860001Y-68495000D01*
G75*
G02*
X69110000Y-68744999I0J-249999D01*
G01*
X69110000Y-69395001D01*
G75*
G02*
X68860001Y-69645000I-249999J0D01*
G01*
X67959999Y-69645000D01*
G75*
G02*
X67710000Y-69395001I0J249999D01*
G01*
X67710000Y-68744999D01*
G75*
G02*
X67959999Y-68495000I249999J0D01*
G01*
G37*
%TD.AperFunction*%
%TO.P,R3,2*%
%TO.N,Net-(J1-Pad8)*%
%TA.AperFunction,SMDPad,CuDef*%
G36*
G01*
X67959999Y-70545000D02*
X68860001Y-70545000D01*
G75*
G02*
X69110000Y-70794999I0J-249999D01*
G01*
X69110000Y-71445001D01*
G75*
G02*
X68860001Y-71695000I-249999J0D01*
G01*
X67959999Y-71695000D01*
G75*
G02*
X67710000Y-71445001I0J249999D01*
G01*
X67710000Y-70794999D01*
G75*
G02*
X67959999Y-70545000I249999J0D01*
G01*
G37*
%TD.AperFunction*%
%TD*%
%TO.P,R1,2*%
%TO.N,Net-(J1-Pad7)*%
%TA.AperFunction,SMDPad,CuDef*%
G36*
G01*
X70129999Y-70545000D02*
X71030001Y-70545000D01*
G75*
G02*
X71280000Y-70794999I0J-249999D01*
G01*
X71280000Y-71445001D01*
G75*
G02*
X71030001Y-71695000I-249999J0D01*
G01*
X70129999Y-71695000D01*
G75*
G02*
X69880000Y-71445001I0J249999D01*
G01*
X69880000Y-70794999D01*
G75*
G02*
X70129999Y-70545000I249999J0D01*
G01*
G37*
%TD.AperFunction*%
%TO.P,R1,1*%
%TO.N,STEP*%
%TA.AperFunction,SMDPad,CuDef*%
G36*
G01*
X70129999Y-68495000D02*
X71030001Y-68495000D01*
G75*
G02*
X71280000Y-68744999I0J-249999D01*
G01*
X71280000Y-69395001D01*
G75*
G02*
X71030001Y-69645000I-249999J0D01*
G01*
X70129999Y-69645000D01*
G75*
G02*
X69880000Y-69395001I0J249999D01*
G01*
X69880000Y-68744999D01*
G75*
G02*
X70129999Y-68495000I249999J0D01*
G01*
G37*
%TD.AperFunction*%
%TD*%
D10*
%TO.P,U1,40*%
%TO.N,VDD_3V3*%
X46570000Y-95440000D03*
%TO.P,U1,39*%
%TO.N,GND*%
X46570000Y-92900000D03*
%TO.P,U1,37*%
%TO.N,N/C*%
X46570000Y-87820000D03*
%TO.P,U1,36*%
X46570000Y-85280000D03*
%TO.P,U1,38*%
%TO.N,VDD_5V*%
X46570000Y-90360000D03*
%TO.P,U1,35*%
%TO.N,N/C*%
X46570000Y-82740000D03*
%TO.P,U1,34*%
X46570000Y-80200000D03*
%TO.P,U1,32*%
X46570000Y-75120000D03*
%TO.P,U1,33*%
X46570000Y-77660000D03*
%TO.P,U1,31*%
X46570000Y-72580000D03*
%TO.P,U1,30*%
X46570000Y-70040000D03*
%TO.P,U1,29*%
X46570000Y-67500000D03*
%TO.P,U1,27*%
X46570000Y-62420000D03*
%TO.P,U1,26*%
X46570000Y-59880000D03*
%TO.P,U1,28*%
X46570000Y-64960000D03*
%TO.P,U1,25*%
X46570000Y-57340000D03*
%TO.P,U1,24*%
X46570000Y-54800000D03*
%TO.P,U1,23*%
X46570000Y-52260000D03*
%TO.P,U1,22*%
X46570000Y-49720000D03*
%TO.P,U1,21*%
X46570000Y-47180000D03*
%TO.P,U1,13*%
%TO.N,DIR*%
X61810000Y-64960000D03*
%TO.P,U1,1*%
%TO.N,N/C*%
X61810000Y-95440000D03*
%TO.P,U1,12*%
X61810000Y-67500000D03*
%TO.P,U1,2*%
X61810000Y-92900000D03*
%TO.P,U1,7*%
%TO.N,Net-(R4-Pad1)*%
X61810000Y-80200000D03*
%TO.P,U1,5*%
%TO.N,MS1*%
X61810000Y-85280000D03*
%TO.P,U1,3*%
%TO.N,N/C*%
X61810000Y-90360000D03*
%TO.P,U1,14*%
%TO.N,STEP*%
X61810000Y-62420000D03*
%TO.P,U1,6*%
%TO.N,MS2*%
X61810000Y-82740000D03*
%TO.P,U1,11*%
%TO.N,N/C*%
X61810000Y-70040000D03*
%TO.P,U1,9*%
%TO.N,SLEEP*%
X61810000Y-75120000D03*
%TO.P,U1,18*%
%TO.N,N/C*%
X61810000Y-52260000D03*
%TO.P,U1,16*%
X61810000Y-57340000D03*
%TO.P,U1,17*%
X61810000Y-54800000D03*
%TO.P,U1,10*%
X61810000Y-72580000D03*
%TO.P,U1,19*%
%TO.N,GND*%
X61810000Y-49720000D03*
%TO.P,U1,4*%
%TO.N,N/C*%
X61810000Y-87820000D03*
%TO.P,U1,8*%
%TO.N,MS3*%
X61810000Y-77660000D03*
%TO.P,U1,15*%
%TO.N,EN*%
X61810000Y-59880000D03*
%TO.P,U1,20*%
%TO.N,GND*%
X61810000Y-47180000D03*
%TD*%
D11*
%TO.P,J1,1*%
%TO.N,Net-(J1-Pad1)*%
X86230000Y-74770000D03*
D12*
%TO.P,J1,2*%
%TO.N,MS1*%
X83690000Y-74770000D03*
%TO.P,J1,3*%
%TO.N,MS2*%
X81150000Y-74770000D03*
%TO.P,J1,4*%
%TO.N,MS3*%
X78610000Y-74770000D03*
%TO.P,J1,5*%
%TO.N,SLEEP*%
X76070000Y-74770000D03*
%TO.P,J1,6*%
X73530000Y-74770000D03*
%TO.P,J1,7*%
%TO.N,Net-(J1-Pad7)*%
X70990000Y-74770000D03*
%TO.P,J1,8*%
%TO.N,Net-(J1-Pad8)*%
X68450000Y-74770000D03*
%TD*%
%TO.P,J2,8*%
%TO.N,GND*%
X68450000Y-87670000D03*
%TO.P,J2,7*%
%TO.N,VDD_DRV*%
X70990000Y-87670000D03*
%TO.P,J2,6*%
%TO.N,1B*%
X73530000Y-87670000D03*
%TO.P,J2,5*%
%TO.N,1A*%
X76070000Y-87670000D03*
%TO.P,J2,4*%
%TO.N,2A*%
X78610000Y-87670000D03*
%TO.P,J2,3*%
%TO.N,2B*%
X81150000Y-87670000D03*
%TO.P,J2,2*%
%TO.N,GND*%
X83690000Y-87670000D03*
D11*
%TO.P,J2,1*%
%TO.N,VM_VDD*%
X86230000Y-87670000D03*
%TD*%
D13*
%TO.P,C1,1*%
%TO.N,VM_VDD*%
X91060000Y-82730000D03*
D14*
%TO.P,C1,2*%
%TO.N,GND*%
X96060000Y-82730000D03*
%TD*%
%TO.P,J3,1*%
%TO.N,1B*%
%TA.AperFunction,ComponentPad*%
G36*
G01*
X72620000Y-94965000D02*
X72620000Y-93515000D01*
G75*
G02*
X72870000Y-93265000I250000J0D01*
G01*
X74070000Y-93265000D01*
G75*
G02*
X74320000Y-93515000I0J-250000D01*
G01*
X74320000Y-94965000D01*
G75*
G02*
X74070000Y-95215000I-250000J0D01*
G01*
X72870000Y-95215000D01*
G75*
G02*
X72620000Y-94965000I0J250000D01*
G01*
G37*
%TD.AperFunction*%
D15*
%TO.P,J3,2*%
%TO.N,1A*%
X75970000Y-94240000D03*
%TO.P,J3,3*%
%TO.N,2A*%
X78470000Y-94240000D03*
%TO.P,J3,4*%
%TO.N,2B*%
X80970000Y-94240000D03*
%TD*%
%TO.P,R2,1*%
%TO.N,VDD_DRV*%
%TA.AperFunction,SMDPad,CuDef*%
G36*
G01*
X86610001Y-80775000D02*
X85709999Y-80775000D01*
G75*
G02*
X85460000Y-80525001I0J249999D01*
G01*
X85460000Y-79874999D01*
G75*
G02*
X85709999Y-79625000I249999J0D01*
G01*
X86610001Y-79625000D01*
G75*
G02*
X86860000Y-79874999I0J-249999D01*
G01*
X86860000Y-80525001D01*
G75*
G02*
X86610001Y-80775000I-249999J0D01*
G01*
G37*
%TD.AperFunction*%
%TO.P,R2,2*%
%TO.N,Net-(J1-Pad1)*%
%TA.AperFunction,SMDPad,CuDef*%
G36*
G01*
X86610001Y-78725000D02*
X85709999Y-78725000D01*
G75*
G02*
X85460000Y-78475001I0J249999D01*
G01*
X85460000Y-77824999D01*
G75*
G02*
X85709999Y-77575000I249999J0D01*
G01*
X86610001Y-77575000D01*
G75*
G02*
X86860000Y-77824999I0J-249999D01*
G01*
X86860000Y-78475001D01*
G75*
G02*
X86610001Y-78725000I-249999J0D01*
G01*
G37*
%TD.AperFunction*%
%TD*%
D11*
%TO.P,J4,1*%
%TO.N,VDD_3V3*%
X53650000Y-95410000D03*
D12*
%TO.P,J4,2*%
%TO.N,VDD_DRV*%
X53650000Y-92870000D03*
%TO.P,J4,3*%
%TO.N,VDD_5V*%
X53650000Y-90330000D03*
%TD*%
%TO.P,R5,1*%
%TO.N,EN*%
%TA.AperFunction,SMDPad,CuDef*%
G36*
G01*
X72489999Y-68565000D02*
X73390001Y-68565000D01*
G75*
G02*
X73640000Y-68814999I0J-249999D01*
G01*
X73640000Y-69465001D01*
G75*
G02*
X73390001Y-69715000I-249999J0D01*
G01*
X72489999Y-69715000D01*
G75*
G02*
X72240000Y-69465001I0J249999D01*
G01*
X72240000Y-68814999D01*
G75*
G02*
X72489999Y-68565000I249999J0D01*
G01*
G37*
%TD.AperFunction*%
%TO.P,R5,2*%
%TO.N,Net-(J1-Pad1)*%
%TA.AperFunction,SMDPad,CuDef*%
G36*
G01*
X72489999Y-70615000D02*
X73390001Y-70615000D01*
G75*
G02*
X73640000Y-70864999I0J-249999D01*
G01*
X73640000Y-71515001D01*
G75*
G02*
X73390001Y-71765000I-249999J0D01*
G01*
X72489999Y-71765000D01*
G75*
G02*
X72240000Y-71515001I0J249999D01*
G01*
X72240000Y-70864999D01*
G75*
G02*
X72489999Y-70615000I249999J0D01*
G01*
G37*
%TD.AperFunction*%
%TD*%
D11*
%TO.P,J5,1*%
%TO.N,VM_VDD*%
X82600000Y-62480000D03*
%TD*%
%TO.P,J6,1*%
%TO.N,GND*%
X95550000Y-58930000D03*
%TD*%
%TO.P,J7,1*%
%TO.N,GND*%
X95550000Y-70030000D03*
%TD*%
D16*
%TO.P,J8,1*%
%TO.N,VM_VDD*%
X82410000Y-56530000D03*
%TO.P,J8,2*%
%TO.N,GND*%
X82410000Y-50530000D03*
D17*
%TO.P,J8,3*%
X77610000Y-54030000D03*
%TD*%
D18*
%TO.N,Net-(J1-Pad7)*%
X70580000Y-74360000D02*
X70990000Y-74770000D01*
X70580000Y-71120000D02*
X70580000Y-74360000D01*
%TO.N,Net-(J1-Pad8)*%
X68410000Y-74730000D02*
X68450000Y-74770000D01*
X68410000Y-71120000D02*
X68410000Y-74730000D01*
D19*
%TO.N,VM_VDD*%
X86230000Y-85780000D02*
X89040000Y-82970000D01*
X86230000Y-87670000D02*
X86230000Y-85780000D01*
X89280000Y-82730000D02*
X86230000Y-85780000D01*
X91060000Y-82730000D02*
X89280000Y-82730000D01*
X82600000Y-62480000D02*
X82600000Y-64610000D01*
X91060000Y-73070000D02*
X91060000Y-82730000D01*
X82600000Y-64610000D02*
X91060000Y-73070000D01*
X82600000Y-56660000D02*
X82440000Y-56500000D01*
X82600000Y-62480000D02*
X82600000Y-56660000D01*
D20*
%TO.N,EN*%
X71190000Y-59880000D02*
X72940000Y-61630000D01*
X72940000Y-61630000D02*
X72940000Y-69140000D01*
X61810000Y-59880000D02*
X71190000Y-59880000D01*
D18*
%TO.N,SLEEP*%
X73530000Y-74770000D02*
X76070000Y-74770000D01*
D20*
X73530000Y-74770000D02*
X73530000Y-76090000D01*
X73530000Y-76090000D02*
X73120000Y-76500000D01*
X63190000Y-76500000D02*
X61810000Y-75120000D01*
X73120000Y-76500000D02*
X63190000Y-76500000D01*
%TO.N,VDD_5V*%
X53620000Y-90360000D02*
X53650000Y-90330000D01*
X46570000Y-90360000D02*
X53620000Y-90360000D01*
D21*
%TO.N,1B*%
X73530000Y-94180000D02*
X73470000Y-94240000D01*
X73530000Y-87670000D02*
X73530000Y-94180000D01*
%TO.N,1A*%
X76070000Y-94140000D02*
X75970000Y-94240000D01*
X76070000Y-87670000D02*
X76070000Y-94140000D01*
%TO.N,2A*%
X78610000Y-94100000D02*
X78470000Y-94240000D01*
X78610000Y-87670000D02*
X78610000Y-94100000D01*
%TO.N,2B*%
X81150000Y-94060000D02*
X80970000Y-94240000D01*
X81150000Y-87670000D02*
X81150000Y-94060000D01*
D20*
%TO.N,STEP*%
X61810000Y-62420000D02*
X69490000Y-62420000D01*
X70580000Y-63510000D02*
X70580000Y-69070000D01*
X69490000Y-62420000D02*
X70580000Y-63510000D01*
%TO.N,DIR*%
X61810000Y-64960000D02*
X67520000Y-64960000D01*
X68410000Y-65850000D02*
X68410000Y-69070000D01*
X67520000Y-64960000D02*
X68410000Y-65850000D01*
%TO.N,MS1*%
X83690000Y-76780000D02*
X83690000Y-74770000D01*
X79970000Y-80500000D02*
X83690000Y-76780000D01*
X71890000Y-80500000D02*
X79970000Y-80500000D01*
X61810000Y-85280000D02*
X64360000Y-85280000D01*
X64360000Y-85280000D02*
X64360000Y-85260000D01*
X65450000Y-84170000D02*
X68220000Y-84170000D01*
X64360000Y-85260000D02*
X65450000Y-84170000D01*
X68220000Y-84170000D02*
X71890000Y-80500000D01*
%TO.N,MS2*%
X79190000Y-79320000D02*
X81150000Y-77360000D01*
X70830000Y-79320000D02*
X79190000Y-79320000D01*
X81150000Y-77360000D02*
X81150000Y-74770000D01*
X67410000Y-82740000D02*
X70830000Y-79320000D01*
X61810000Y-82740000D02*
X67410000Y-82740000D01*
%TO.N,MS3*%
X61810000Y-77660000D02*
X62050000Y-77900000D01*
X78610000Y-76940000D02*
X78610000Y-74770000D01*
X77650000Y-77900000D02*
X78610000Y-76940000D01*
X68040000Y-77900000D02*
X77650000Y-77900000D01*
X67590000Y-78100000D02*
X67790000Y-77900000D01*
X67590000Y-79820000D02*
X67590000Y-78100000D01*
X67790000Y-77900000D02*
X68040000Y-77900000D01*
X62050000Y-77900000D02*
X67790000Y-77900000D01*
%TO.N,Net-(R4-Pad1)*%
X65160000Y-80200000D02*
X65540000Y-79820000D01*
X61810000Y-80200000D02*
X65160000Y-80200000D01*
%TO.N,Net-(J1-Pad1)*%
X72940000Y-71190000D02*
X84970000Y-71190000D01*
X86230000Y-72450000D02*
X86230000Y-74770000D01*
X84970000Y-71190000D02*
X86230000Y-72450000D01*
X86230000Y-78080000D02*
X86160000Y-78150000D01*
X86230000Y-74770000D02*
X86230000Y-78080000D01*
%TO.N,VDD_DRV*%
X70990000Y-87670000D02*
X70990000Y-85600000D01*
X70990000Y-85600000D02*
X70990000Y-83420000D01*
X70990000Y-83420000D02*
X72790000Y-81620000D01*
X84740000Y-81620000D02*
X86160000Y-80200000D01*
X72790000Y-81620000D02*
X84740000Y-81620000D01*
X66060000Y-85600000D02*
X70990000Y-85600000D01*
X64920000Y-86740000D02*
X66060000Y-85600000D01*
X64070000Y-98070000D02*
X64920000Y-97220000D01*
X57420000Y-98070000D02*
X64070000Y-98070000D01*
X57010000Y-97660000D02*
X57420000Y-98070000D01*
X57010000Y-93370000D02*
X57010000Y-97660000D01*
X56510000Y-92870000D02*
X57010000Y-93370000D01*
X64920000Y-97220000D02*
X64920000Y-86740000D01*
X53650000Y-92870000D02*
X56510000Y-92870000D01*
%TO.N,VDD_3V3*%
X53620000Y-95440000D02*
X53650000Y-95410000D01*
X46570000Y-95440000D02*
X53620000Y-95440000D01*
%TD*%
D22*
%TO.N,GND*%
X96962540Y-43509102D02*
X97118894Y-43556308D01*
X97263096Y-43632982D01*
X97389663Y-43736207D01*
X97493769Y-43862051D01*
X97571447Y-44005711D01*
X97619742Y-44161729D01*
X97640001Y-44354482D01*
X97640000Y-99487723D01*
X97620898Y-99682540D01*
X97573692Y-99838895D01*
X97497018Y-99983096D01*
X97393792Y-100109664D01*
X97267951Y-100213768D01*
X97124289Y-100291447D01*
X96968271Y-100339742D01*
X96775527Y-100360000D01*
X44112277Y-100360000D01*
X43917460Y-100340898D01*
X43761105Y-100293692D01*
X43616904Y-100217018D01*
X43490336Y-100113792D01*
X43386232Y-99987951D01*
X43308553Y-99844289D01*
X43260258Y-99688271D01*
X43240000Y-99495527D01*
X43240000Y-92972017D01*
X45168090Y-92972017D01*
X45209078Y-93244133D01*
X45302364Y-93503023D01*
X45364344Y-93618980D01*
X45604435Y-93685960D01*
X46390395Y-92900000D01*
X46749605Y-92900000D01*
X47535565Y-93685960D01*
X47775656Y-93618980D01*
X47892756Y-93369952D01*
X47959023Y-93102865D01*
X47971910Y-92827983D01*
X47930922Y-92555867D01*
X47837636Y-92296977D01*
X47775656Y-92181020D01*
X47535565Y-92114040D01*
X46749605Y-92900000D01*
X46390395Y-92900000D01*
X45604435Y-92114040D01*
X45364344Y-92181020D01*
X45247244Y-92430048D01*
X45180977Y-92697135D01*
X45168090Y-92972017D01*
X43240000Y-92972017D01*
X43240000Y-47042408D01*
X45173000Y-47042408D01*
X45173000Y-47317592D01*
X45226686Y-47587490D01*
X45331995Y-47841727D01*
X45484880Y-48070535D01*
X45679465Y-48265120D01*
X45908273Y-48418005D01*
X45985515Y-48450000D01*
X45908273Y-48481995D01*
X45679465Y-48634880D01*
X45484880Y-48829465D01*
X45331995Y-49058273D01*
X45226686Y-49312510D01*
X45173000Y-49582408D01*
X45173000Y-49857592D01*
X45226686Y-50127490D01*
X45331995Y-50381727D01*
X45484880Y-50610535D01*
X45679465Y-50805120D01*
X45908273Y-50958005D01*
X45985515Y-50990000D01*
X45908273Y-51021995D01*
X45679465Y-51174880D01*
X45484880Y-51369465D01*
X45331995Y-51598273D01*
X45226686Y-51852510D01*
X45173000Y-52122408D01*
X45173000Y-52397592D01*
X45226686Y-52667490D01*
X45331995Y-52921727D01*
X45484880Y-53150535D01*
X45679465Y-53345120D01*
X45908273Y-53498005D01*
X45985515Y-53530000D01*
X45908273Y-53561995D01*
X45679465Y-53714880D01*
X45484880Y-53909465D01*
X45331995Y-54138273D01*
X45226686Y-54392510D01*
X45173000Y-54662408D01*
X45173000Y-54937592D01*
X45226686Y-55207490D01*
X45331995Y-55461727D01*
X45484880Y-55690535D01*
X45679465Y-55885120D01*
X45908273Y-56038005D01*
X45985515Y-56070000D01*
X45908273Y-56101995D01*
X45679465Y-56254880D01*
X45484880Y-56449465D01*
X45331995Y-56678273D01*
X45226686Y-56932510D01*
X45173000Y-57202408D01*
X45173000Y-57477592D01*
X45226686Y-57747490D01*
X45331995Y-58001727D01*
X45484880Y-58230535D01*
X45679465Y-58425120D01*
X45908273Y-58578005D01*
X45985515Y-58610000D01*
X45908273Y-58641995D01*
X45679465Y-58794880D01*
X45484880Y-58989465D01*
X45331995Y-59218273D01*
X45226686Y-59472510D01*
X45173000Y-59742408D01*
X45173000Y-60017592D01*
X45226686Y-60287490D01*
X45331995Y-60541727D01*
X45484880Y-60770535D01*
X45679465Y-60965120D01*
X45908273Y-61118005D01*
X45985515Y-61150000D01*
X45908273Y-61181995D01*
X45679465Y-61334880D01*
X45484880Y-61529465D01*
X45331995Y-61758273D01*
X45226686Y-62012510D01*
X45173000Y-62282408D01*
X45173000Y-62557592D01*
X45226686Y-62827490D01*
X45331995Y-63081727D01*
X45484880Y-63310535D01*
X45679465Y-63505120D01*
X45908273Y-63658005D01*
X45985515Y-63690000D01*
X45908273Y-63721995D01*
X45679465Y-63874880D01*
X45484880Y-64069465D01*
X45331995Y-64298273D01*
X45226686Y-64552510D01*
X45173000Y-64822408D01*
X45173000Y-65097592D01*
X45226686Y-65367490D01*
X45331995Y-65621727D01*
X45484880Y-65850535D01*
X45679465Y-66045120D01*
X45908273Y-66198005D01*
X45985515Y-66230000D01*
X45908273Y-66261995D01*
X45679465Y-66414880D01*
X45484880Y-66609465D01*
X45331995Y-66838273D01*
X45226686Y-67092510D01*
X45173000Y-67362408D01*
X45173000Y-67637592D01*
X45226686Y-67907490D01*
X45331995Y-68161727D01*
X45484880Y-68390535D01*
X45679465Y-68585120D01*
X45908273Y-68738005D01*
X45985515Y-68770000D01*
X45908273Y-68801995D01*
X45679465Y-68954880D01*
X45484880Y-69149465D01*
X45331995Y-69378273D01*
X45226686Y-69632510D01*
X45173000Y-69902408D01*
X45173000Y-70177592D01*
X45226686Y-70447490D01*
X45331995Y-70701727D01*
X45484880Y-70930535D01*
X45679465Y-71125120D01*
X45908273Y-71278005D01*
X45985515Y-71310000D01*
X45908273Y-71341995D01*
X45679465Y-71494880D01*
X45484880Y-71689465D01*
X45331995Y-71918273D01*
X45226686Y-72172510D01*
X45173000Y-72442408D01*
X45173000Y-72717592D01*
X45226686Y-72987490D01*
X45331995Y-73241727D01*
X45484880Y-73470535D01*
X45679465Y-73665120D01*
X45908273Y-73818005D01*
X45985515Y-73850000D01*
X45908273Y-73881995D01*
X45679465Y-74034880D01*
X45484880Y-74229465D01*
X45331995Y-74458273D01*
X45226686Y-74712510D01*
X45173000Y-74982408D01*
X45173000Y-75257592D01*
X45226686Y-75527490D01*
X45331995Y-75781727D01*
X45484880Y-76010535D01*
X45679465Y-76205120D01*
X45908273Y-76358005D01*
X45985515Y-76390000D01*
X45908273Y-76421995D01*
X45679465Y-76574880D01*
X45484880Y-76769465D01*
X45331995Y-76998273D01*
X45226686Y-77252510D01*
X45173000Y-77522408D01*
X45173000Y-77797592D01*
X45226686Y-78067490D01*
X45331995Y-78321727D01*
X45484880Y-78550535D01*
X45679465Y-78745120D01*
X45908273Y-78898005D01*
X45985515Y-78930000D01*
X45908273Y-78961995D01*
X45679465Y-79114880D01*
X45484880Y-79309465D01*
X45331995Y-79538273D01*
X45226686Y-79792510D01*
X45173000Y-80062408D01*
X45173000Y-80337592D01*
X45226686Y-80607490D01*
X45331995Y-80861727D01*
X45484880Y-81090535D01*
X45679465Y-81285120D01*
X45908273Y-81438005D01*
X45985515Y-81470000D01*
X45908273Y-81501995D01*
X45679465Y-81654880D01*
X45484880Y-81849465D01*
X45331995Y-82078273D01*
X45226686Y-82332510D01*
X45173000Y-82602408D01*
X45173000Y-82877592D01*
X45226686Y-83147490D01*
X45331995Y-83401727D01*
X45484880Y-83630535D01*
X45679465Y-83825120D01*
X45908273Y-83978005D01*
X45985515Y-84010000D01*
X45908273Y-84041995D01*
X45679465Y-84194880D01*
X45484880Y-84389465D01*
X45331995Y-84618273D01*
X45226686Y-84872510D01*
X45173000Y-85142408D01*
X45173000Y-85417592D01*
X45226686Y-85687490D01*
X45331995Y-85941727D01*
X45484880Y-86170535D01*
X45679465Y-86365120D01*
X45908273Y-86518005D01*
X45985515Y-86550000D01*
X45908273Y-86581995D01*
X45679465Y-86734880D01*
X45484880Y-86929465D01*
X45331995Y-87158273D01*
X45226686Y-87412510D01*
X45173000Y-87682408D01*
X45173000Y-87957592D01*
X45226686Y-88227490D01*
X45331995Y-88481727D01*
X45484880Y-88710535D01*
X45679465Y-88905120D01*
X45908273Y-89058005D01*
X45985515Y-89090000D01*
X45908273Y-89121995D01*
X45679465Y-89274880D01*
X45484880Y-89469465D01*
X45331995Y-89698273D01*
X45226686Y-89952510D01*
X45173000Y-90222408D01*
X45173000Y-90497592D01*
X45226686Y-90767490D01*
X45331995Y-91021727D01*
X45484880Y-91250535D01*
X45679465Y-91445120D01*
X45908273Y-91598005D01*
X45979943Y-91627692D01*
X45966977Y-91632364D01*
X45851020Y-91694344D01*
X45784040Y-91934435D01*
X46570000Y-92720395D01*
X47355960Y-91934435D01*
X47288980Y-91694344D01*
X47153240Y-91630515D01*
X47231727Y-91598005D01*
X47460535Y-91445120D01*
X47655120Y-91250535D01*
X47658818Y-91245000D01*
X52475389Y-91245000D01*
X52496525Y-91276632D01*
X52703368Y-91483475D01*
X52877760Y-91600000D01*
X52703368Y-91716525D01*
X52496525Y-91923368D01*
X52334010Y-92166589D01*
X52222068Y-92436842D01*
X52165000Y-92723740D01*
X52165000Y-93016260D01*
X52222068Y-93303158D01*
X52334010Y-93573411D01*
X52496525Y-93816632D01*
X52628380Y-93948487D01*
X52555820Y-93970498D01*
X52445506Y-94029463D01*
X52348815Y-94108815D01*
X52269463Y-94205506D01*
X52210498Y-94315820D01*
X52174188Y-94435518D01*
X52162420Y-94555000D01*
X47658818Y-94555000D01*
X47655120Y-94549465D01*
X47460535Y-94354880D01*
X47231727Y-94201995D01*
X47160057Y-94172308D01*
X47173023Y-94167636D01*
X47288980Y-94105656D01*
X47355960Y-93865565D01*
X46570000Y-93079605D01*
X45784040Y-93865565D01*
X45851020Y-94105656D01*
X45986760Y-94169485D01*
X45908273Y-94201995D01*
X45679465Y-94354880D01*
X45484880Y-94549465D01*
X45331995Y-94778273D01*
X45226686Y-95032510D01*
X45173000Y-95302408D01*
X45173000Y-95577592D01*
X45226686Y-95847490D01*
X45331995Y-96101727D01*
X45484880Y-96330535D01*
X45679465Y-96525120D01*
X45908273Y-96678005D01*
X46162510Y-96783314D01*
X46432408Y-96837000D01*
X46707592Y-96837000D01*
X46977490Y-96783314D01*
X47231727Y-96678005D01*
X47460535Y-96525120D01*
X47655120Y-96330535D01*
X47658818Y-96325000D01*
X52168330Y-96325000D01*
X52174188Y-96384482D01*
X52210498Y-96504180D01*
X52269463Y-96614494D01*
X52348815Y-96711185D01*
X52445506Y-96790537D01*
X52555820Y-96849502D01*
X52675518Y-96885812D01*
X52800000Y-96898072D01*
X54500000Y-96898072D01*
X54624482Y-96885812D01*
X54744180Y-96849502D01*
X54854494Y-96790537D01*
X54951185Y-96711185D01*
X55030537Y-96614494D01*
X55089502Y-96504180D01*
X55125812Y-96384482D01*
X55138072Y-96260000D01*
X55138072Y-94560000D01*
X55125812Y-94435518D01*
X55089502Y-94315820D01*
X55030537Y-94205506D01*
X54951185Y-94108815D01*
X54854494Y-94029463D01*
X54744180Y-93970498D01*
X54671620Y-93948487D01*
X54803475Y-93816632D01*
X54844656Y-93755000D01*
X56125000Y-93755000D01*
X56125001Y-97616521D01*
X56120719Y-97660000D01*
X56137805Y-97833490D01*
X56188412Y-98000313D01*
X56270590Y-98154059D01*
X56353468Y-98255046D01*
X56353471Y-98255049D01*
X56381184Y-98288817D01*
X56414952Y-98316530D01*
X56763466Y-98665044D01*
X56791183Y-98698817D01*
X56925941Y-98809411D01*
X57002814Y-98850500D01*
X57079686Y-98891589D01*
X57223144Y-98935107D01*
X57246510Y-98942195D01*
X57376523Y-98955000D01*
X57376531Y-98955000D01*
X57420000Y-98959281D01*
X57463469Y-98955000D01*
X64026531Y-98955000D01*
X64070000Y-98959281D01*
X64113469Y-98955000D01*
X64113477Y-98955000D01*
X64243490Y-98942195D01*
X64410313Y-98891589D01*
X64564059Y-98809411D01*
X64698817Y-98698817D01*
X64726534Y-98665044D01*
X65515050Y-97876529D01*
X65548817Y-97848817D01*
X65659411Y-97714059D01*
X65688306Y-97660000D01*
X65741589Y-97560314D01*
X65792195Y-97393490D01*
X65799420Y-97320128D01*
X65805000Y-97263477D01*
X65805000Y-97263469D01*
X65809281Y-97220000D01*
X65805000Y-97176531D01*
X65805000Y-96879872D01*
X92115000Y-96879872D01*
X92115000Y-97320128D01*
X92200890Y-97751925D01*
X92369369Y-98158669D01*
X92613962Y-98524729D01*
X92925271Y-98836038D01*
X93291331Y-99080631D01*
X93698075Y-99249110D01*
X94129872Y-99335000D01*
X94570128Y-99335000D01*
X95001925Y-99249110D01*
X95408669Y-99080631D01*
X95774729Y-98836038D01*
X96086038Y-98524729D01*
X96330631Y-98158669D01*
X96499110Y-97751925D01*
X96585000Y-97320128D01*
X96585000Y-96879872D01*
X96499110Y-96448075D01*
X96330631Y-96041331D01*
X96086038Y-95675271D01*
X95774729Y-95363962D01*
X95408669Y-95119369D01*
X95001925Y-94950890D01*
X94570128Y-94865000D01*
X94129872Y-94865000D01*
X93698075Y-94950890D01*
X93291331Y-95119369D01*
X92925271Y-95363962D01*
X92613962Y-95675271D01*
X92369369Y-96041331D01*
X92200890Y-96448075D01*
X92115000Y-96879872D01*
X65805000Y-96879872D01*
X65805000Y-88026891D01*
X67008519Y-88026891D01*
X67105843Y-88301252D01*
X67254822Y-88551355D01*
X67449731Y-88767588D01*
X67683080Y-88941641D01*
X67945901Y-89066825D01*
X68093110Y-89111476D01*
X68323000Y-88990155D01*
X68323000Y-87797000D01*
X67129186Y-87797000D01*
X67008519Y-88026891D01*
X65805000Y-88026891D01*
X65805000Y-87106578D01*
X66426579Y-86485000D01*
X67566922Y-86485000D01*
X67449731Y-86572412D01*
X67254822Y-86788645D01*
X67105843Y-87038748D01*
X67008519Y-87313109D01*
X67129186Y-87543000D01*
X68323000Y-87543000D01*
X68323000Y-87523000D01*
X68577000Y-87523000D01*
X68577000Y-87543000D01*
X68597000Y-87543000D01*
X68597000Y-87797000D01*
X68577000Y-87797000D01*
X68577000Y-88990155D01*
X68806890Y-89111476D01*
X68954099Y-89066825D01*
X69216920Y-88941641D01*
X69450269Y-88767588D01*
X69645178Y-88551355D01*
X69714805Y-88434466D01*
X69836525Y-88616632D01*
X70043368Y-88823475D01*
X70286589Y-88985990D01*
X70556842Y-89097932D01*
X70843740Y-89155000D01*
X71136260Y-89155000D01*
X71423158Y-89097932D01*
X71693411Y-88985990D01*
X71936632Y-88823475D01*
X72143475Y-88616632D01*
X72260000Y-88442240D01*
X72376525Y-88616632D01*
X72395000Y-88635107D01*
X72395001Y-92766767D01*
X72376614Y-92776595D01*
X72242038Y-92887038D01*
X72131595Y-93021614D01*
X72049528Y-93175150D01*
X71998992Y-93341746D01*
X71981928Y-93515000D01*
X71981928Y-94965000D01*
X71998992Y-95138254D01*
X72049528Y-95304850D01*
X72131595Y-95458386D01*
X72242038Y-95592962D01*
X72376614Y-95703405D01*
X72530150Y-95785472D01*
X72696746Y-95836008D01*
X72870000Y-95853072D01*
X74070000Y-95853072D01*
X74243254Y-95836008D01*
X74409850Y-95785472D01*
X74563386Y-95703405D01*
X74697962Y-95592962D01*
X74808405Y-95458386D01*
X74862777Y-95356663D01*
X74914866Y-95420134D01*
X75140987Y-95605706D01*
X75398967Y-95743599D01*
X75678890Y-95828513D01*
X75970000Y-95857185D01*
X76261111Y-95828513D01*
X76541034Y-95743599D01*
X76799014Y-95605706D01*
X77025134Y-95420134D01*
X77210706Y-95194014D01*
X77220000Y-95176626D01*
X77229294Y-95194014D01*
X77414866Y-95420134D01*
X77640987Y-95605706D01*
X77898967Y-95743599D01*
X78178890Y-95828513D01*
X78470000Y-95857185D01*
X78761111Y-95828513D01*
X79041034Y-95743599D01*
X79299014Y-95605706D01*
X79525134Y-95420134D01*
X79710706Y-95194014D01*
X79720000Y-95176626D01*
X79729294Y-95194014D01*
X79914866Y-95420134D01*
X80140987Y-95605706D01*
X80398967Y-95743599D01*
X80678890Y-95828513D01*
X80970000Y-95857185D01*
X81261111Y-95828513D01*
X81541034Y-95743599D01*
X81799014Y-95605706D01*
X82025134Y-95420134D01*
X82210706Y-95194014D01*
X82348599Y-94936033D01*
X82433513Y-94656110D01*
X82455000Y-94437949D01*
X82455000Y-94042050D01*
X82433513Y-93823889D01*
X82348599Y-93543966D01*
X82285000Y-93424980D01*
X82285000Y-88635107D01*
X82303475Y-88616632D01*
X82425195Y-88434466D01*
X82494822Y-88551355D01*
X82689731Y-88767588D01*
X82923080Y-88941641D01*
X83185901Y-89066825D01*
X83333110Y-89111476D01*
X83563000Y-88990155D01*
X83563000Y-87797000D01*
X83543000Y-87797000D01*
X83543000Y-87543000D01*
X83563000Y-87543000D01*
X83563000Y-86349845D01*
X83333110Y-86228524D01*
X83185901Y-86273175D01*
X82923080Y-86398359D01*
X82689731Y-86572412D01*
X82494822Y-86788645D01*
X82425195Y-86905534D01*
X82303475Y-86723368D01*
X82096632Y-86516525D01*
X81853411Y-86354010D01*
X81583158Y-86242068D01*
X81296260Y-86185000D01*
X81003740Y-86185000D01*
X80716842Y-86242068D01*
X80446589Y-86354010D01*
X80203368Y-86516525D01*
X79996525Y-86723368D01*
X79880000Y-86897760D01*
X79763475Y-86723368D01*
X79556632Y-86516525D01*
X79313411Y-86354010D01*
X79043158Y-86242068D01*
X78756260Y-86185000D01*
X78463740Y-86185000D01*
X78176842Y-86242068D01*
X77906589Y-86354010D01*
X77663368Y-86516525D01*
X77456525Y-86723368D01*
X77340000Y-86897760D01*
X77223475Y-86723368D01*
X77016632Y-86516525D01*
X76773411Y-86354010D01*
X76503158Y-86242068D01*
X76216260Y-86185000D01*
X75923740Y-86185000D01*
X75636842Y-86242068D01*
X75366589Y-86354010D01*
X75123368Y-86516525D01*
X74916525Y-86723368D01*
X74800000Y-86897760D01*
X74683475Y-86723368D01*
X74476632Y-86516525D01*
X74233411Y-86354010D01*
X73963158Y-86242068D01*
X73676260Y-86185000D01*
X73383740Y-86185000D01*
X73096842Y-86242068D01*
X72826589Y-86354010D01*
X72583368Y-86516525D01*
X72376525Y-86723368D01*
X72260000Y-86897760D01*
X72143475Y-86723368D01*
X71936632Y-86516525D01*
X71875000Y-86475344D01*
X71875000Y-85643476D01*
X71879282Y-85600000D01*
X71875000Y-85556523D01*
X71875000Y-83786578D01*
X73156579Y-82505000D01*
X84696531Y-82505000D01*
X84740000Y-82509281D01*
X84783469Y-82505000D01*
X84783477Y-82505000D01*
X84913490Y-82492195D01*
X85080313Y-82441589D01*
X85234059Y-82359411D01*
X85368817Y-82248817D01*
X85396534Y-82215044D01*
X86198507Y-81413072D01*
X86610001Y-81413072D01*
X86783255Y-81396008D01*
X86949851Y-81345472D01*
X87103387Y-81263405D01*
X87237962Y-81152962D01*
X87348405Y-81018387D01*
X87430472Y-80864851D01*
X87481008Y-80698255D01*
X87498072Y-80525001D01*
X87498072Y-79874999D01*
X87481008Y-79701745D01*
X87430472Y-79535149D01*
X87348405Y-79381613D01*
X87237962Y-79247038D01*
X87150184Y-79175000D01*
X87237962Y-79102962D01*
X87348405Y-78968387D01*
X87430472Y-78814851D01*
X87481008Y-78648255D01*
X87498072Y-78475001D01*
X87498072Y-77824999D01*
X87481008Y-77651745D01*
X87430472Y-77485149D01*
X87348405Y-77331613D01*
X87237962Y-77197038D01*
X87115000Y-77096126D01*
X87115000Y-76254625D01*
X87204482Y-76245812D01*
X87324180Y-76209502D01*
X87434494Y-76150537D01*
X87531185Y-76071185D01*
X87610537Y-75974494D01*
X87669502Y-75864180D01*
X87705812Y-75744482D01*
X87718072Y-75620000D01*
X87718072Y-73920000D01*
X87705812Y-73795518D01*
X87669502Y-73675820D01*
X87610537Y-73565506D01*
X87531185Y-73468815D01*
X87434494Y-73389463D01*
X87324180Y-73330498D01*
X87204482Y-73294188D01*
X87115000Y-73285375D01*
X87115000Y-72493466D01*
X87119281Y-72449999D01*
X87115000Y-72406533D01*
X87115000Y-72406523D01*
X87102195Y-72276510D01*
X87051589Y-72109687D01*
X86969411Y-71955941D01*
X86858817Y-71821183D01*
X86825050Y-71793471D01*
X85626534Y-70594956D01*
X85598817Y-70561183D01*
X85464059Y-70450589D01*
X85310313Y-70368411D01*
X85143490Y-70317805D01*
X85013477Y-70305000D01*
X85013469Y-70305000D01*
X84970000Y-70300719D01*
X84926531Y-70305000D01*
X74073737Y-70305000D01*
X74017962Y-70237038D01*
X73930184Y-70165000D01*
X74017962Y-70092962D01*
X74128405Y-69958387D01*
X74210472Y-69804851D01*
X74261008Y-69638255D01*
X74278072Y-69465001D01*
X74278072Y-68814999D01*
X74261008Y-68641745D01*
X74210472Y-68475149D01*
X74128405Y-68321613D01*
X74017962Y-68187038D01*
X73883387Y-68076595D01*
X73825000Y-68045386D01*
X73825000Y-61673469D01*
X73829281Y-61630000D01*
X73825000Y-61586531D01*
X73825000Y-61586523D01*
X73812195Y-61456510D01*
X73761589Y-61289687D01*
X73679411Y-61135941D01*
X73640312Y-61088299D01*
X73596532Y-61034953D01*
X73596530Y-61034951D01*
X73568817Y-61001183D01*
X73535050Y-60973471D01*
X71846534Y-59284956D01*
X71818817Y-59251183D01*
X71684059Y-59140589D01*
X71530313Y-59058411D01*
X71363490Y-59007805D01*
X71233477Y-58995000D01*
X71233469Y-58995000D01*
X71190000Y-58990719D01*
X71146531Y-58995000D01*
X62898818Y-58995000D01*
X62895120Y-58989465D01*
X62700535Y-58794880D01*
X62471727Y-58641995D01*
X62394485Y-58610000D01*
X62471727Y-58578005D01*
X62700535Y-58425120D01*
X62895120Y-58230535D01*
X63048005Y-58001727D01*
X63153314Y-57747490D01*
X63207000Y-57477592D01*
X63207000Y-57202408D01*
X63153314Y-56932510D01*
X63048005Y-56678273D01*
X62895120Y-56449465D01*
X62700535Y-56254880D01*
X62471727Y-56101995D01*
X62394485Y-56070000D01*
X62471727Y-56038005D01*
X62483707Y-56030000D01*
X76221928Y-56030000D01*
X76234188Y-56154482D01*
X76270498Y-56274180D01*
X76329463Y-56384494D01*
X76408815Y-56481185D01*
X76505506Y-56560537D01*
X76615820Y-56619502D01*
X76735518Y-56655812D01*
X76860000Y-56668072D01*
X77324250Y-56665000D01*
X77483000Y-56506250D01*
X77483000Y-54157000D01*
X77737000Y-54157000D01*
X77737000Y-56506250D01*
X77895750Y-56665000D01*
X78360000Y-56668072D01*
X78484482Y-56655812D01*
X78604180Y-56619502D01*
X78714494Y-56560537D01*
X78811185Y-56481185D01*
X78890537Y-56384494D01*
X78949502Y-56274180D01*
X78985812Y-56154482D01*
X78998072Y-56030000D01*
X78997176Y-55530000D01*
X79271928Y-55530000D01*
X79271928Y-57530000D01*
X79284188Y-57654482D01*
X79320498Y-57774180D01*
X79379463Y-57884494D01*
X79458815Y-57981185D01*
X79555506Y-58060537D01*
X79665820Y-58119502D01*
X79785518Y-58155812D01*
X79910000Y-58168072D01*
X81215001Y-58168072D01*
X81215000Y-61283855D01*
X81160498Y-61385820D01*
X81124188Y-61505518D01*
X81111928Y-61630000D01*
X81111928Y-63330000D01*
X81124188Y-63454482D01*
X81160498Y-63574180D01*
X81215001Y-63676145D01*
X81215001Y-64541961D01*
X81208300Y-64610000D01*
X81235040Y-64881507D01*
X81314236Y-65142580D01*
X81442844Y-65383188D01*
X81572548Y-65541233D01*
X81572551Y-65541236D01*
X81615920Y-65594081D01*
X81668764Y-65637449D01*
X89675000Y-73643686D01*
X89675001Y-81345000D01*
X89348026Y-81345000D01*
X89279999Y-81338300D01*
X89211972Y-81345000D01*
X89211963Y-81345000D01*
X89008493Y-81365040D01*
X88747419Y-81444236D01*
X88506812Y-81572843D01*
X88506810Y-81572844D01*
X88506811Y-81572844D01*
X88348766Y-81702548D01*
X88348764Y-81702550D01*
X88295919Y-81745919D01*
X88252550Y-81798764D01*
X88108766Y-81942548D01*
X85298764Y-84752551D01*
X85245920Y-84795919D01*
X85202551Y-84848764D01*
X85202548Y-84848767D01*
X85072844Y-85006812D01*
X84944236Y-85247420D01*
X84865040Y-85508493D01*
X84838300Y-85780000D01*
X84845001Y-85848039D01*
X84845001Y-86473854D01*
X84790498Y-86575820D01*
X84766034Y-86656466D01*
X84690269Y-86572412D01*
X84456920Y-86398359D01*
X84194099Y-86273175D01*
X84046890Y-86228524D01*
X83817000Y-86349845D01*
X83817000Y-87543000D01*
X83837000Y-87543000D01*
X83837000Y-87797000D01*
X83817000Y-87797000D01*
X83817000Y-88990155D01*
X84046890Y-89111476D01*
X84194099Y-89066825D01*
X84456920Y-88941641D01*
X84690269Y-88767588D01*
X84766034Y-88683534D01*
X84790498Y-88764180D01*
X84849463Y-88874494D01*
X84928815Y-88971185D01*
X85025506Y-89050537D01*
X85135820Y-89109502D01*
X85255518Y-89145812D01*
X85380000Y-89158072D01*
X87080000Y-89158072D01*
X87204482Y-89145812D01*
X87324180Y-89109502D01*
X87434494Y-89050537D01*
X87531185Y-88971185D01*
X87610537Y-88874494D01*
X87669502Y-88764180D01*
X87705812Y-88644482D01*
X87718072Y-88520000D01*
X87718072Y-86820000D01*
X87705812Y-86695518D01*
X87669502Y-86575820D01*
X87615000Y-86473856D01*
X87615000Y-86353685D01*
X88551093Y-85417592D01*
X89853686Y-84115000D01*
X90007397Y-84115000D01*
X90015820Y-84119502D01*
X90135518Y-84155812D01*
X90260000Y-84168072D01*
X91860000Y-84168072D01*
X91984482Y-84155812D01*
X92104180Y-84119502D01*
X92214494Y-84060537D01*
X92311185Y-83981185D01*
X92390537Y-83884494D01*
X92449502Y-83774180D01*
X92465117Y-83722702D01*
X95246903Y-83722702D01*
X95318486Y-83966671D01*
X95573996Y-84087571D01*
X95848184Y-84156300D01*
X96130512Y-84170217D01*
X96410130Y-84128787D01*
X96676292Y-84033603D01*
X96801514Y-83966671D01*
X96873097Y-83722702D01*
X96060000Y-82909605D01*
X95246903Y-83722702D01*
X92465117Y-83722702D01*
X92485812Y-83654482D01*
X92498072Y-83530000D01*
X92498072Y-82800512D01*
X94619783Y-82800512D01*
X94661213Y-83080130D01*
X94756397Y-83346292D01*
X94823329Y-83471514D01*
X95067298Y-83543097D01*
X95880395Y-82730000D01*
X96239605Y-82730000D01*
X97052702Y-83543097D01*
X97296671Y-83471514D01*
X97417571Y-83216004D01*
X97486300Y-82941816D01*
X97500217Y-82659488D01*
X97458787Y-82379870D01*
X97363603Y-82113708D01*
X97296671Y-81988486D01*
X97052702Y-81916903D01*
X96239605Y-82730000D01*
X95880395Y-82730000D01*
X95067298Y-81916903D01*
X94823329Y-81988486D01*
X94702429Y-82243996D01*
X94633700Y-82518184D01*
X94619783Y-82800512D01*
X92498072Y-82800512D01*
X92498072Y-81930000D01*
X92485812Y-81805518D01*
X92465118Y-81737298D01*
X95246903Y-81737298D01*
X96060000Y-82550395D01*
X96873097Y-81737298D01*
X96801514Y-81493329D01*
X96546004Y-81372429D01*
X96271816Y-81303700D01*
X95989488Y-81289783D01*
X95709870Y-81331213D01*
X95443708Y-81426397D01*
X95318486Y-81493329D01*
X95246903Y-81737298D01*
X92465118Y-81737298D01*
X92449502Y-81685820D01*
X92445000Y-81677397D01*
X92445000Y-73138029D01*
X92451700Y-73070000D01*
X92445000Y-73001971D01*
X92445000Y-73001963D01*
X92424960Y-72798493D01*
X92345764Y-72537419D01*
X92217157Y-72296812D01*
X92200496Y-72276511D01*
X92087452Y-72138766D01*
X92087445Y-72138759D01*
X92044080Y-72085919D01*
X91991241Y-72042555D01*
X90828686Y-70880000D01*
X94061928Y-70880000D01*
X94074188Y-71004482D01*
X94110498Y-71124180D01*
X94169463Y-71234494D01*
X94248815Y-71331185D01*
X94345506Y-71410537D01*
X94455820Y-71469502D01*
X94575518Y-71505812D01*
X94700000Y-71518072D01*
X95264250Y-71515000D01*
X95423000Y-71356250D01*
X95423000Y-70157000D01*
X95677000Y-70157000D01*
X95677000Y-71356250D01*
X95835750Y-71515000D01*
X96400000Y-71518072D01*
X96524482Y-71505812D01*
X96644180Y-71469502D01*
X96754494Y-71410537D01*
X96851185Y-71331185D01*
X96930537Y-71234494D01*
X96989502Y-71124180D01*
X97025812Y-71004482D01*
X97038072Y-70880000D01*
X97035000Y-70315750D01*
X96876250Y-70157000D01*
X95677000Y-70157000D01*
X95423000Y-70157000D01*
X94223750Y-70157000D01*
X94065000Y-70315750D01*
X94061928Y-70880000D01*
X90828686Y-70880000D01*
X89128686Y-69180000D01*
X94061928Y-69180000D01*
X94065000Y-69744250D01*
X94223750Y-69903000D01*
X95423000Y-69903000D01*
X95423000Y-68703750D01*
X95677000Y-68703750D01*
X95677000Y-69903000D01*
X96876250Y-69903000D01*
X97035000Y-69744250D01*
X97038072Y-69180000D01*
X97025812Y-69055518D01*
X96989502Y-68935820D01*
X96930537Y-68825506D01*
X96851185Y-68728815D01*
X96754494Y-68649463D01*
X96644180Y-68590498D01*
X96524482Y-68554188D01*
X96400000Y-68541928D01*
X95835750Y-68545000D01*
X95677000Y-68703750D01*
X95423000Y-68703750D01*
X95264250Y-68545000D01*
X94700000Y-68541928D01*
X94575518Y-68554188D01*
X94455820Y-68590498D01*
X94345506Y-68649463D01*
X94248815Y-68728815D01*
X94169463Y-68825506D01*
X94110498Y-68935820D01*
X94074188Y-69055518D01*
X94061928Y-69180000D01*
X89128686Y-69180000D01*
X83985000Y-64036315D01*
X83985000Y-63676144D01*
X84039502Y-63574180D01*
X84075812Y-63454482D01*
X84088072Y-63330000D01*
X84088072Y-61630000D01*
X84075812Y-61505518D01*
X84039502Y-61385820D01*
X83985000Y-61283856D01*
X83985000Y-59780000D01*
X94061928Y-59780000D01*
X94074188Y-59904482D01*
X94110498Y-60024180D01*
X94169463Y-60134494D01*
X94248815Y-60231185D01*
X94345506Y-60310537D01*
X94455820Y-60369502D01*
X94575518Y-60405812D01*
X94700000Y-60418072D01*
X95264250Y-60415000D01*
X95423000Y-60256250D01*
X95423000Y-59057000D01*
X95677000Y-59057000D01*
X95677000Y-60256250D01*
X95835750Y-60415000D01*
X96400000Y-60418072D01*
X96524482Y-60405812D01*
X96644180Y-60369502D01*
X96754494Y-60310537D01*
X96851185Y-60231185D01*
X96930537Y-60134494D01*
X96989502Y-60024180D01*
X97025812Y-59904482D01*
X97038072Y-59780000D01*
X97035000Y-59215750D01*
X96876250Y-59057000D01*
X95677000Y-59057000D01*
X95423000Y-59057000D01*
X94223750Y-59057000D01*
X94065000Y-59215750D01*
X94061928Y-59780000D01*
X83985000Y-59780000D01*
X83985000Y-58168072D01*
X84910000Y-58168072D01*
X85034482Y-58155812D01*
X85154180Y-58119502D01*
X85228081Y-58080000D01*
X94061928Y-58080000D01*
X94065000Y-58644250D01*
X94223750Y-58803000D01*
X95423000Y-58803000D01*
X95423000Y-57603750D01*
X95677000Y-57603750D01*
X95677000Y-58803000D01*
X96876250Y-58803000D01*
X97035000Y-58644250D01*
X97038072Y-58080000D01*
X97025812Y-57955518D01*
X96989502Y-57835820D01*
X96930537Y-57725506D01*
X96851185Y-57628815D01*
X96754494Y-57549463D01*
X96644180Y-57490498D01*
X96524482Y-57454188D01*
X96400000Y-57441928D01*
X95835750Y-57445000D01*
X95677000Y-57603750D01*
X95423000Y-57603750D01*
X95264250Y-57445000D01*
X94700000Y-57441928D01*
X94575518Y-57454188D01*
X94455820Y-57490498D01*
X94345506Y-57549463D01*
X94248815Y-57628815D01*
X94169463Y-57725506D01*
X94110498Y-57835820D01*
X94074188Y-57955518D01*
X94061928Y-58080000D01*
X85228081Y-58080000D01*
X85264494Y-58060537D01*
X85361185Y-57981185D01*
X85440537Y-57884494D01*
X85499502Y-57774180D01*
X85535812Y-57654482D01*
X85548072Y-57530000D01*
X85548072Y-55530000D01*
X85535812Y-55405518D01*
X85499502Y-55285820D01*
X85440537Y-55175506D01*
X85361185Y-55078815D01*
X85264494Y-54999463D01*
X85154180Y-54940498D01*
X85034482Y-54904188D01*
X84910000Y-54891928D01*
X79910000Y-54891928D01*
X79785518Y-54904188D01*
X79665820Y-54940498D01*
X79555506Y-54999463D01*
X79458815Y-55078815D01*
X79379463Y-55175506D01*
X79320498Y-55285820D01*
X79284188Y-55405518D01*
X79271928Y-55530000D01*
X78997176Y-55530000D01*
X78995000Y-54315750D01*
X78836250Y-54157000D01*
X77737000Y-54157000D01*
X77483000Y-54157000D01*
X76383750Y-54157000D01*
X76225000Y-54315750D01*
X76221928Y-56030000D01*
X62483707Y-56030000D01*
X62700535Y-55885120D01*
X62895120Y-55690535D01*
X63048005Y-55461727D01*
X63153314Y-55207490D01*
X63207000Y-54937592D01*
X63207000Y-54662408D01*
X63153314Y-54392510D01*
X63048005Y-54138273D01*
X62895120Y-53909465D01*
X62700535Y-53714880D01*
X62471727Y-53561995D01*
X62394485Y-53530000D01*
X62471727Y-53498005D01*
X62700535Y-53345120D01*
X62895120Y-53150535D01*
X63048005Y-52921727D01*
X63153314Y-52667490D01*
X63207000Y-52397592D01*
X63207000Y-52122408D01*
X63188619Y-52030000D01*
X76221928Y-52030000D01*
X76225000Y-53744250D01*
X76383750Y-53903000D01*
X77483000Y-53903000D01*
X77483000Y-51553750D01*
X77737000Y-51553750D01*
X77737000Y-53903000D01*
X78836250Y-53903000D01*
X78995000Y-53744250D01*
X78998072Y-52030000D01*
X78985812Y-51905518D01*
X78949502Y-51785820D01*
X78890537Y-51675506D01*
X78811185Y-51578815D01*
X78751704Y-51530000D01*
X79271928Y-51530000D01*
X79284188Y-51654482D01*
X79320498Y-51774180D01*
X79379463Y-51884494D01*
X79458815Y-51981185D01*
X79555506Y-52060537D01*
X79665820Y-52119502D01*
X79785518Y-52155812D01*
X79910000Y-52168072D01*
X82124250Y-52165000D01*
X82283000Y-52006250D01*
X82283000Y-50657000D01*
X82537000Y-50657000D01*
X82537000Y-52006250D01*
X82695750Y-52165000D01*
X84910000Y-52168072D01*
X85034482Y-52155812D01*
X85154180Y-52119502D01*
X85264494Y-52060537D01*
X85361185Y-51981185D01*
X85440537Y-51884494D01*
X85499502Y-51774180D01*
X85535812Y-51654482D01*
X85548072Y-51530000D01*
X85545000Y-50815750D01*
X85386250Y-50657000D01*
X82537000Y-50657000D01*
X82283000Y-50657000D01*
X79433750Y-50657000D01*
X79275000Y-50815750D01*
X79271928Y-51530000D01*
X78751704Y-51530000D01*
X78714494Y-51499463D01*
X78604180Y-51440498D01*
X78484482Y-51404188D01*
X78360000Y-51391928D01*
X77895750Y-51395000D01*
X77737000Y-51553750D01*
X77483000Y-51553750D01*
X77324250Y-51395000D01*
X76860000Y-51391928D01*
X76735518Y-51404188D01*
X76615820Y-51440498D01*
X76505506Y-51499463D01*
X76408815Y-51578815D01*
X76329463Y-51675506D01*
X76270498Y-51785820D01*
X76234188Y-51905518D01*
X76221928Y-52030000D01*
X63188619Y-52030000D01*
X63153314Y-51852510D01*
X63048005Y-51598273D01*
X62895120Y-51369465D01*
X62700535Y-51174880D01*
X62471727Y-51021995D01*
X62400057Y-50992308D01*
X62413023Y-50987636D01*
X62528980Y-50925656D01*
X62595960Y-50685565D01*
X61810000Y-49899605D01*
X61024040Y-50685565D01*
X61091020Y-50925656D01*
X61226760Y-50989485D01*
X61148273Y-51021995D01*
X60919465Y-51174880D01*
X60724880Y-51369465D01*
X60571995Y-51598273D01*
X60466686Y-51852510D01*
X60413000Y-52122408D01*
X60413000Y-52397592D01*
X60466686Y-52667490D01*
X60571995Y-52921727D01*
X60724880Y-53150535D01*
X60919465Y-53345120D01*
X61148273Y-53498005D01*
X61225515Y-53530000D01*
X61148273Y-53561995D01*
X60919465Y-53714880D01*
X60724880Y-53909465D01*
X60571995Y-54138273D01*
X60466686Y-54392510D01*
X60413000Y-54662408D01*
X60413000Y-54937592D01*
X60466686Y-55207490D01*
X60571995Y-55461727D01*
X60724880Y-55690535D01*
X60919465Y-55885120D01*
X61148273Y-56038005D01*
X61225515Y-56070000D01*
X61148273Y-56101995D01*
X60919465Y-56254880D01*
X60724880Y-56449465D01*
X60571995Y-56678273D01*
X60466686Y-56932510D01*
X60413000Y-57202408D01*
X60413000Y-57477592D01*
X60466686Y-57747490D01*
X60571995Y-58001727D01*
X60724880Y-58230535D01*
X60919465Y-58425120D01*
X61148273Y-58578005D01*
X61225515Y-58610000D01*
X61148273Y-58641995D01*
X60919465Y-58794880D01*
X60724880Y-58989465D01*
X60571995Y-59218273D01*
X60466686Y-59472510D01*
X60413000Y-59742408D01*
X60413000Y-60017592D01*
X60466686Y-60287490D01*
X60571995Y-60541727D01*
X60724880Y-60770535D01*
X60919465Y-60965120D01*
X61148273Y-61118005D01*
X61225515Y-61150000D01*
X61148273Y-61181995D01*
X60919465Y-61334880D01*
X60724880Y-61529465D01*
X60571995Y-61758273D01*
X60466686Y-62012510D01*
X60413000Y-62282408D01*
X60413000Y-62557592D01*
X60466686Y-62827490D01*
X60571995Y-63081727D01*
X60724880Y-63310535D01*
X60919465Y-63505120D01*
X61148273Y-63658005D01*
X61225515Y-63690000D01*
X61148273Y-63721995D01*
X60919465Y-63874880D01*
X60724880Y-64069465D01*
X60571995Y-64298273D01*
X60466686Y-64552510D01*
X60413000Y-64822408D01*
X60413000Y-65097592D01*
X60466686Y-65367490D01*
X60571995Y-65621727D01*
X60724880Y-65850535D01*
X60919465Y-66045120D01*
X61148273Y-66198005D01*
X61225515Y-66230000D01*
X61148273Y-66261995D01*
X60919465Y-66414880D01*
X60724880Y-66609465D01*
X60571995Y-66838273D01*
X60466686Y-67092510D01*
X60413000Y-67362408D01*
X60413000Y-67637592D01*
X60466686Y-67907490D01*
X60571995Y-68161727D01*
X60724880Y-68390535D01*
X60919465Y-68585120D01*
X61148273Y-68738005D01*
X61225515Y-68770000D01*
X61148273Y-68801995D01*
X60919465Y-68954880D01*
X60724880Y-69149465D01*
X60571995Y-69378273D01*
X60466686Y-69632510D01*
X60413000Y-69902408D01*
X60413000Y-70177592D01*
X60466686Y-70447490D01*
X60571995Y-70701727D01*
X60724880Y-70930535D01*
X60919465Y-71125120D01*
X61148273Y-71278005D01*
X61225515Y-71310000D01*
X61148273Y-71341995D01*
X60919465Y-71494880D01*
X60724880Y-71689465D01*
X60571995Y-71918273D01*
X60466686Y-72172510D01*
X60413000Y-72442408D01*
X60413000Y-72717592D01*
X60466686Y-72987490D01*
X60571995Y-73241727D01*
X60724880Y-73470535D01*
X60919465Y-73665120D01*
X61148273Y-73818005D01*
X61225515Y-73850000D01*
X61148273Y-73881995D01*
X60919465Y-74034880D01*
X60724880Y-74229465D01*
X60571995Y-74458273D01*
X60466686Y-74712510D01*
X60413000Y-74982408D01*
X60413000Y-75257592D01*
X60466686Y-75527490D01*
X60571995Y-75781727D01*
X60724880Y-76010535D01*
X60919465Y-76205120D01*
X61148273Y-76358005D01*
X61225515Y-76390000D01*
X61148273Y-76421995D01*
X60919465Y-76574880D01*
X60724880Y-76769465D01*
X60571995Y-76998273D01*
X60466686Y-77252510D01*
X60413000Y-77522408D01*
X60413000Y-77797592D01*
X60466686Y-78067490D01*
X60571995Y-78321727D01*
X60724880Y-78550535D01*
X60919465Y-78745120D01*
X61148273Y-78898005D01*
X61225515Y-78930000D01*
X61148273Y-78961995D01*
X60919465Y-79114880D01*
X60724880Y-79309465D01*
X60571995Y-79538273D01*
X60466686Y-79792510D01*
X60413000Y-80062408D01*
X60413000Y-80337592D01*
X60466686Y-80607490D01*
X60571995Y-80861727D01*
X60724880Y-81090535D01*
X60919465Y-81285120D01*
X61148273Y-81438005D01*
X61225515Y-81470000D01*
X61148273Y-81501995D01*
X60919465Y-81654880D01*
X60724880Y-81849465D01*
X60571995Y-82078273D01*
X60466686Y-82332510D01*
X60413000Y-82602408D01*
X60413000Y-82877592D01*
X60466686Y-83147490D01*
X60571995Y-83401727D01*
X60724880Y-83630535D01*
X60919465Y-83825120D01*
X61148273Y-83978005D01*
X61225515Y-84010000D01*
X61148273Y-84041995D01*
X60919465Y-84194880D01*
X60724880Y-84389465D01*
X60571995Y-84618273D01*
X60466686Y-84872510D01*
X60413000Y-85142408D01*
X60413000Y-85417592D01*
X60466686Y-85687490D01*
X60571995Y-85941727D01*
X60724880Y-86170535D01*
X60919465Y-86365120D01*
X61148273Y-86518005D01*
X61225515Y-86550000D01*
X61148273Y-86581995D01*
X60919465Y-86734880D01*
X60724880Y-86929465D01*
X60571995Y-87158273D01*
X60466686Y-87412510D01*
X60413000Y-87682408D01*
X60413000Y-87957592D01*
X60466686Y-88227490D01*
X60571995Y-88481727D01*
X60724880Y-88710535D01*
X60919465Y-88905120D01*
X61148273Y-89058005D01*
X61225515Y-89090000D01*
X61148273Y-89121995D01*
X60919465Y-89274880D01*
X60724880Y-89469465D01*
X60571995Y-89698273D01*
X60466686Y-89952510D01*
X60413000Y-90222408D01*
X60413000Y-90497592D01*
X60466686Y-90767490D01*
X60571995Y-91021727D01*
X60724880Y-91250535D01*
X60919465Y-91445120D01*
X61148273Y-91598005D01*
X61225515Y-91630000D01*
X61148273Y-91661995D01*
X60919465Y-91814880D01*
X60724880Y-92009465D01*
X60571995Y-92238273D01*
X60466686Y-92492510D01*
X60413000Y-92762408D01*
X60413000Y-93037592D01*
X60466686Y-93307490D01*
X60571995Y-93561727D01*
X60724880Y-93790535D01*
X60919465Y-93985120D01*
X61148273Y-94138005D01*
X61225515Y-94170000D01*
X61148273Y-94201995D01*
X60919465Y-94354880D01*
X60724880Y-94549465D01*
X60571995Y-94778273D01*
X60466686Y-95032510D01*
X60413000Y-95302408D01*
X60413000Y-95577592D01*
X60466686Y-95847490D01*
X60571995Y-96101727D01*
X60724880Y-96330535D01*
X60919465Y-96525120D01*
X61148273Y-96678005D01*
X61402510Y-96783314D01*
X61672408Y-96837000D01*
X61947592Y-96837000D01*
X62217490Y-96783314D01*
X62471727Y-96678005D01*
X62700535Y-96525120D01*
X62895120Y-96330535D01*
X63048005Y-96101727D01*
X63153314Y-95847490D01*
X63207000Y-95577592D01*
X63207000Y-95302408D01*
X63153314Y-95032510D01*
X63048005Y-94778273D01*
X62895120Y-94549465D01*
X62700535Y-94354880D01*
X62471727Y-94201995D01*
X62394485Y-94170000D01*
X62471727Y-94138005D01*
X62700535Y-93985120D01*
X62895120Y-93790535D01*
X63048005Y-93561727D01*
X63153314Y-93307490D01*
X63207000Y-93037592D01*
X63207000Y-92762408D01*
X63153314Y-92492510D01*
X63048005Y-92238273D01*
X62895120Y-92009465D01*
X62700535Y-91814880D01*
X62471727Y-91661995D01*
X62394485Y-91630000D01*
X62471727Y-91598005D01*
X62700535Y-91445120D01*
X62895120Y-91250535D01*
X63048005Y-91021727D01*
X63153314Y-90767490D01*
X63207000Y-90497592D01*
X63207000Y-90222408D01*
X63153314Y-89952510D01*
X63048005Y-89698273D01*
X62895120Y-89469465D01*
X62700535Y-89274880D01*
X62471727Y-89121995D01*
X62394485Y-89090000D01*
X62471727Y-89058005D01*
X62700535Y-88905120D01*
X62895120Y-88710535D01*
X63048005Y-88481727D01*
X63153314Y-88227490D01*
X63207000Y-87957592D01*
X63207000Y-87682408D01*
X63153314Y-87412510D01*
X63048005Y-87158273D01*
X62895120Y-86929465D01*
X62700535Y-86734880D01*
X62471727Y-86581995D01*
X62394485Y-86550000D01*
X62471727Y-86518005D01*
X62700535Y-86365120D01*
X62895120Y-86170535D01*
X62898818Y-86165000D01*
X64247017Y-86165000D01*
X64180590Y-86245941D01*
X64098412Y-86399687D01*
X64047805Y-86566510D01*
X64030719Y-86740000D01*
X64035001Y-86783479D01*
X64035000Y-96853421D01*
X63703422Y-97185000D01*
X57895000Y-97185000D01*
X57895000Y-93413469D01*
X57899281Y-93370000D01*
X57895000Y-93326531D01*
X57895000Y-93326523D01*
X57882195Y-93196510D01*
X57831589Y-93029687D01*
X57749411Y-92875941D01*
X57638817Y-92741183D01*
X57605045Y-92713467D01*
X57166534Y-92274956D01*
X57138817Y-92241183D01*
X57004059Y-92130589D01*
X56850313Y-92048411D01*
X56683490Y-91997805D01*
X56553477Y-91985000D01*
X56553469Y-91985000D01*
X56510000Y-91980719D01*
X56466531Y-91985000D01*
X54844656Y-91985000D01*
X54803475Y-91923368D01*
X54596632Y-91716525D01*
X54422240Y-91600000D01*
X54596632Y-91483475D01*
X54803475Y-91276632D01*
X54965990Y-91033411D01*
X55077932Y-90763158D01*
X55135000Y-90476260D01*
X55135000Y-90183740D01*
X55077932Y-89896842D01*
X54965990Y-89626589D01*
X54803475Y-89383368D01*
X54596632Y-89176525D01*
X54353411Y-89014010D01*
X54083158Y-88902068D01*
X53796260Y-88845000D01*
X53503740Y-88845000D01*
X53216842Y-88902068D01*
X52946589Y-89014010D01*
X52703368Y-89176525D01*
X52496525Y-89383368D01*
X52435298Y-89475000D01*
X47658818Y-89475000D01*
X47655120Y-89469465D01*
X47460535Y-89274880D01*
X47231727Y-89121995D01*
X47154485Y-89090000D01*
X47231727Y-89058005D01*
X47460535Y-88905120D01*
X47655120Y-88710535D01*
X47808005Y-88481727D01*
X47913314Y-88227490D01*
X47967000Y-87957592D01*
X47967000Y-87682408D01*
X47913314Y-87412510D01*
X47808005Y-87158273D01*
X47655120Y-86929465D01*
X47460535Y-86734880D01*
X47231727Y-86581995D01*
X47154485Y-86550000D01*
X47231727Y-86518005D01*
X47460535Y-86365120D01*
X47655120Y-86170535D01*
X47808005Y-85941727D01*
X47913314Y-85687490D01*
X47967000Y-85417592D01*
X47967000Y-85142408D01*
X47913314Y-84872510D01*
X47808005Y-84618273D01*
X47655120Y-84389465D01*
X47460535Y-84194880D01*
X47231727Y-84041995D01*
X47154485Y-84010000D01*
X47231727Y-83978005D01*
X47460535Y-83825120D01*
X47655120Y-83630535D01*
X47808005Y-83401727D01*
X47913314Y-83147490D01*
X47967000Y-82877592D01*
X47967000Y-82759872D01*
X51955000Y-82759872D01*
X51955000Y-83200128D01*
X52040890Y-83631925D01*
X52209369Y-84038669D01*
X52453962Y-84404729D01*
X52765271Y-84716038D01*
X53131331Y-84960631D01*
X53538075Y-85129110D01*
X53969872Y-85215000D01*
X54410128Y-85215000D01*
X54841925Y-85129110D01*
X55248669Y-84960631D01*
X55614729Y-84716038D01*
X55926038Y-84404729D01*
X56170631Y-84038669D01*
X56339110Y-83631925D01*
X56425000Y-83200128D01*
X56425000Y-82759872D01*
X56339110Y-82328075D01*
X56170631Y-81921331D01*
X55926038Y-81555271D01*
X55614729Y-81243962D01*
X55248669Y-80999369D01*
X54841925Y-80830890D01*
X54410128Y-80745000D01*
X53969872Y-80745000D01*
X53538075Y-80830890D01*
X53131331Y-80999369D01*
X52765271Y-81243962D01*
X52453962Y-81555271D01*
X52209369Y-81921331D01*
X52040890Y-82328075D01*
X51955000Y-82759872D01*
X47967000Y-82759872D01*
X47967000Y-82602408D01*
X47913314Y-82332510D01*
X47808005Y-82078273D01*
X47655120Y-81849465D01*
X47460535Y-81654880D01*
X47231727Y-81501995D01*
X47154485Y-81470000D01*
X47231727Y-81438005D01*
X47460535Y-81285120D01*
X47655120Y-81090535D01*
X47808005Y-80861727D01*
X47913314Y-80607490D01*
X47967000Y-80337592D01*
X47967000Y-80062408D01*
X47913314Y-79792510D01*
X47808005Y-79538273D01*
X47655120Y-79309465D01*
X47460535Y-79114880D01*
X47231727Y-78961995D01*
X47154485Y-78930000D01*
X47231727Y-78898005D01*
X47460535Y-78745120D01*
X47655120Y-78550535D01*
X47808005Y-78321727D01*
X47913314Y-78067490D01*
X47967000Y-77797592D01*
X47967000Y-77522408D01*
X47913314Y-77252510D01*
X47808005Y-76998273D01*
X47655120Y-76769465D01*
X47460535Y-76574880D01*
X47231727Y-76421995D01*
X47154485Y-76390000D01*
X47231727Y-76358005D01*
X47460535Y-76205120D01*
X47655120Y-76010535D01*
X47808005Y-75781727D01*
X47913314Y-75527490D01*
X47967000Y-75257592D01*
X47967000Y-74982408D01*
X47913314Y-74712510D01*
X47808005Y-74458273D01*
X47655120Y-74229465D01*
X47460535Y-74034880D01*
X47231727Y-73881995D01*
X47154485Y-73850000D01*
X47231727Y-73818005D01*
X47460535Y-73665120D01*
X47655120Y-73470535D01*
X47808005Y-73241727D01*
X47913314Y-72987490D01*
X47967000Y-72717592D01*
X47967000Y-72442408D01*
X47913314Y-72172510D01*
X47808005Y-71918273D01*
X47655120Y-71689465D01*
X47460535Y-71494880D01*
X47231727Y-71341995D01*
X47154485Y-71310000D01*
X47231727Y-71278005D01*
X47460535Y-71125120D01*
X47655120Y-70930535D01*
X47808005Y-70701727D01*
X47913314Y-70447490D01*
X47967000Y-70177592D01*
X47967000Y-69902408D01*
X47913314Y-69632510D01*
X47808005Y-69378273D01*
X47655120Y-69149465D01*
X47460535Y-68954880D01*
X47231727Y-68801995D01*
X47154485Y-68770000D01*
X47231727Y-68738005D01*
X47460535Y-68585120D01*
X47655120Y-68390535D01*
X47808005Y-68161727D01*
X47913314Y-67907490D01*
X47967000Y-67637592D01*
X47967000Y-67362408D01*
X47913314Y-67092510D01*
X47808005Y-66838273D01*
X47655120Y-66609465D01*
X47460535Y-66414880D01*
X47231727Y-66261995D01*
X47154485Y-66230000D01*
X47231727Y-66198005D01*
X47460535Y-66045120D01*
X47655120Y-65850535D01*
X47808005Y-65621727D01*
X47913314Y-65367490D01*
X47967000Y-65097592D01*
X47967000Y-64822408D01*
X47913314Y-64552510D01*
X47808005Y-64298273D01*
X47655120Y-64069465D01*
X47460535Y-63874880D01*
X47231727Y-63721995D01*
X47154485Y-63690000D01*
X47231727Y-63658005D01*
X47460535Y-63505120D01*
X47655120Y-63310535D01*
X47808005Y-63081727D01*
X47913314Y-62827490D01*
X47967000Y-62557592D01*
X47967000Y-62282408D01*
X47913314Y-62012510D01*
X47808005Y-61758273D01*
X47655120Y-61529465D01*
X47460535Y-61334880D01*
X47231727Y-61181995D01*
X47154485Y-61150000D01*
X47231727Y-61118005D01*
X47460535Y-60965120D01*
X47655120Y-60770535D01*
X47808005Y-60541727D01*
X47913314Y-60287490D01*
X47967000Y-60017592D01*
X47967000Y-59742408D01*
X47913314Y-59472510D01*
X47808005Y-59218273D01*
X47655120Y-58989465D01*
X47460535Y-58794880D01*
X47231727Y-58641995D01*
X47154485Y-58610000D01*
X47231727Y-58578005D01*
X47460535Y-58425120D01*
X47655120Y-58230535D01*
X47808005Y-58001727D01*
X47913314Y-57747490D01*
X47967000Y-57477592D01*
X47967000Y-57202408D01*
X47913314Y-56932510D01*
X47808005Y-56678273D01*
X47655120Y-56449465D01*
X47460535Y-56254880D01*
X47231727Y-56101995D01*
X47154485Y-56070000D01*
X47231727Y-56038005D01*
X47460535Y-55885120D01*
X47655120Y-55690535D01*
X47808005Y-55461727D01*
X47913314Y-55207490D01*
X47967000Y-54937592D01*
X47967000Y-54662408D01*
X47913314Y-54392510D01*
X47808005Y-54138273D01*
X47655120Y-53909465D01*
X47460535Y-53714880D01*
X47231727Y-53561995D01*
X47154485Y-53530000D01*
X47231727Y-53498005D01*
X47460535Y-53345120D01*
X47655120Y-53150535D01*
X47808005Y-52921727D01*
X47913314Y-52667490D01*
X47967000Y-52397592D01*
X47967000Y-52122408D01*
X47913314Y-51852510D01*
X47808005Y-51598273D01*
X47655120Y-51369465D01*
X47460535Y-51174880D01*
X47231727Y-51021995D01*
X47154485Y-50990000D01*
X47231727Y-50958005D01*
X47460535Y-50805120D01*
X47655120Y-50610535D01*
X47808005Y-50381727D01*
X47913314Y-50127490D01*
X47967000Y-49857592D01*
X47967000Y-49792017D01*
X60408090Y-49792017D01*
X60449078Y-50064133D01*
X60542364Y-50323023D01*
X60604344Y-50438980D01*
X60844435Y-50505960D01*
X61630395Y-49720000D01*
X61989605Y-49720000D01*
X62775565Y-50505960D01*
X63015656Y-50438980D01*
X63132756Y-50189952D01*
X63199023Y-49922865D01*
X63211910Y-49647983D01*
X63194139Y-49530000D01*
X79271928Y-49530000D01*
X79275000Y-50244250D01*
X79433750Y-50403000D01*
X82283000Y-50403000D01*
X82283000Y-49053750D01*
X82537000Y-49053750D01*
X82537000Y-50403000D01*
X85386250Y-50403000D01*
X85545000Y-50244250D01*
X85548072Y-49530000D01*
X85535812Y-49405518D01*
X85499502Y-49285820D01*
X85440537Y-49175506D01*
X85361185Y-49078815D01*
X85264494Y-48999463D01*
X85154180Y-48940498D01*
X85034482Y-48904188D01*
X84910000Y-48891928D01*
X82695750Y-48895000D01*
X82537000Y-49053750D01*
X82283000Y-49053750D01*
X82124250Y-48895000D01*
X79910000Y-48891928D01*
X79785518Y-48904188D01*
X79665820Y-48940498D01*
X79555506Y-48999463D01*
X79458815Y-49078815D01*
X79379463Y-49175506D01*
X79320498Y-49285820D01*
X79284188Y-49405518D01*
X79271928Y-49530000D01*
X63194139Y-49530000D01*
X63170922Y-49375867D01*
X63077636Y-49116977D01*
X63015656Y-49001020D01*
X62775565Y-48934040D01*
X61989605Y-49720000D01*
X61630395Y-49720000D01*
X60844435Y-48934040D01*
X60604344Y-49001020D01*
X60487244Y-49250048D01*
X60420977Y-49517135D01*
X60408090Y-49792017D01*
X47967000Y-49792017D01*
X47967000Y-49582408D01*
X47913314Y-49312510D01*
X47808005Y-49058273D01*
X47655120Y-48829465D01*
X47460535Y-48634880D01*
X47231727Y-48481995D01*
X47154485Y-48450000D01*
X47231727Y-48418005D01*
X47460535Y-48265120D01*
X47655120Y-48070535D01*
X47808005Y-47841727D01*
X47913314Y-47587490D01*
X47967000Y-47317592D01*
X47967000Y-47069872D01*
X52075000Y-47069872D01*
X52075000Y-47510128D01*
X52160890Y-47941925D01*
X52329369Y-48348669D01*
X52573962Y-48714729D01*
X52885271Y-49026038D01*
X53251331Y-49270631D01*
X53658075Y-49439110D01*
X54089872Y-49525000D01*
X54530128Y-49525000D01*
X54961925Y-49439110D01*
X55368669Y-49270631D01*
X55734729Y-49026038D01*
X56046038Y-48714729D01*
X56290631Y-48348669D01*
X56374759Y-48145565D01*
X61024040Y-48145565D01*
X61091020Y-48385656D01*
X61221644Y-48447079D01*
X61206977Y-48452364D01*
X61091020Y-48514344D01*
X61024040Y-48754435D01*
X61810000Y-49540395D01*
X62595960Y-48754435D01*
X62528980Y-48514344D01*
X62398356Y-48452921D01*
X62413023Y-48447636D01*
X62528980Y-48385656D01*
X62595960Y-48145565D01*
X61810000Y-47359605D01*
X61024040Y-48145565D01*
X56374759Y-48145565D01*
X56459110Y-47941925D01*
X56545000Y-47510128D01*
X56545000Y-47252017D01*
X60408090Y-47252017D01*
X60449078Y-47524133D01*
X60542364Y-47783023D01*
X60604344Y-47898980D01*
X60844435Y-47965960D01*
X61630395Y-47180000D01*
X61989605Y-47180000D01*
X62775565Y-47965960D01*
X63015656Y-47898980D01*
X63132756Y-47649952D01*
X63199023Y-47382865D01*
X63211910Y-47107983D01*
X63170922Y-46835867D01*
X63077636Y-46576977D01*
X63015656Y-46461020D01*
X62939851Y-46439872D01*
X92115000Y-46439872D01*
X92115000Y-46880128D01*
X92200890Y-47311925D01*
X92369369Y-47718669D01*
X92613962Y-48084729D01*
X92925271Y-48396038D01*
X93291331Y-48640631D01*
X93698075Y-48809110D01*
X94129872Y-48895000D01*
X94570128Y-48895000D01*
X95001925Y-48809110D01*
X95408669Y-48640631D01*
X95774729Y-48396038D01*
X96086038Y-48084729D01*
X96330631Y-47718669D01*
X96499110Y-47311925D01*
X96585000Y-46880128D01*
X96585000Y-46439872D01*
X96499110Y-46008075D01*
X96330631Y-45601331D01*
X96086038Y-45235271D01*
X95774729Y-44923962D01*
X95408669Y-44679369D01*
X95001925Y-44510890D01*
X94570128Y-44425000D01*
X94129872Y-44425000D01*
X93698075Y-44510890D01*
X93291331Y-44679369D01*
X92925271Y-44923962D01*
X92613962Y-45235271D01*
X92369369Y-45601331D01*
X92200890Y-46008075D01*
X92115000Y-46439872D01*
X62939851Y-46439872D01*
X62775565Y-46394040D01*
X61989605Y-47180000D01*
X61630395Y-47180000D01*
X60844435Y-46394040D01*
X60604344Y-46461020D01*
X60487244Y-46710048D01*
X60420977Y-46977135D01*
X60408090Y-47252017D01*
X56545000Y-47252017D01*
X56545000Y-47069872D01*
X56459110Y-46638075D01*
X56290631Y-46231331D01*
X56279342Y-46214435D01*
X61024040Y-46214435D01*
X61810000Y-47000395D01*
X62595960Y-46214435D01*
X62528980Y-45974344D01*
X62279952Y-45857244D01*
X62012865Y-45790977D01*
X61737983Y-45778090D01*
X61465867Y-45819078D01*
X61206977Y-45912364D01*
X61091020Y-45974344D01*
X61024040Y-46214435D01*
X56279342Y-46214435D01*
X56046038Y-45865271D01*
X55734729Y-45553962D01*
X55368669Y-45309369D01*
X54961925Y-45140890D01*
X54530128Y-45055000D01*
X54089872Y-45055000D01*
X53658075Y-45140890D01*
X53251331Y-45309369D01*
X52885271Y-45553962D01*
X52573962Y-45865271D01*
X52329369Y-46231331D01*
X52160890Y-46638075D01*
X52075000Y-47069872D01*
X47967000Y-47069872D01*
X47967000Y-47042408D01*
X47913314Y-46772510D01*
X47808005Y-46518273D01*
X47655120Y-46289465D01*
X47460535Y-46094880D01*
X47231727Y-45941995D01*
X46977490Y-45836686D01*
X46707592Y-45783000D01*
X46432408Y-45783000D01*
X46162510Y-45836686D01*
X45908273Y-45941995D01*
X45679465Y-46094880D01*
X45484880Y-46289465D01*
X45331995Y-46518273D01*
X45226686Y-46772510D01*
X45173000Y-47042408D01*
X43240000Y-47042408D01*
X43240000Y-44362277D01*
X43259102Y-44167460D01*
X43306308Y-44011106D01*
X43382982Y-43866904D01*
X43486207Y-43740337D01*
X43612051Y-43636231D01*
X43755711Y-43558553D01*
X43911729Y-43510258D01*
X44104473Y-43490000D01*
X96767723Y-43490000D01*
X96962540Y-43509102D01*
%TA.AperFunction,Conductor*%
D23*
G36*
X96962540Y-43509102D02*
G01*
X97118894Y-43556308D01*
X97263096Y-43632982D01*
X97389663Y-43736207D01*
X97493769Y-43862051D01*
X97571447Y-44005711D01*
X97619742Y-44161729D01*
X97640001Y-44354482D01*
X97640000Y-99487723D01*
X97620898Y-99682540D01*
X97573692Y-99838895D01*
X97497018Y-99983096D01*
X97393792Y-100109664D01*
X97267951Y-100213768D01*
X97124289Y-100291447D01*
X96968271Y-100339742D01*
X96775527Y-100360000D01*
X44112277Y-100360000D01*
X43917460Y-100340898D01*
X43761105Y-100293692D01*
X43616904Y-100217018D01*
X43490336Y-100113792D01*
X43386232Y-99987951D01*
X43308553Y-99844289D01*
X43260258Y-99688271D01*
X43240000Y-99495527D01*
X43240000Y-92972017D01*
X45168090Y-92972017D01*
X45209078Y-93244133D01*
X45302364Y-93503023D01*
X45364344Y-93618980D01*
X45604435Y-93685960D01*
X46390395Y-92900000D01*
X46749605Y-92900000D01*
X47535565Y-93685960D01*
X47775656Y-93618980D01*
X47892756Y-93369952D01*
X47959023Y-93102865D01*
X47971910Y-92827983D01*
X47930922Y-92555867D01*
X47837636Y-92296977D01*
X47775656Y-92181020D01*
X47535565Y-92114040D01*
X46749605Y-92900000D01*
X46390395Y-92900000D01*
X45604435Y-92114040D01*
X45364344Y-92181020D01*
X45247244Y-92430048D01*
X45180977Y-92697135D01*
X45168090Y-92972017D01*
X43240000Y-92972017D01*
X43240000Y-47042408D01*
X45173000Y-47042408D01*
X45173000Y-47317592D01*
X45226686Y-47587490D01*
X45331995Y-47841727D01*
X45484880Y-48070535D01*
X45679465Y-48265120D01*
X45908273Y-48418005D01*
X45985515Y-48450000D01*
X45908273Y-48481995D01*
X45679465Y-48634880D01*
X45484880Y-48829465D01*
X45331995Y-49058273D01*
X45226686Y-49312510D01*
X45173000Y-49582408D01*
X45173000Y-49857592D01*
X45226686Y-50127490D01*
X45331995Y-50381727D01*
X45484880Y-50610535D01*
X45679465Y-50805120D01*
X45908273Y-50958005D01*
X45985515Y-50990000D01*
X45908273Y-51021995D01*
X45679465Y-51174880D01*
X45484880Y-51369465D01*
X45331995Y-51598273D01*
X45226686Y-51852510D01*
X45173000Y-52122408D01*
X45173000Y-52397592D01*
X45226686Y-52667490D01*
X45331995Y-52921727D01*
X45484880Y-53150535D01*
X45679465Y-53345120D01*
X45908273Y-53498005D01*
X45985515Y-53530000D01*
X45908273Y-53561995D01*
X45679465Y-53714880D01*
X45484880Y-53909465D01*
X45331995Y-54138273D01*
X45226686Y-54392510D01*
X45173000Y-54662408D01*
X45173000Y-54937592D01*
X45226686Y-55207490D01*
X45331995Y-55461727D01*
X45484880Y-55690535D01*
X45679465Y-55885120D01*
X45908273Y-56038005D01*
X45985515Y-56070000D01*
X45908273Y-56101995D01*
X45679465Y-56254880D01*
X45484880Y-56449465D01*
X45331995Y-56678273D01*
X45226686Y-56932510D01*
X45173000Y-57202408D01*
X45173000Y-57477592D01*
X45226686Y-57747490D01*
X45331995Y-58001727D01*
X45484880Y-58230535D01*
X45679465Y-58425120D01*
X45908273Y-58578005D01*
X45985515Y-58610000D01*
X45908273Y-58641995D01*
X45679465Y-58794880D01*
X45484880Y-58989465D01*
X45331995Y-59218273D01*
X45226686Y-59472510D01*
X45173000Y-59742408D01*
X45173000Y-60017592D01*
X45226686Y-60287490D01*
X45331995Y-60541727D01*
X45484880Y-60770535D01*
X45679465Y-60965120D01*
X45908273Y-61118005D01*
X45985515Y-61150000D01*
X45908273Y-61181995D01*
X45679465Y-61334880D01*
X45484880Y-61529465D01*
X45331995Y-61758273D01*
X45226686Y-62012510D01*
X45173000Y-62282408D01*
X45173000Y-62557592D01*
X45226686Y-62827490D01*
X45331995Y-63081727D01*
X45484880Y-63310535D01*
X45679465Y-63505120D01*
X45908273Y-63658005D01*
X45985515Y-63690000D01*
X45908273Y-63721995D01*
X45679465Y-63874880D01*
X45484880Y-64069465D01*
X45331995Y-64298273D01*
X45226686Y-64552510D01*
X45173000Y-64822408D01*
X45173000Y-65097592D01*
X45226686Y-65367490D01*
X45331995Y-65621727D01*
X45484880Y-65850535D01*
X45679465Y-66045120D01*
X45908273Y-66198005D01*
X45985515Y-66230000D01*
X45908273Y-66261995D01*
X45679465Y-66414880D01*
X45484880Y-66609465D01*
X45331995Y-66838273D01*
X45226686Y-67092510D01*
X45173000Y-67362408D01*
X45173000Y-67637592D01*
X45226686Y-67907490D01*
X45331995Y-68161727D01*
X45484880Y-68390535D01*
X45679465Y-68585120D01*
X45908273Y-68738005D01*
X45985515Y-68770000D01*
X45908273Y-68801995D01*
X45679465Y-68954880D01*
X45484880Y-69149465D01*
X45331995Y-69378273D01*
X45226686Y-69632510D01*
X45173000Y-69902408D01*
X45173000Y-70177592D01*
X45226686Y-70447490D01*
X45331995Y-70701727D01*
X45484880Y-70930535D01*
X45679465Y-71125120D01*
X45908273Y-71278005D01*
X45985515Y-71310000D01*
X45908273Y-71341995D01*
X45679465Y-71494880D01*
X45484880Y-71689465D01*
X45331995Y-71918273D01*
X45226686Y-72172510D01*
X45173000Y-72442408D01*
X45173000Y-72717592D01*
X45226686Y-72987490D01*
X45331995Y-73241727D01*
X45484880Y-73470535D01*
X45679465Y-73665120D01*
X45908273Y-73818005D01*
X45985515Y-73850000D01*
X45908273Y-73881995D01*
X45679465Y-74034880D01*
X45484880Y-74229465D01*
X45331995Y-74458273D01*
X45226686Y-74712510D01*
X45173000Y-74982408D01*
X45173000Y-75257592D01*
X45226686Y-75527490D01*
X45331995Y-75781727D01*
X45484880Y-76010535D01*
X45679465Y-76205120D01*
X45908273Y-76358005D01*
X45985515Y-76390000D01*
X45908273Y-76421995D01*
X45679465Y-76574880D01*
X45484880Y-76769465D01*
X45331995Y-76998273D01*
X45226686Y-77252510D01*
X45173000Y-77522408D01*
X45173000Y-77797592D01*
X45226686Y-78067490D01*
X45331995Y-78321727D01*
X45484880Y-78550535D01*
X45679465Y-78745120D01*
X45908273Y-78898005D01*
X45985515Y-78930000D01*
X45908273Y-78961995D01*
X45679465Y-79114880D01*
X45484880Y-79309465D01*
X45331995Y-79538273D01*
X45226686Y-79792510D01*
X45173000Y-80062408D01*
X45173000Y-80337592D01*
X45226686Y-80607490D01*
X45331995Y-80861727D01*
X45484880Y-81090535D01*
X45679465Y-81285120D01*
X45908273Y-81438005D01*
X45985515Y-81470000D01*
X45908273Y-81501995D01*
X45679465Y-81654880D01*
X45484880Y-81849465D01*
X45331995Y-82078273D01*
X45226686Y-82332510D01*
X45173000Y-82602408D01*
X45173000Y-82877592D01*
X45226686Y-83147490D01*
X45331995Y-83401727D01*
X45484880Y-83630535D01*
X45679465Y-83825120D01*
X45908273Y-83978005D01*
X45985515Y-84010000D01*
X45908273Y-84041995D01*
X45679465Y-84194880D01*
X45484880Y-84389465D01*
X45331995Y-84618273D01*
X45226686Y-84872510D01*
X45173000Y-85142408D01*
X45173000Y-85417592D01*
X45226686Y-85687490D01*
X45331995Y-85941727D01*
X45484880Y-86170535D01*
X45679465Y-86365120D01*
X45908273Y-86518005D01*
X45985515Y-86550000D01*
X45908273Y-86581995D01*
X45679465Y-86734880D01*
X45484880Y-86929465D01*
X45331995Y-87158273D01*
X45226686Y-87412510D01*
X45173000Y-87682408D01*
X45173000Y-87957592D01*
X45226686Y-88227490D01*
X45331995Y-88481727D01*
X45484880Y-88710535D01*
X45679465Y-88905120D01*
X45908273Y-89058005D01*
X45985515Y-89090000D01*
X45908273Y-89121995D01*
X45679465Y-89274880D01*
X45484880Y-89469465D01*
X45331995Y-89698273D01*
X45226686Y-89952510D01*
X45173000Y-90222408D01*
X45173000Y-90497592D01*
X45226686Y-90767490D01*
X45331995Y-91021727D01*
X45484880Y-91250535D01*
X45679465Y-91445120D01*
X45908273Y-91598005D01*
X45979943Y-91627692D01*
X45966977Y-91632364D01*
X45851020Y-91694344D01*
X45784040Y-91934435D01*
X46570000Y-92720395D01*
X47355960Y-91934435D01*
X47288980Y-91694344D01*
X47153240Y-91630515D01*
X47231727Y-91598005D01*
X47460535Y-91445120D01*
X47655120Y-91250535D01*
X47658818Y-91245000D01*
X52475389Y-91245000D01*
X52496525Y-91276632D01*
X52703368Y-91483475D01*
X52877760Y-91600000D01*
X52703368Y-91716525D01*
X52496525Y-91923368D01*
X52334010Y-92166589D01*
X52222068Y-92436842D01*
X52165000Y-92723740D01*
X52165000Y-93016260D01*
X52222068Y-93303158D01*
X52334010Y-93573411D01*
X52496525Y-93816632D01*
X52628380Y-93948487D01*
X52555820Y-93970498D01*
X52445506Y-94029463D01*
X52348815Y-94108815D01*
X52269463Y-94205506D01*
X52210498Y-94315820D01*
X52174188Y-94435518D01*
X52162420Y-94555000D01*
X47658818Y-94555000D01*
X47655120Y-94549465D01*
X47460535Y-94354880D01*
X47231727Y-94201995D01*
X47160057Y-94172308D01*
X47173023Y-94167636D01*
X47288980Y-94105656D01*
X47355960Y-93865565D01*
X46570000Y-93079605D01*
X45784040Y-93865565D01*
X45851020Y-94105656D01*
X45986760Y-94169485D01*
X45908273Y-94201995D01*
X45679465Y-94354880D01*
X45484880Y-94549465D01*
X45331995Y-94778273D01*
X45226686Y-95032510D01*
X45173000Y-95302408D01*
X45173000Y-95577592D01*
X45226686Y-95847490D01*
X45331995Y-96101727D01*
X45484880Y-96330535D01*
X45679465Y-96525120D01*
X45908273Y-96678005D01*
X46162510Y-96783314D01*
X46432408Y-96837000D01*
X46707592Y-96837000D01*
X46977490Y-96783314D01*
X47231727Y-96678005D01*
X47460535Y-96525120D01*
X47655120Y-96330535D01*
X47658818Y-96325000D01*
X52168330Y-96325000D01*
X52174188Y-96384482D01*
X52210498Y-96504180D01*
X52269463Y-96614494D01*
X52348815Y-96711185D01*
X52445506Y-96790537D01*
X52555820Y-96849502D01*
X52675518Y-96885812D01*
X52800000Y-96898072D01*
X54500000Y-96898072D01*
X54624482Y-96885812D01*
X54744180Y-96849502D01*
X54854494Y-96790537D01*
X54951185Y-96711185D01*
X55030537Y-96614494D01*
X55089502Y-96504180D01*
X55125812Y-96384482D01*
X55138072Y-96260000D01*
X55138072Y-94560000D01*
X55125812Y-94435518D01*
X55089502Y-94315820D01*
X55030537Y-94205506D01*
X54951185Y-94108815D01*
X54854494Y-94029463D01*
X54744180Y-93970498D01*
X54671620Y-93948487D01*
X54803475Y-93816632D01*
X54844656Y-93755000D01*
X56125000Y-93755000D01*
X56125001Y-97616521D01*
X56120719Y-97660000D01*
X56137805Y-97833490D01*
X56188412Y-98000313D01*
X56270590Y-98154059D01*
X56353468Y-98255046D01*
X56353471Y-98255049D01*
X56381184Y-98288817D01*
X56414952Y-98316530D01*
X56763466Y-98665044D01*
X56791183Y-98698817D01*
X56925941Y-98809411D01*
X57002814Y-98850500D01*
X57079686Y-98891589D01*
X57223144Y-98935107D01*
X57246510Y-98942195D01*
X57376523Y-98955000D01*
X57376531Y-98955000D01*
X57420000Y-98959281D01*
X57463469Y-98955000D01*
X64026531Y-98955000D01*
X64070000Y-98959281D01*
X64113469Y-98955000D01*
X64113477Y-98955000D01*
X64243490Y-98942195D01*
X64410313Y-98891589D01*
X64564059Y-98809411D01*
X64698817Y-98698817D01*
X64726534Y-98665044D01*
X65515050Y-97876529D01*
X65548817Y-97848817D01*
X65659411Y-97714059D01*
X65688306Y-97660000D01*
X65741589Y-97560314D01*
X65792195Y-97393490D01*
X65799420Y-97320128D01*
X65805000Y-97263477D01*
X65805000Y-97263469D01*
X65809281Y-97220000D01*
X65805000Y-97176531D01*
X65805000Y-96879872D01*
X92115000Y-96879872D01*
X92115000Y-97320128D01*
X92200890Y-97751925D01*
X92369369Y-98158669D01*
X92613962Y-98524729D01*
X92925271Y-98836038D01*
X93291331Y-99080631D01*
X93698075Y-99249110D01*
X94129872Y-99335000D01*
X94570128Y-99335000D01*
X95001925Y-99249110D01*
X95408669Y-99080631D01*
X95774729Y-98836038D01*
X96086038Y-98524729D01*
X96330631Y-98158669D01*
X96499110Y-97751925D01*
X96585000Y-97320128D01*
X96585000Y-96879872D01*
X96499110Y-96448075D01*
X96330631Y-96041331D01*
X96086038Y-95675271D01*
X95774729Y-95363962D01*
X95408669Y-95119369D01*
X95001925Y-94950890D01*
X94570128Y-94865000D01*
X94129872Y-94865000D01*
X93698075Y-94950890D01*
X93291331Y-95119369D01*
X92925271Y-95363962D01*
X92613962Y-95675271D01*
X92369369Y-96041331D01*
X92200890Y-96448075D01*
X92115000Y-96879872D01*
X65805000Y-96879872D01*
X65805000Y-88026891D01*
X67008519Y-88026891D01*
X67105843Y-88301252D01*
X67254822Y-88551355D01*
X67449731Y-88767588D01*
X67683080Y-88941641D01*
X67945901Y-89066825D01*
X68093110Y-89111476D01*
X68323000Y-88990155D01*
X68323000Y-87797000D01*
X67129186Y-87797000D01*
X67008519Y-88026891D01*
X65805000Y-88026891D01*
X65805000Y-87106578D01*
X66426579Y-86485000D01*
X67566922Y-86485000D01*
X67449731Y-86572412D01*
X67254822Y-86788645D01*
X67105843Y-87038748D01*
X67008519Y-87313109D01*
X67129186Y-87543000D01*
X68323000Y-87543000D01*
X68323000Y-87523000D01*
X68577000Y-87523000D01*
X68577000Y-87543000D01*
X68597000Y-87543000D01*
X68597000Y-87797000D01*
X68577000Y-87797000D01*
X68577000Y-88990155D01*
X68806890Y-89111476D01*
X68954099Y-89066825D01*
X69216920Y-88941641D01*
X69450269Y-88767588D01*
X69645178Y-88551355D01*
X69714805Y-88434466D01*
X69836525Y-88616632D01*
X70043368Y-88823475D01*
X70286589Y-88985990D01*
X70556842Y-89097932D01*
X70843740Y-89155000D01*
X71136260Y-89155000D01*
X71423158Y-89097932D01*
X71693411Y-88985990D01*
X71936632Y-88823475D01*
X72143475Y-88616632D01*
X72260000Y-88442240D01*
X72376525Y-88616632D01*
X72395000Y-88635107D01*
X72395001Y-92766767D01*
X72376614Y-92776595D01*
X72242038Y-92887038D01*
X72131595Y-93021614D01*
X72049528Y-93175150D01*
X71998992Y-93341746D01*
X71981928Y-93515000D01*
X71981928Y-94965000D01*
X71998992Y-95138254D01*
X72049528Y-95304850D01*
X72131595Y-95458386D01*
X72242038Y-95592962D01*
X72376614Y-95703405D01*
X72530150Y-95785472D01*
X72696746Y-95836008D01*
X72870000Y-95853072D01*
X74070000Y-95853072D01*
X74243254Y-95836008D01*
X74409850Y-95785472D01*
X74563386Y-95703405D01*
X74697962Y-95592962D01*
X74808405Y-95458386D01*
X74862777Y-95356663D01*
X74914866Y-95420134D01*
X75140987Y-95605706D01*
X75398967Y-95743599D01*
X75678890Y-95828513D01*
X75970000Y-95857185D01*
X76261111Y-95828513D01*
X76541034Y-95743599D01*
X76799014Y-95605706D01*
X77025134Y-95420134D01*
X77210706Y-95194014D01*
X77220000Y-95176626D01*
X77229294Y-95194014D01*
X77414866Y-95420134D01*
X77640987Y-95605706D01*
X77898967Y-95743599D01*
X78178890Y-95828513D01*
X78470000Y-95857185D01*
X78761111Y-95828513D01*
X79041034Y-95743599D01*
X79299014Y-95605706D01*
X79525134Y-95420134D01*
X79710706Y-95194014D01*
X79720000Y-95176626D01*
X79729294Y-95194014D01*
X79914866Y-95420134D01*
X80140987Y-95605706D01*
X80398967Y-95743599D01*
X80678890Y-95828513D01*
X80970000Y-95857185D01*
X81261111Y-95828513D01*
X81541034Y-95743599D01*
X81799014Y-95605706D01*
X82025134Y-95420134D01*
X82210706Y-95194014D01*
X82348599Y-94936033D01*
X82433513Y-94656110D01*
X82455000Y-94437949D01*
X82455000Y-94042050D01*
X82433513Y-93823889D01*
X82348599Y-93543966D01*
X82285000Y-93424980D01*
X82285000Y-88635107D01*
X82303475Y-88616632D01*
X82425195Y-88434466D01*
X82494822Y-88551355D01*
X82689731Y-88767588D01*
X82923080Y-88941641D01*
X83185901Y-89066825D01*
X83333110Y-89111476D01*
X83563000Y-88990155D01*
X83563000Y-87797000D01*
X83543000Y-87797000D01*
X83543000Y-87543000D01*
X83563000Y-87543000D01*
X83563000Y-86349845D01*
X83333110Y-86228524D01*
X83185901Y-86273175D01*
X82923080Y-86398359D01*
X82689731Y-86572412D01*
X82494822Y-86788645D01*
X82425195Y-86905534D01*
X82303475Y-86723368D01*
X82096632Y-86516525D01*
X81853411Y-86354010D01*
X81583158Y-86242068D01*
X81296260Y-86185000D01*
X81003740Y-86185000D01*
X80716842Y-86242068D01*
X80446589Y-86354010D01*
X80203368Y-86516525D01*
X79996525Y-86723368D01*
X79880000Y-86897760D01*
X79763475Y-86723368D01*
X79556632Y-86516525D01*
X79313411Y-86354010D01*
X79043158Y-86242068D01*
X78756260Y-86185000D01*
X78463740Y-86185000D01*
X78176842Y-86242068D01*
X77906589Y-86354010D01*
X77663368Y-86516525D01*
X77456525Y-86723368D01*
X77340000Y-86897760D01*
X77223475Y-86723368D01*
X77016632Y-86516525D01*
X76773411Y-86354010D01*
X76503158Y-86242068D01*
X76216260Y-86185000D01*
X75923740Y-86185000D01*
X75636842Y-86242068D01*
X75366589Y-86354010D01*
X75123368Y-86516525D01*
X74916525Y-86723368D01*
X74800000Y-86897760D01*
X74683475Y-86723368D01*
X74476632Y-86516525D01*
X74233411Y-86354010D01*
X73963158Y-86242068D01*
X73676260Y-86185000D01*
X73383740Y-86185000D01*
X73096842Y-86242068D01*
X72826589Y-86354010D01*
X72583368Y-86516525D01*
X72376525Y-86723368D01*
X72260000Y-86897760D01*
X72143475Y-86723368D01*
X71936632Y-86516525D01*
X71875000Y-86475344D01*
X71875000Y-85643476D01*
X71879282Y-85600000D01*
X71875000Y-85556523D01*
X71875000Y-83786578D01*
X73156579Y-82505000D01*
X84696531Y-82505000D01*
X84740000Y-82509281D01*
X84783469Y-82505000D01*
X84783477Y-82505000D01*
X84913490Y-82492195D01*
X85080313Y-82441589D01*
X85234059Y-82359411D01*
X85368817Y-82248817D01*
X85396534Y-82215044D01*
X86198507Y-81413072D01*
X86610001Y-81413072D01*
X86783255Y-81396008D01*
X86949851Y-81345472D01*
X87103387Y-81263405D01*
X87237962Y-81152962D01*
X87348405Y-81018387D01*
X87430472Y-80864851D01*
X87481008Y-80698255D01*
X87498072Y-80525001D01*
X87498072Y-79874999D01*
X87481008Y-79701745D01*
X87430472Y-79535149D01*
X87348405Y-79381613D01*
X87237962Y-79247038D01*
X87150184Y-79175000D01*
X87237962Y-79102962D01*
X87348405Y-78968387D01*
X87430472Y-78814851D01*
X87481008Y-78648255D01*
X87498072Y-78475001D01*
X87498072Y-77824999D01*
X87481008Y-77651745D01*
X87430472Y-77485149D01*
X87348405Y-77331613D01*
X87237962Y-77197038D01*
X87115000Y-77096126D01*
X87115000Y-76254625D01*
X87204482Y-76245812D01*
X87324180Y-76209502D01*
X87434494Y-76150537D01*
X87531185Y-76071185D01*
X87610537Y-75974494D01*
X87669502Y-75864180D01*
X87705812Y-75744482D01*
X87718072Y-75620000D01*
X87718072Y-73920000D01*
X87705812Y-73795518D01*
X87669502Y-73675820D01*
X87610537Y-73565506D01*
X87531185Y-73468815D01*
X87434494Y-73389463D01*
X87324180Y-73330498D01*
X87204482Y-73294188D01*
X87115000Y-73285375D01*
X87115000Y-72493466D01*
X87119281Y-72449999D01*
X87115000Y-72406533D01*
X87115000Y-72406523D01*
X87102195Y-72276510D01*
X87051589Y-72109687D01*
X86969411Y-71955941D01*
X86858817Y-71821183D01*
X86825050Y-71793471D01*
X85626534Y-70594956D01*
X85598817Y-70561183D01*
X85464059Y-70450589D01*
X85310313Y-70368411D01*
X85143490Y-70317805D01*
X85013477Y-70305000D01*
X85013469Y-70305000D01*
X84970000Y-70300719D01*
X84926531Y-70305000D01*
X74073737Y-70305000D01*
X74017962Y-70237038D01*
X73930184Y-70165000D01*
X74017962Y-70092962D01*
X74128405Y-69958387D01*
X74210472Y-69804851D01*
X74261008Y-69638255D01*
X74278072Y-69465001D01*
X74278072Y-68814999D01*
X74261008Y-68641745D01*
X74210472Y-68475149D01*
X74128405Y-68321613D01*
X74017962Y-68187038D01*
X73883387Y-68076595D01*
X73825000Y-68045386D01*
X73825000Y-61673469D01*
X73829281Y-61630000D01*
X73825000Y-61586531D01*
X73825000Y-61586523D01*
X73812195Y-61456510D01*
X73761589Y-61289687D01*
X73679411Y-61135941D01*
X73640312Y-61088299D01*
X73596532Y-61034953D01*
X73596530Y-61034951D01*
X73568817Y-61001183D01*
X73535050Y-60973471D01*
X71846534Y-59284956D01*
X71818817Y-59251183D01*
X71684059Y-59140589D01*
X71530313Y-59058411D01*
X71363490Y-59007805D01*
X71233477Y-58995000D01*
X71233469Y-58995000D01*
X71190000Y-58990719D01*
X71146531Y-58995000D01*
X62898818Y-58995000D01*
X62895120Y-58989465D01*
X62700535Y-58794880D01*
X62471727Y-58641995D01*
X62394485Y-58610000D01*
X62471727Y-58578005D01*
X62700535Y-58425120D01*
X62895120Y-58230535D01*
X63048005Y-58001727D01*
X63153314Y-57747490D01*
X63207000Y-57477592D01*
X63207000Y-57202408D01*
X63153314Y-56932510D01*
X63048005Y-56678273D01*
X62895120Y-56449465D01*
X62700535Y-56254880D01*
X62471727Y-56101995D01*
X62394485Y-56070000D01*
X62471727Y-56038005D01*
X62483707Y-56030000D01*
X76221928Y-56030000D01*
X76234188Y-56154482D01*
X76270498Y-56274180D01*
X76329463Y-56384494D01*
X76408815Y-56481185D01*
X76505506Y-56560537D01*
X76615820Y-56619502D01*
X76735518Y-56655812D01*
X76860000Y-56668072D01*
X77324250Y-56665000D01*
X77483000Y-56506250D01*
X77483000Y-54157000D01*
X77737000Y-54157000D01*
X77737000Y-56506250D01*
X77895750Y-56665000D01*
X78360000Y-56668072D01*
X78484482Y-56655812D01*
X78604180Y-56619502D01*
X78714494Y-56560537D01*
X78811185Y-56481185D01*
X78890537Y-56384494D01*
X78949502Y-56274180D01*
X78985812Y-56154482D01*
X78998072Y-56030000D01*
X78997176Y-55530000D01*
X79271928Y-55530000D01*
X79271928Y-57530000D01*
X79284188Y-57654482D01*
X79320498Y-57774180D01*
X79379463Y-57884494D01*
X79458815Y-57981185D01*
X79555506Y-58060537D01*
X79665820Y-58119502D01*
X79785518Y-58155812D01*
X79910000Y-58168072D01*
X81215001Y-58168072D01*
X81215000Y-61283855D01*
X81160498Y-61385820D01*
X81124188Y-61505518D01*
X81111928Y-61630000D01*
X81111928Y-63330000D01*
X81124188Y-63454482D01*
X81160498Y-63574180D01*
X81215001Y-63676145D01*
X81215001Y-64541961D01*
X81208300Y-64610000D01*
X81235040Y-64881507D01*
X81314236Y-65142580D01*
X81442844Y-65383188D01*
X81572548Y-65541233D01*
X81572551Y-65541236D01*
X81615920Y-65594081D01*
X81668764Y-65637449D01*
X89675000Y-73643686D01*
X89675001Y-81345000D01*
X89348026Y-81345000D01*
X89279999Y-81338300D01*
X89211972Y-81345000D01*
X89211963Y-81345000D01*
X89008493Y-81365040D01*
X88747419Y-81444236D01*
X88506812Y-81572843D01*
X88506810Y-81572844D01*
X88506811Y-81572844D01*
X88348766Y-81702548D01*
X88348764Y-81702550D01*
X88295919Y-81745919D01*
X88252550Y-81798764D01*
X88108766Y-81942548D01*
X85298764Y-84752551D01*
X85245920Y-84795919D01*
X85202551Y-84848764D01*
X85202548Y-84848767D01*
X85072844Y-85006812D01*
X84944236Y-85247420D01*
X84865040Y-85508493D01*
X84838300Y-85780000D01*
X84845001Y-85848039D01*
X84845001Y-86473854D01*
X84790498Y-86575820D01*
X84766034Y-86656466D01*
X84690269Y-86572412D01*
X84456920Y-86398359D01*
X84194099Y-86273175D01*
X84046890Y-86228524D01*
X83817000Y-86349845D01*
X83817000Y-87543000D01*
X83837000Y-87543000D01*
X83837000Y-87797000D01*
X83817000Y-87797000D01*
X83817000Y-88990155D01*
X84046890Y-89111476D01*
X84194099Y-89066825D01*
X84456920Y-88941641D01*
X84690269Y-88767588D01*
X84766034Y-88683534D01*
X84790498Y-88764180D01*
X84849463Y-88874494D01*
X84928815Y-88971185D01*
X85025506Y-89050537D01*
X85135820Y-89109502D01*
X85255518Y-89145812D01*
X85380000Y-89158072D01*
X87080000Y-89158072D01*
X87204482Y-89145812D01*
X87324180Y-89109502D01*
X87434494Y-89050537D01*
X87531185Y-88971185D01*
X87610537Y-88874494D01*
X87669502Y-88764180D01*
X87705812Y-88644482D01*
X87718072Y-88520000D01*
X87718072Y-86820000D01*
X87705812Y-86695518D01*
X87669502Y-86575820D01*
X87615000Y-86473856D01*
X87615000Y-86353685D01*
X88551093Y-85417592D01*
X89853686Y-84115000D01*
X90007397Y-84115000D01*
X90015820Y-84119502D01*
X90135518Y-84155812D01*
X90260000Y-84168072D01*
X91860000Y-84168072D01*
X91984482Y-84155812D01*
X92104180Y-84119502D01*
X92214494Y-84060537D01*
X92311185Y-83981185D01*
X92390537Y-83884494D01*
X92449502Y-83774180D01*
X92465117Y-83722702D01*
X95246903Y-83722702D01*
X95318486Y-83966671D01*
X95573996Y-84087571D01*
X95848184Y-84156300D01*
X96130512Y-84170217D01*
X96410130Y-84128787D01*
X96676292Y-84033603D01*
X96801514Y-83966671D01*
X96873097Y-83722702D01*
X96060000Y-82909605D01*
X95246903Y-83722702D01*
X92465117Y-83722702D01*
X92485812Y-83654482D01*
X92498072Y-83530000D01*
X92498072Y-82800512D01*
X94619783Y-82800512D01*
X94661213Y-83080130D01*
X94756397Y-83346292D01*
X94823329Y-83471514D01*
X95067298Y-83543097D01*
X95880395Y-82730000D01*
X96239605Y-82730000D01*
X97052702Y-83543097D01*
X97296671Y-83471514D01*
X97417571Y-83216004D01*
X97486300Y-82941816D01*
X97500217Y-82659488D01*
X97458787Y-82379870D01*
X97363603Y-82113708D01*
X97296671Y-81988486D01*
X97052702Y-81916903D01*
X96239605Y-82730000D01*
X95880395Y-82730000D01*
X95067298Y-81916903D01*
X94823329Y-81988486D01*
X94702429Y-82243996D01*
X94633700Y-82518184D01*
X94619783Y-82800512D01*
X92498072Y-82800512D01*
X92498072Y-81930000D01*
X92485812Y-81805518D01*
X92465118Y-81737298D01*
X95246903Y-81737298D01*
X96060000Y-82550395D01*
X96873097Y-81737298D01*
X96801514Y-81493329D01*
X96546004Y-81372429D01*
X96271816Y-81303700D01*
X95989488Y-81289783D01*
X95709870Y-81331213D01*
X95443708Y-81426397D01*
X95318486Y-81493329D01*
X95246903Y-81737298D01*
X92465118Y-81737298D01*
X92449502Y-81685820D01*
X92445000Y-81677397D01*
X92445000Y-73138029D01*
X92451700Y-73070000D01*
X92445000Y-73001971D01*
X92445000Y-73001963D01*
X92424960Y-72798493D01*
X92345764Y-72537419D01*
X92217157Y-72296812D01*
X92200496Y-72276511D01*
X92087452Y-72138766D01*
X92087445Y-72138759D01*
X92044080Y-72085919D01*
X91991241Y-72042555D01*
X90828686Y-70880000D01*
X94061928Y-70880000D01*
X94074188Y-71004482D01*
X94110498Y-71124180D01*
X94169463Y-71234494D01*
X94248815Y-71331185D01*
X94345506Y-71410537D01*
X94455820Y-71469502D01*
X94575518Y-71505812D01*
X94700000Y-71518072D01*
X95264250Y-71515000D01*
X95423000Y-71356250D01*
X95423000Y-70157000D01*
X95677000Y-70157000D01*
X95677000Y-71356250D01*
X95835750Y-71515000D01*
X96400000Y-71518072D01*
X96524482Y-71505812D01*
X96644180Y-71469502D01*
X96754494Y-71410537D01*
X96851185Y-71331185D01*
X96930537Y-71234494D01*
X96989502Y-71124180D01*
X97025812Y-71004482D01*
X97038072Y-70880000D01*
X97035000Y-70315750D01*
X96876250Y-70157000D01*
X95677000Y-70157000D01*
X95423000Y-70157000D01*
X94223750Y-70157000D01*
X94065000Y-70315750D01*
X94061928Y-70880000D01*
X90828686Y-70880000D01*
X89128686Y-69180000D01*
X94061928Y-69180000D01*
X94065000Y-69744250D01*
X94223750Y-69903000D01*
X95423000Y-69903000D01*
X95423000Y-68703750D01*
X95677000Y-68703750D01*
X95677000Y-69903000D01*
X96876250Y-69903000D01*
X97035000Y-69744250D01*
X97038072Y-69180000D01*
X97025812Y-69055518D01*
X96989502Y-68935820D01*
X96930537Y-68825506D01*
X96851185Y-68728815D01*
X96754494Y-68649463D01*
X96644180Y-68590498D01*
X96524482Y-68554188D01*
X96400000Y-68541928D01*
X95835750Y-68545000D01*
X95677000Y-68703750D01*
X95423000Y-68703750D01*
X95264250Y-68545000D01*
X94700000Y-68541928D01*
X94575518Y-68554188D01*
X94455820Y-68590498D01*
X94345506Y-68649463D01*
X94248815Y-68728815D01*
X94169463Y-68825506D01*
X94110498Y-68935820D01*
X94074188Y-69055518D01*
X94061928Y-69180000D01*
X89128686Y-69180000D01*
X83985000Y-64036315D01*
X83985000Y-63676144D01*
X84039502Y-63574180D01*
X84075812Y-63454482D01*
X84088072Y-63330000D01*
X84088072Y-61630000D01*
X84075812Y-61505518D01*
X84039502Y-61385820D01*
X83985000Y-61283856D01*
X83985000Y-59780000D01*
X94061928Y-59780000D01*
X94074188Y-59904482D01*
X94110498Y-60024180D01*
X94169463Y-60134494D01*
X94248815Y-60231185D01*
X94345506Y-60310537D01*
X94455820Y-60369502D01*
X94575518Y-60405812D01*
X94700000Y-60418072D01*
X95264250Y-60415000D01*
X95423000Y-60256250D01*
X95423000Y-59057000D01*
X95677000Y-59057000D01*
X95677000Y-60256250D01*
X95835750Y-60415000D01*
X96400000Y-60418072D01*
X96524482Y-60405812D01*
X96644180Y-60369502D01*
X96754494Y-60310537D01*
X96851185Y-60231185D01*
X96930537Y-60134494D01*
X96989502Y-60024180D01*
X97025812Y-59904482D01*
X97038072Y-59780000D01*
X97035000Y-59215750D01*
X96876250Y-59057000D01*
X95677000Y-59057000D01*
X95423000Y-59057000D01*
X94223750Y-59057000D01*
X94065000Y-59215750D01*
X94061928Y-59780000D01*
X83985000Y-59780000D01*
X83985000Y-58168072D01*
X84910000Y-58168072D01*
X85034482Y-58155812D01*
X85154180Y-58119502D01*
X85228081Y-58080000D01*
X94061928Y-58080000D01*
X94065000Y-58644250D01*
X94223750Y-58803000D01*
X95423000Y-58803000D01*
X95423000Y-57603750D01*
X95677000Y-57603750D01*
X95677000Y-58803000D01*
X96876250Y-58803000D01*
X97035000Y-58644250D01*
X97038072Y-58080000D01*
X97025812Y-57955518D01*
X96989502Y-57835820D01*
X96930537Y-57725506D01*
X96851185Y-57628815D01*
X96754494Y-57549463D01*
X96644180Y-57490498D01*
X96524482Y-57454188D01*
X96400000Y-57441928D01*
X95835750Y-57445000D01*
X95677000Y-57603750D01*
X95423000Y-57603750D01*
X95264250Y-57445000D01*
X94700000Y-57441928D01*
X94575518Y-57454188D01*
X94455820Y-57490498D01*
X94345506Y-57549463D01*
X94248815Y-57628815D01*
X94169463Y-57725506D01*
X94110498Y-57835820D01*
X94074188Y-57955518D01*
X94061928Y-58080000D01*
X85228081Y-58080000D01*
X85264494Y-58060537D01*
X85361185Y-57981185D01*
X85440537Y-57884494D01*
X85499502Y-57774180D01*
X85535812Y-57654482D01*
X85548072Y-57530000D01*
X85548072Y-55530000D01*
X85535812Y-55405518D01*
X85499502Y-55285820D01*
X85440537Y-55175506D01*
X85361185Y-55078815D01*
X85264494Y-54999463D01*
X85154180Y-54940498D01*
X85034482Y-54904188D01*
X84910000Y-54891928D01*
X79910000Y-54891928D01*
X79785518Y-54904188D01*
X79665820Y-54940498D01*
X79555506Y-54999463D01*
X79458815Y-55078815D01*
X79379463Y-55175506D01*
X79320498Y-55285820D01*
X79284188Y-55405518D01*
X79271928Y-55530000D01*
X78997176Y-55530000D01*
X78995000Y-54315750D01*
X78836250Y-54157000D01*
X77737000Y-54157000D01*
X77483000Y-54157000D01*
X76383750Y-54157000D01*
X76225000Y-54315750D01*
X76221928Y-56030000D01*
X62483707Y-56030000D01*
X62700535Y-55885120D01*
X62895120Y-55690535D01*
X63048005Y-55461727D01*
X63153314Y-55207490D01*
X63207000Y-54937592D01*
X63207000Y-54662408D01*
X63153314Y-54392510D01*
X63048005Y-54138273D01*
X62895120Y-53909465D01*
X62700535Y-53714880D01*
X62471727Y-53561995D01*
X62394485Y-53530000D01*
X62471727Y-53498005D01*
X62700535Y-53345120D01*
X62895120Y-53150535D01*
X63048005Y-52921727D01*
X63153314Y-52667490D01*
X63207000Y-52397592D01*
X63207000Y-52122408D01*
X63188619Y-52030000D01*
X76221928Y-52030000D01*
X76225000Y-53744250D01*
X76383750Y-53903000D01*
X77483000Y-53903000D01*
X77483000Y-51553750D01*
X77737000Y-51553750D01*
X77737000Y-53903000D01*
X78836250Y-53903000D01*
X78995000Y-53744250D01*
X78998072Y-52030000D01*
X78985812Y-51905518D01*
X78949502Y-51785820D01*
X78890537Y-51675506D01*
X78811185Y-51578815D01*
X78751704Y-51530000D01*
X79271928Y-51530000D01*
X79284188Y-51654482D01*
X79320498Y-51774180D01*
X79379463Y-51884494D01*
X79458815Y-51981185D01*
X79555506Y-52060537D01*
X79665820Y-52119502D01*
X79785518Y-52155812D01*
X79910000Y-52168072D01*
X82124250Y-52165000D01*
X82283000Y-52006250D01*
X82283000Y-50657000D01*
X82537000Y-50657000D01*
X82537000Y-52006250D01*
X82695750Y-52165000D01*
X84910000Y-52168072D01*
X85034482Y-52155812D01*
X85154180Y-52119502D01*
X85264494Y-52060537D01*
X85361185Y-51981185D01*
X85440537Y-51884494D01*
X85499502Y-51774180D01*
X85535812Y-51654482D01*
X85548072Y-51530000D01*
X85545000Y-50815750D01*
X85386250Y-50657000D01*
X82537000Y-50657000D01*
X82283000Y-50657000D01*
X79433750Y-50657000D01*
X79275000Y-50815750D01*
X79271928Y-51530000D01*
X78751704Y-51530000D01*
X78714494Y-51499463D01*
X78604180Y-51440498D01*
X78484482Y-51404188D01*
X78360000Y-51391928D01*
X77895750Y-51395000D01*
X77737000Y-51553750D01*
X77483000Y-51553750D01*
X77324250Y-51395000D01*
X76860000Y-51391928D01*
X76735518Y-51404188D01*
X76615820Y-51440498D01*
X76505506Y-51499463D01*
X76408815Y-51578815D01*
X76329463Y-51675506D01*
X76270498Y-51785820D01*
X76234188Y-51905518D01*
X76221928Y-52030000D01*
X63188619Y-52030000D01*
X63153314Y-51852510D01*
X63048005Y-51598273D01*
X62895120Y-51369465D01*
X62700535Y-51174880D01*
X62471727Y-51021995D01*
X62400057Y-50992308D01*
X62413023Y-50987636D01*
X62528980Y-50925656D01*
X62595960Y-50685565D01*
X61810000Y-49899605D01*
X61024040Y-50685565D01*
X61091020Y-50925656D01*
X61226760Y-50989485D01*
X61148273Y-51021995D01*
X60919465Y-51174880D01*
X60724880Y-51369465D01*
X60571995Y-51598273D01*
X60466686Y-51852510D01*
X60413000Y-52122408D01*
X60413000Y-52397592D01*
X60466686Y-52667490D01*
X60571995Y-52921727D01*
X60724880Y-53150535D01*
X60919465Y-53345120D01*
X61148273Y-53498005D01*
X61225515Y-53530000D01*
X61148273Y-53561995D01*
X60919465Y-53714880D01*
X60724880Y-53909465D01*
X60571995Y-54138273D01*
X60466686Y-54392510D01*
X60413000Y-54662408D01*
X60413000Y-54937592D01*
X60466686Y-55207490D01*
X60571995Y-55461727D01*
X60724880Y-55690535D01*
X60919465Y-55885120D01*
X61148273Y-56038005D01*
X61225515Y-56070000D01*
X61148273Y-56101995D01*
X60919465Y-56254880D01*
X60724880Y-56449465D01*
X60571995Y-56678273D01*
X60466686Y-56932510D01*
X60413000Y-57202408D01*
X60413000Y-57477592D01*
X60466686Y-57747490D01*
X60571995Y-58001727D01*
X60724880Y-58230535D01*
X60919465Y-58425120D01*
X61148273Y-58578005D01*
X61225515Y-58610000D01*
X61148273Y-58641995D01*
X60919465Y-58794880D01*
X60724880Y-58989465D01*
X60571995Y-59218273D01*
X60466686Y-59472510D01*
X60413000Y-59742408D01*
X60413000Y-60017592D01*
X60466686Y-60287490D01*
X60571995Y-60541727D01*
X60724880Y-60770535D01*
X60919465Y-60965120D01*
X61148273Y-61118005D01*
X61225515Y-61150000D01*
X61148273Y-61181995D01*
X60919465Y-61334880D01*
X60724880Y-61529465D01*
X60571995Y-61758273D01*
X60466686Y-62012510D01*
X60413000Y-62282408D01*
X60413000Y-62557592D01*
X60466686Y-62827490D01*
X60571995Y-63081727D01*
X60724880Y-63310535D01*
X60919465Y-63505120D01*
X61148273Y-63658005D01*
X61225515Y-63690000D01*
X61148273Y-63721995D01*
X60919465Y-63874880D01*
X60724880Y-64069465D01*
X60571995Y-64298273D01*
X60466686Y-64552510D01*
X60413000Y-64822408D01*
X60413000Y-65097592D01*
X60466686Y-65367490D01*
X60571995Y-65621727D01*
X60724880Y-65850535D01*
X60919465Y-66045120D01*
X61148273Y-66198005D01*
X61225515Y-66230000D01*
X61148273Y-66261995D01*
X60919465Y-66414880D01*
X60724880Y-66609465D01*
X60571995Y-66838273D01*
X60466686Y-67092510D01*
X60413000Y-67362408D01*
X60413000Y-67637592D01*
X60466686Y-67907490D01*
X60571995Y-68161727D01*
X60724880Y-68390535D01*
X60919465Y-68585120D01*
X61148273Y-68738005D01*
X61225515Y-68770000D01*
X61148273Y-68801995D01*
X60919465Y-68954880D01*
X60724880Y-69149465D01*
X60571995Y-69378273D01*
X60466686Y-69632510D01*
X60413000Y-69902408D01*
X60413000Y-70177592D01*
X60466686Y-70447490D01*
X60571995Y-70701727D01*
X60724880Y-70930535D01*
X60919465Y-71125120D01*
X61148273Y-71278005D01*
X61225515Y-71310000D01*
X61148273Y-71341995D01*
X60919465Y-71494880D01*
X60724880Y-71689465D01*
X60571995Y-71918273D01*
X60466686Y-72172510D01*
X60413000Y-72442408D01*
X60413000Y-72717592D01*
X60466686Y-72987490D01*
X60571995Y-73241727D01*
X60724880Y-73470535D01*
X60919465Y-73665120D01*
X61148273Y-73818005D01*
X61225515Y-73850000D01*
X61148273Y-73881995D01*
X60919465Y-74034880D01*
X60724880Y-74229465D01*
X60571995Y-74458273D01*
X60466686Y-74712510D01*
X60413000Y-74982408D01*
X60413000Y-75257592D01*
X60466686Y-75527490D01*
X60571995Y-75781727D01*
X60724880Y-76010535D01*
X60919465Y-76205120D01*
X61148273Y-76358005D01*
X61225515Y-76390000D01*
X61148273Y-76421995D01*
X60919465Y-76574880D01*
X60724880Y-76769465D01*
X60571995Y-76998273D01*
X60466686Y-77252510D01*
X60413000Y-77522408D01*
X60413000Y-77797592D01*
X60466686Y-78067490D01*
X60571995Y-78321727D01*
X60724880Y-78550535D01*
X60919465Y-78745120D01*
X61148273Y-78898005D01*
X61225515Y-78930000D01*
X61148273Y-78961995D01*
X60919465Y-79114880D01*
X60724880Y-79309465D01*
X60571995Y-79538273D01*
X60466686Y-79792510D01*
X60413000Y-80062408D01*
X60413000Y-80337592D01*
X60466686Y-80607490D01*
X60571995Y-80861727D01*
X60724880Y-81090535D01*
X60919465Y-81285120D01*
X61148273Y-81438005D01*
X61225515Y-81470000D01*
X61148273Y-81501995D01*
X60919465Y-81654880D01*
X60724880Y-81849465D01*
X60571995Y-82078273D01*
X60466686Y-82332510D01*
X60413000Y-82602408D01*
X60413000Y-82877592D01*
X60466686Y-83147490D01*
X60571995Y-83401727D01*
X60724880Y-83630535D01*
X60919465Y-83825120D01*
X61148273Y-83978005D01*
X61225515Y-84010000D01*
X61148273Y-84041995D01*
X60919465Y-84194880D01*
X60724880Y-84389465D01*
X60571995Y-84618273D01*
X60466686Y-84872510D01*
X60413000Y-85142408D01*
X60413000Y-85417592D01*
X60466686Y-85687490D01*
X60571995Y-85941727D01*
X60724880Y-86170535D01*
X60919465Y-86365120D01*
X61148273Y-86518005D01*
X61225515Y-86550000D01*
X61148273Y-86581995D01*
X60919465Y-86734880D01*
X60724880Y-86929465D01*
X60571995Y-87158273D01*
X60466686Y-87412510D01*
X60413000Y-87682408D01*
X60413000Y-87957592D01*
X60466686Y-88227490D01*
X60571995Y-88481727D01*
X60724880Y-88710535D01*
X60919465Y-88905120D01*
X61148273Y-89058005D01*
X61225515Y-89090000D01*
X61148273Y-89121995D01*
X60919465Y-89274880D01*
X60724880Y-89469465D01*
X60571995Y-89698273D01*
X60466686Y-89952510D01*
X60413000Y-90222408D01*
X60413000Y-90497592D01*
X60466686Y-90767490D01*
X60571995Y-91021727D01*
X60724880Y-91250535D01*
X60919465Y-91445120D01*
X61148273Y-91598005D01*
X61225515Y-91630000D01*
X61148273Y-91661995D01*
X60919465Y-91814880D01*
X60724880Y-92009465D01*
X60571995Y-92238273D01*
X60466686Y-92492510D01*
X60413000Y-92762408D01*
X60413000Y-93037592D01*
X60466686Y-93307490D01*
X60571995Y-93561727D01*
X60724880Y-93790535D01*
X60919465Y-93985120D01*
X61148273Y-94138005D01*
X61225515Y-94170000D01*
X61148273Y-94201995D01*
X60919465Y-94354880D01*
X60724880Y-94549465D01*
X60571995Y-94778273D01*
X60466686Y-95032510D01*
X60413000Y-95302408D01*
X60413000Y-95577592D01*
X60466686Y-95847490D01*
X60571995Y-96101727D01*
X60724880Y-96330535D01*
X60919465Y-96525120D01*
X61148273Y-96678005D01*
X61402510Y-96783314D01*
X61672408Y-96837000D01*
X61947592Y-96837000D01*
X62217490Y-96783314D01*
X62471727Y-96678005D01*
X62700535Y-96525120D01*
X62895120Y-96330535D01*
X63048005Y-96101727D01*
X63153314Y-95847490D01*
X63207000Y-95577592D01*
X63207000Y-95302408D01*
X63153314Y-95032510D01*
X63048005Y-94778273D01*
X62895120Y-94549465D01*
X62700535Y-94354880D01*
X62471727Y-94201995D01*
X62394485Y-94170000D01*
X62471727Y-94138005D01*
X62700535Y-93985120D01*
X62895120Y-93790535D01*
X63048005Y-93561727D01*
X63153314Y-93307490D01*
X63207000Y-93037592D01*
X63207000Y-92762408D01*
X63153314Y-92492510D01*
X63048005Y-92238273D01*
X62895120Y-92009465D01*
X62700535Y-91814880D01*
X62471727Y-91661995D01*
X62394485Y-91630000D01*
X62471727Y-91598005D01*
X62700535Y-91445120D01*
X62895120Y-91250535D01*
X63048005Y-91021727D01*
X63153314Y-90767490D01*
X63207000Y-90497592D01*
X63207000Y-90222408D01*
X63153314Y-89952510D01*
X63048005Y-89698273D01*
X62895120Y-89469465D01*
X62700535Y-89274880D01*
X62471727Y-89121995D01*
X62394485Y-89090000D01*
X62471727Y-89058005D01*
X62700535Y-88905120D01*
X62895120Y-88710535D01*
X63048005Y-88481727D01*
X63153314Y-88227490D01*
X63207000Y-87957592D01*
X63207000Y-87682408D01*
X63153314Y-87412510D01*
X63048005Y-87158273D01*
X62895120Y-86929465D01*
X62700535Y-86734880D01*
X62471727Y-86581995D01*
X62394485Y-86550000D01*
X62471727Y-86518005D01*
X62700535Y-86365120D01*
X62895120Y-86170535D01*
X62898818Y-86165000D01*
X64247017Y-86165000D01*
X64180590Y-86245941D01*
X64098412Y-86399687D01*
X64047805Y-86566510D01*
X64030719Y-86740000D01*
X64035001Y-86783479D01*
X64035000Y-96853421D01*
X63703422Y-97185000D01*
X57895000Y-97185000D01*
X57895000Y-93413469D01*
X57899281Y-93370000D01*
X57895000Y-93326531D01*
X57895000Y-93326523D01*
X57882195Y-93196510D01*
X57831589Y-93029687D01*
X57749411Y-92875941D01*
X57638817Y-92741183D01*
X57605045Y-92713467D01*
X57166534Y-92274956D01*
X57138817Y-92241183D01*
X57004059Y-92130589D01*
X56850313Y-92048411D01*
X56683490Y-91997805D01*
X56553477Y-91985000D01*
X56553469Y-91985000D01*
X56510000Y-91980719D01*
X56466531Y-91985000D01*
X54844656Y-91985000D01*
X54803475Y-91923368D01*
X54596632Y-91716525D01*
X54422240Y-91600000D01*
X54596632Y-91483475D01*
X54803475Y-91276632D01*
X54965990Y-91033411D01*
X55077932Y-90763158D01*
X55135000Y-90476260D01*
X55135000Y-90183740D01*
X55077932Y-89896842D01*
X54965990Y-89626589D01*
X54803475Y-89383368D01*
X54596632Y-89176525D01*
X54353411Y-89014010D01*
X54083158Y-88902068D01*
X53796260Y-88845000D01*
X53503740Y-88845000D01*
X53216842Y-88902068D01*
X52946589Y-89014010D01*
X52703368Y-89176525D01*
X52496525Y-89383368D01*
X52435298Y-89475000D01*
X47658818Y-89475000D01*
X47655120Y-89469465D01*
X47460535Y-89274880D01*
X47231727Y-89121995D01*
X47154485Y-89090000D01*
X47231727Y-89058005D01*
X47460535Y-88905120D01*
X47655120Y-88710535D01*
X47808005Y-88481727D01*
X47913314Y-88227490D01*
X47967000Y-87957592D01*
X47967000Y-87682408D01*
X47913314Y-87412510D01*
X47808005Y-87158273D01*
X47655120Y-86929465D01*
X47460535Y-86734880D01*
X47231727Y-86581995D01*
X47154485Y-86550000D01*
X47231727Y-86518005D01*
X47460535Y-86365120D01*
X47655120Y-86170535D01*
X47808005Y-85941727D01*
X47913314Y-85687490D01*
X47967000Y-85417592D01*
X47967000Y-85142408D01*
X47913314Y-84872510D01*
X47808005Y-84618273D01*
X47655120Y-84389465D01*
X47460535Y-84194880D01*
X47231727Y-84041995D01*
X47154485Y-84010000D01*
X47231727Y-83978005D01*
X47460535Y-83825120D01*
X47655120Y-83630535D01*
X47808005Y-83401727D01*
X47913314Y-83147490D01*
X47967000Y-82877592D01*
X47967000Y-82759872D01*
X51955000Y-82759872D01*
X51955000Y-83200128D01*
X52040890Y-83631925D01*
X52209369Y-84038669D01*
X52453962Y-84404729D01*
X52765271Y-84716038D01*
X53131331Y-84960631D01*
X53538075Y-85129110D01*
X53969872Y-85215000D01*
X54410128Y-85215000D01*
X54841925Y-85129110D01*
X55248669Y-84960631D01*
X55614729Y-84716038D01*
X55926038Y-84404729D01*
X56170631Y-84038669D01*
X56339110Y-83631925D01*
X56425000Y-83200128D01*
X56425000Y-82759872D01*
X56339110Y-82328075D01*
X56170631Y-81921331D01*
X55926038Y-81555271D01*
X55614729Y-81243962D01*
X55248669Y-80999369D01*
X54841925Y-80830890D01*
X54410128Y-80745000D01*
X53969872Y-80745000D01*
X53538075Y-80830890D01*
X53131331Y-80999369D01*
X52765271Y-81243962D01*
X52453962Y-81555271D01*
X52209369Y-81921331D01*
X52040890Y-82328075D01*
X51955000Y-82759872D01*
X47967000Y-82759872D01*
X47967000Y-82602408D01*
X47913314Y-82332510D01*
X47808005Y-82078273D01*
X47655120Y-81849465D01*
X47460535Y-81654880D01*
X47231727Y-81501995D01*
X47154485Y-81470000D01*
X47231727Y-81438005D01*
X47460535Y-81285120D01*
X47655120Y-81090535D01*
X47808005Y-80861727D01*
X47913314Y-80607490D01*
X47967000Y-80337592D01*
X47967000Y-80062408D01*
X47913314Y-79792510D01*
X47808005Y-79538273D01*
X47655120Y-79309465D01*
X47460535Y-79114880D01*
X47231727Y-78961995D01*
X47154485Y-78930000D01*
X47231727Y-78898005D01*
X47460535Y-78745120D01*
X47655120Y-78550535D01*
X47808005Y-78321727D01*
X47913314Y-78067490D01*
X47967000Y-77797592D01*
X47967000Y-77522408D01*
X47913314Y-77252510D01*
X47808005Y-76998273D01*
X47655120Y-76769465D01*
X47460535Y-76574880D01*
X47231727Y-76421995D01*
X47154485Y-76390000D01*
X47231727Y-76358005D01*
X47460535Y-76205120D01*
X47655120Y-76010535D01*
X47808005Y-75781727D01*
X47913314Y-75527490D01*
X47967000Y-75257592D01*
X47967000Y-74982408D01*
X47913314Y-74712510D01*
X47808005Y-74458273D01*
X47655120Y-74229465D01*
X47460535Y-74034880D01*
X47231727Y-73881995D01*
X47154485Y-73850000D01*
X47231727Y-73818005D01*
X47460535Y-73665120D01*
X47655120Y-73470535D01*
X47808005Y-73241727D01*
X47913314Y-72987490D01*
X47967000Y-72717592D01*
X47967000Y-72442408D01*
X47913314Y-72172510D01*
X47808005Y-71918273D01*
X47655120Y-71689465D01*
X47460535Y-71494880D01*
X47231727Y-71341995D01*
X47154485Y-71310000D01*
X47231727Y-71278005D01*
X47460535Y-71125120D01*
X47655120Y-70930535D01*
X47808005Y-70701727D01*
X47913314Y-70447490D01*
X47967000Y-70177592D01*
X47967000Y-69902408D01*
X47913314Y-69632510D01*
X47808005Y-69378273D01*
X47655120Y-69149465D01*
X47460535Y-68954880D01*
X47231727Y-68801995D01*
X47154485Y-68770000D01*
X47231727Y-68738005D01*
X47460535Y-68585120D01*
X47655120Y-68390535D01*
X47808005Y-68161727D01*
X47913314Y-67907490D01*
X47967000Y-67637592D01*
X47967000Y-67362408D01*
X47913314Y-67092510D01*
X47808005Y-66838273D01*
X47655120Y-66609465D01*
X47460535Y-66414880D01*
X47231727Y-66261995D01*
X47154485Y-66230000D01*
X47231727Y-66198005D01*
X47460535Y-66045120D01*
X47655120Y-65850535D01*
X47808005Y-65621727D01*
X47913314Y-65367490D01*
X47967000Y-65097592D01*
X47967000Y-64822408D01*
X47913314Y-64552510D01*
X47808005Y-64298273D01*
X47655120Y-64069465D01*
X47460535Y-63874880D01*
X47231727Y-63721995D01*
X47154485Y-63690000D01*
X47231727Y-63658005D01*
X47460535Y-63505120D01*
X47655120Y-63310535D01*
X47808005Y-63081727D01*
X47913314Y-62827490D01*
X47967000Y-62557592D01*
X47967000Y-62282408D01*
X47913314Y-62012510D01*
X47808005Y-61758273D01*
X47655120Y-61529465D01*
X47460535Y-61334880D01*
X47231727Y-61181995D01*
X47154485Y-61150000D01*
X47231727Y-61118005D01*
X47460535Y-60965120D01*
X47655120Y-60770535D01*
X47808005Y-60541727D01*
X47913314Y-60287490D01*
X47967000Y-60017592D01*
X47967000Y-59742408D01*
X47913314Y-59472510D01*
X47808005Y-59218273D01*
X47655120Y-58989465D01*
X47460535Y-58794880D01*
X47231727Y-58641995D01*
X47154485Y-58610000D01*
X47231727Y-58578005D01*
X47460535Y-58425120D01*
X47655120Y-58230535D01*
X47808005Y-58001727D01*
X47913314Y-57747490D01*
X47967000Y-57477592D01*
X47967000Y-57202408D01*
X47913314Y-56932510D01*
X47808005Y-56678273D01*
X47655120Y-56449465D01*
X47460535Y-56254880D01*
X47231727Y-56101995D01*
X47154485Y-56070000D01*
X47231727Y-56038005D01*
X47460535Y-55885120D01*
X47655120Y-55690535D01*
X47808005Y-55461727D01*
X47913314Y-55207490D01*
X47967000Y-54937592D01*
X47967000Y-54662408D01*
X47913314Y-54392510D01*
X47808005Y-54138273D01*
X47655120Y-53909465D01*
X47460535Y-53714880D01*
X47231727Y-53561995D01*
X47154485Y-53530000D01*
X47231727Y-53498005D01*
X47460535Y-53345120D01*
X47655120Y-53150535D01*
X47808005Y-52921727D01*
X47913314Y-52667490D01*
X47967000Y-52397592D01*
X47967000Y-52122408D01*
X47913314Y-51852510D01*
X47808005Y-51598273D01*
X47655120Y-51369465D01*
X47460535Y-51174880D01*
X47231727Y-51021995D01*
X47154485Y-50990000D01*
X47231727Y-50958005D01*
X47460535Y-50805120D01*
X47655120Y-50610535D01*
X47808005Y-50381727D01*
X47913314Y-50127490D01*
X47967000Y-49857592D01*
X47967000Y-49792017D01*
X60408090Y-49792017D01*
X60449078Y-50064133D01*
X60542364Y-50323023D01*
X60604344Y-50438980D01*
X60844435Y-50505960D01*
X61630395Y-49720000D01*
X61989605Y-49720000D01*
X62775565Y-50505960D01*
X63015656Y-50438980D01*
X63132756Y-50189952D01*
X63199023Y-49922865D01*
X63211910Y-49647983D01*
X63194139Y-49530000D01*
X79271928Y-49530000D01*
X79275000Y-50244250D01*
X79433750Y-50403000D01*
X82283000Y-50403000D01*
X82283000Y-49053750D01*
X82537000Y-49053750D01*
X82537000Y-50403000D01*
X85386250Y-50403000D01*
X85545000Y-50244250D01*
X85548072Y-49530000D01*
X85535812Y-49405518D01*
X85499502Y-49285820D01*
X85440537Y-49175506D01*
X85361185Y-49078815D01*
X85264494Y-48999463D01*
X85154180Y-48940498D01*
X85034482Y-48904188D01*
X84910000Y-48891928D01*
X82695750Y-48895000D01*
X82537000Y-49053750D01*
X82283000Y-49053750D01*
X82124250Y-48895000D01*
X79910000Y-48891928D01*
X79785518Y-48904188D01*
X79665820Y-48940498D01*
X79555506Y-48999463D01*
X79458815Y-49078815D01*
X79379463Y-49175506D01*
X79320498Y-49285820D01*
X79284188Y-49405518D01*
X79271928Y-49530000D01*
X63194139Y-49530000D01*
X63170922Y-49375867D01*
X63077636Y-49116977D01*
X63015656Y-49001020D01*
X62775565Y-48934040D01*
X61989605Y-49720000D01*
X61630395Y-49720000D01*
X60844435Y-48934040D01*
X60604344Y-49001020D01*
X60487244Y-49250048D01*
X60420977Y-49517135D01*
X60408090Y-49792017D01*
X47967000Y-49792017D01*
X47967000Y-49582408D01*
X47913314Y-49312510D01*
X47808005Y-49058273D01*
X47655120Y-48829465D01*
X47460535Y-48634880D01*
X47231727Y-48481995D01*
X47154485Y-48450000D01*
X47231727Y-48418005D01*
X47460535Y-48265120D01*
X47655120Y-48070535D01*
X47808005Y-47841727D01*
X47913314Y-47587490D01*
X47967000Y-47317592D01*
X47967000Y-47069872D01*
X52075000Y-47069872D01*
X52075000Y-47510128D01*
X52160890Y-47941925D01*
X52329369Y-48348669D01*
X52573962Y-48714729D01*
X52885271Y-49026038D01*
X53251331Y-49270631D01*
X53658075Y-49439110D01*
X54089872Y-49525000D01*
X54530128Y-49525000D01*
X54961925Y-49439110D01*
X55368669Y-49270631D01*
X55734729Y-49026038D01*
X56046038Y-48714729D01*
X56290631Y-48348669D01*
X56374759Y-48145565D01*
X61024040Y-48145565D01*
X61091020Y-48385656D01*
X61221644Y-48447079D01*
X61206977Y-48452364D01*
X61091020Y-48514344D01*
X61024040Y-48754435D01*
X61810000Y-49540395D01*
X62595960Y-48754435D01*
X62528980Y-48514344D01*
X62398356Y-48452921D01*
X62413023Y-48447636D01*
X62528980Y-48385656D01*
X62595960Y-48145565D01*
X61810000Y-47359605D01*
X61024040Y-48145565D01*
X56374759Y-48145565D01*
X56459110Y-47941925D01*
X56545000Y-47510128D01*
X56545000Y-47252017D01*
X60408090Y-47252017D01*
X60449078Y-47524133D01*
X60542364Y-47783023D01*
X60604344Y-47898980D01*
X60844435Y-47965960D01*
X61630395Y-47180000D01*
X61989605Y-47180000D01*
X62775565Y-47965960D01*
X63015656Y-47898980D01*
X63132756Y-47649952D01*
X63199023Y-47382865D01*
X63211910Y-47107983D01*
X63170922Y-46835867D01*
X63077636Y-46576977D01*
X63015656Y-46461020D01*
X62939851Y-46439872D01*
X92115000Y-46439872D01*
X92115000Y-46880128D01*
X92200890Y-47311925D01*
X92369369Y-47718669D01*
X92613962Y-48084729D01*
X92925271Y-48396038D01*
X93291331Y-48640631D01*
X93698075Y-48809110D01*
X94129872Y-48895000D01*
X94570128Y-48895000D01*
X95001925Y-48809110D01*
X95408669Y-48640631D01*
X95774729Y-48396038D01*
X96086038Y-48084729D01*
X96330631Y-47718669D01*
X96499110Y-47311925D01*
X96585000Y-46880128D01*
X96585000Y-46439872D01*
X96499110Y-46008075D01*
X96330631Y-45601331D01*
X96086038Y-45235271D01*
X95774729Y-44923962D01*
X95408669Y-44679369D01*
X95001925Y-44510890D01*
X94570128Y-44425000D01*
X94129872Y-44425000D01*
X93698075Y-44510890D01*
X93291331Y-44679369D01*
X92925271Y-44923962D01*
X92613962Y-45235271D01*
X92369369Y-45601331D01*
X92200890Y-46008075D01*
X92115000Y-46439872D01*
X62939851Y-46439872D01*
X62775565Y-46394040D01*
X61989605Y-47180000D01*
X61630395Y-47180000D01*
X60844435Y-46394040D01*
X60604344Y-46461020D01*
X60487244Y-46710048D01*
X60420977Y-46977135D01*
X60408090Y-47252017D01*
X56545000Y-47252017D01*
X56545000Y-47069872D01*
X56459110Y-46638075D01*
X56290631Y-46231331D01*
X56279342Y-46214435D01*
X61024040Y-46214435D01*
X61810000Y-47000395D01*
X62595960Y-46214435D01*
X62528980Y-45974344D01*
X62279952Y-45857244D01*
X62012865Y-45790977D01*
X61737983Y-45778090D01*
X61465867Y-45819078D01*
X61206977Y-45912364D01*
X61091020Y-45974344D01*
X61024040Y-46214435D01*
X56279342Y-46214435D01*
X56046038Y-45865271D01*
X55734729Y-45553962D01*
X55368669Y-45309369D01*
X54961925Y-45140890D01*
X54530128Y-45055000D01*
X54089872Y-45055000D01*
X53658075Y-45140890D01*
X53251331Y-45309369D01*
X52885271Y-45553962D01*
X52573962Y-45865271D01*
X52329369Y-46231331D01*
X52160890Y-46638075D01*
X52075000Y-47069872D01*
X47967000Y-47069872D01*
X47967000Y-47042408D01*
X47913314Y-46772510D01*
X47808005Y-46518273D01*
X47655120Y-46289465D01*
X47460535Y-46094880D01*
X47231727Y-45941995D01*
X46977490Y-45836686D01*
X46707592Y-45783000D01*
X46432408Y-45783000D01*
X46162510Y-45836686D01*
X45908273Y-45941995D01*
X45679465Y-46094880D01*
X45484880Y-46289465D01*
X45331995Y-46518273D01*
X45226686Y-46772510D01*
X45173000Y-47042408D01*
X43240000Y-47042408D01*
X43240000Y-44362277D01*
X43259102Y-44167460D01*
X43306308Y-44011106D01*
X43382982Y-43866904D01*
X43486207Y-43740337D01*
X43612051Y-43636231D01*
X43755711Y-43558553D01*
X43911729Y-43510258D01*
X44104473Y-43490000D01*
X96767723Y-43490000D01*
X96962540Y-43509102D01*
G37*
%TD.AperFunction*%
%TD*%
M02*
