M48
; DRILL file {KiCad (5.1.7)-1} date 11/14/20 21:45:57
; FORMAT={-:-/ absolute / metric / decimal}
; #@! TF.CreationDate,2020-11-14T21:45:57+03:00
; #@! TF.GenerationSoftware,Kicad,Pcbnew,(5.1.7)-1
FMAT,2
METRIC
T1C0.762
T2C0.800
T3C0.950
T4C1.000
T5C3.200
%
G90
G05
T1
X46.57Y-47.18
X46.57Y-49.72
X46.57Y-52.26
X46.57Y-54.8
X46.57Y-57.34
X46.57Y-59.88
X46.57Y-62.42
X46.57Y-64.96
X46.57Y-67.5
X46.57Y-70.04
X46.57Y-72.58
X46.57Y-75.12
X46.57Y-77.66
X46.57Y-80.2
X46.57Y-82.74
X46.57Y-85.28
X46.57Y-87.82
X46.57Y-90.36
X46.57Y-92.9
X46.57Y-95.44
X61.81Y-47.18
X61.81Y-49.72
X61.81Y-52.26
X61.81Y-54.8
X61.81Y-57.34
X61.81Y-59.88
X61.81Y-62.42
X61.81Y-64.96
X61.81Y-67.5
X61.81Y-70.04
X61.81Y-72.58
X61.81Y-75.12
X61.81Y-77.66
X61.81Y-80.2
X61.81Y-82.74
X61.81Y-85.28
X61.81Y-87.82
X61.81Y-90.36
X61.81Y-92.9
X61.81Y-95.44
T2
X91.06Y-82.73
X96.06Y-82.73
T3
X73.47Y-94.24
X75.97Y-94.24
X78.47Y-94.24
X80.97Y-94.24
T4
X68.45Y-74.77
X70.99Y-74.77
X73.53Y-74.77
X76.07Y-74.77
X78.61Y-74.77
X81.15Y-74.77
X83.69Y-74.77
X86.23Y-74.77
X95.55Y-58.93
X82.6Y-62.48
X68.45Y-87.67
X70.99Y-87.67
X73.53Y-87.67
X76.07Y-87.67
X78.61Y-87.67
X81.15Y-87.67
X83.69Y-87.67
X86.23Y-87.67
X95.55Y-70.03
X53.65Y-90.33
X53.65Y-92.87
X53.65Y-95.41
T5
X54.19Y-82.98
X94.35Y-46.66
X54.31Y-47.29
X94.35Y-97.1
T4
G00X77.61Y-53.03
M15
G01X77.61Y-55.03
M16
G05
G00X83.66Y-50.53
M15
G01X81.16Y-50.53
M16
G05
G00X83.66Y-56.53
M15
G01X81.16Y-56.53
M16
G05
T0
M30
